<?xml version="1.0" standalone="no"?>
<!DOCTYPE svg PUBLIC "-//W3C//DTD SVG 20010904//EN"
 "http://www.w3.org/TR/2001/REC-SVG-20010904/DTD/svg10.dtd">
<svg version="1.0" xmlns="http://www.w3.org/2000/svg"
 width="1024.000000pt" height="1024.000000pt" viewBox="0 0 1024.000000 1024.000000"
 preserveAspectRatio="xMidYMid meet">

<g transform="translate(0.000000,1024.000000) scale(0.100000,-0.100000)"
fill="#000000" stroke="none">
<path d="M4933 8323 c9 -2 25 -2 35 0 9 3 1 5 -18 5 -19 0 -27 -2 -17 -5z"/>
<path d="M5283 8323 c9 -2 23 -2 30 0 6 3 -1 5 -18 5 -16 0 -22 -2 -12 -5z"/>
<path d="M4848 8313 c6 -2 18 -2 25 0 6 3 1 5 -13 5 -14 0 -19 -2 -12 -5z"/>
<path d="M5428 8313 c7 -3 16 -2 19 1 4 3 -2 6 -13 5 -11 0 -14 -3 -6 -6z"/>
<path d="M4778 8303 c6 -2 18 -2 25 0 6 3 1 5 -13 5 -14 0 -19 -2 -12 -5z"/>
<path d="M4708 8293 c6 -2 18 -2 25 0 6 3 1 5 -13 5 -14 0 -19 -2 -12 -5z"/>
<path d="M4648 8283 c6 -2 18 -2 25 0 6 3 1 5 -13 5 -14 0 -19 -2 -12 -5z"/>
<path d="M4588 8273 c6 -2 18 -2 25 0 6 3 1 5 -13 5 -14 0 -19 -2 -12 -5z"/>
<path d="M5688 8273 c7 -3 16 -2 19 1 4 3 -2 6 -13 5 -11 0 -14 -3 -6 -6z"/>
<path d="M4538 8263 c7 -3 16 -2 19 1 4 3 -2 6 -13 5 -11 0 -14 -3 -6 -6z"/>
<path d="M4488 8253 c6 -2 18 -2 25 0 6 3 1 5 -13 5 -14 0 -19 -2 -12 -5z"/>
<path d="M5838 8243 c7 -3 16 -2 19 1 4 3 -2 6 -13 5 -11 0 -14 -3 -6 -6z"/>
<path d="M5878 8233 c7 -3 16 -2 19 1 4 3 -2 6 -13 5 -11 0 -14 -3 -6 -6z"/>
<path d="M4368 8223 c7 -3 16 -2 19 1 4 3 -2 6 -13 5 -11 0 -14 -3 -6 -6z"/>
<path d="M4328 8213 c7 -3 16 -2 19 1 4 3 -2 6 -13 5 -11 0 -14 -3 -6 -6z"/>
<path d="M4258 8193 c7 -3 16 -2 19 1 4 3 -2 6 -13 5 -11 0 -14 -3 -6 -6z"/>
<path d="M4100 8140 c-8 -5 -10 -10 -5 -10 6 0 17 5 25 10 8 5 11 10 5 10 -5
0 -17 -5 -25 -10z"/>
<path d="M6377 8059 c7 -7 15 -10 18 -7 3 3 -2 9 -12 12 -14 6 -15 5 -6 -5z"/>
<path d="M3798 8009 c-21 -11 -38 -22 -38 -24 0 -3 18 4 40 15 22 11 40 23 40
25 0 7 0 7 -42 -16z"/>
<path d="M6455 8020 c3 -4 14 -10 25 -13 11 -3 18 -2 15 3 -3 4 -14 10 -25 13
-11 3 -18 2 -15 -3z"/>
<path d="M6510 7996 c0 -2 7 -7 16 -10 8 -3 12 -2 9 4 -6 10 -25 14 -25 6z"/>
<path d="M5117 7939 c-54 -13 -83 -38 -143 -128 -101 -151 -268 -268 -439
-307 -115 -26 -137 -37 -172 -83 -44 -57 -45 -111 -3 -169 70 -97 152 -96 367
3 104 49 210 120 240 161 18 25 20 25 36 9 15 -14 17 -43 17 -228 l0 -212 145
0 145 0 0 216 c0 145 4 219 11 226 9 9 29 -3 77 -44 140 -119 290 -191 413
-201 81 -6 130 14 165 67 36 55 40 92 14 145 -28 59 -57 79 -155 105 -130 35
-216 69 -275 108 -62 41 -166 146 -212 213 -75 110 -136 141 -231 119z"/>
<path d="M6610 7946 c0 -3 9 -10 20 -16 11 -6 20 -8 20 -6 0 3 -9 10 -20 16
-11 6 -20 8 -20 6z"/>
<path d="M6695 7895 c11 -9 29 -21 40 -26 l20 -10 -20 16 c-11 9 -29 21 -40
26 l-20 10 20 -16z"/>
<path d="M3489 7823 c-13 -16 -12 -17 4 -4 9 7 17 15 17 17 0 8 -8 3 -21 -13z"/>
<path d="M3419 7773 c-13 -16 -12 -17 4 -4 16 13 21 21 13 21 -2 0 -10 -8 -17
-17z"/>
<path d="M6995 7680 c10 -11 20 -20 23 -20 3 0 -3 9 -13 20 -10 11 -20 20 -23
20 -3 0 3 -9 13 -20z"/>
<path d="M3224 7618 l-19 -23 23 19 c21 18 27 26 19 26 -2 0 -12 -10 -23 -22z"/>
<path d="M7180 7515 c13 -14 26 -25 28 -25 3 0 -5 11 -18 25 -13 14 -26 25
-28 25 -3 0 5 -11 18 -25z"/>
<path d="M7270 7416 c0 -2 8 -10 18 -17 15 -13 16 -12 3 4 -13 16 -21 21 -21
13z"/>
<path d="M7355 7320 c10 -11 20 -20 23 -20 3 0 -3 9 -13 20 -10 11 -20 20 -23
20 -3 0 3 -9 13 -20z"/>
<path d="M4998 6505 c-84 -17 -156 -48 -165 -72 -14 -39 -69 -105 -121 -145
-30 -23 -111 -72 -181 -108 -153 -79 -175 -104 -221 -252 -47 -150 -78 -311
-52 -271 4 7 54 31 111 53 223 89 419 205 531 316 109 107 109 108 112 -172 3
-182 0 -224 -12 -238 -31 -38 -209 -180 -301 -241 -103 -68 -174 -105 -284
-150 -38 -16 -74 -32 -79 -36 -9 -8 29 -80 77 -144 43 -57 149 -165 163 -165
6 0 19 9 28 19 10 11 47 37 84 58 36 21 117 85 180 142 93 85 117 103 131 94
14 -9 17 -44 21 -274 l5 -264 45 -7 c58 -8 204 -10 224 -2 14 5 16 39 16 279
0 230 2 274 15 285 13 10 31 -3 113 -81 54 -52 146 -128 205 -169 81 -57 106
-79 103 -93 -4 -15 -2 -16 10 -6 7 6 20 9 28 6 10 -4 18 5 25 25 12 33 38 68
52 68 4 0 9 -8 12 -17 3 -14 4 -13 3 2 0 11 9 38 22 58 12 21 22 47 22 57 0
14 5 18 16 13 10 -4 22 1 30 12 7 9 27 33 44 52 l31 34 -98 45 c-205 95 -278
139 -474 287 -57 43 -115 86 -129 96 l-25 18 0 229 c0 233 5 284 29 284 7 0
49 -35 92 -78 137 -134 246 -209 439 -299 130 -62 223 -88 364 -104 184 -21
299 -1 356 62 63 70 64 145 4 214 -44 50 -96 65 -295 83 l-179 17 -3 36 c-3
32 1 38 37 62 58 38 51 42 -8 6 -27 -17 -66 -35 -87 -39 -34 -8 -44 -6 -79 17
-22 15 -50 28 -62 29 -12 1 -69 25 -125 53 -123 60 -230 146 -288 231 -23 34
-51 65 -64 70 -76 28 -335 37 -448 15z"/>
<path d="M6219 6173 c-13 -16 -12 -17 4 -4 9 7 17 15 17 17 0 8 -8 3 -21 -13z"/>
<path d="M3795 5935 c-5 -2 -37 -6 -69 -10 -49 -6 -65 -13 -88 -37 -42 -46
-52 -94 -28 -143 24 -49 71 -82 133 -94 l47 -8 0 56 c0 32 5 84 10 117 23 135
24 129 -5 119z"/>
<path d="M6126 5242 c9 -5 8 -11 -2 -20 -8 -7 -14 -10 -14 -7 0 3 -11 -6 -24
-22 l-24 -28 43 -16 c42 -16 177 -115 243 -178 19 -19 32 -41 32 -56 0 -31 45
-45 148 -45 87 0 127 15 169 63 83 95 33 228 -97 256 -28 6 -64 11 -80 11 -15
0 -110 11 -210 25 -202 28 -199 28 -184 17z"/>
<path d="M3800 5199 c-14 -4 -50 -13 -81 -19 -104 -20 -169 -100 -150 -183 11
-48 32 -71 85 -97 48 -23 167 -27 246 -9 38 9 46 8 57 -7 25 -34 13 -1 -31 85
-24 47 -53 118 -66 156 -12 39 -25 73 -29 76 -3 4 -17 3 -31 -2z"/>
<path d="M4073 4671 c-33 -52 -198 -114 -367 -136 -145 -19 -179 -33 -206 -89
-45 -93 -11 -179 91 -230 107 -53 263 -29 613 93 125 44 235 77 244 74 9 -3
-12 14 -47 37 -102 66 -151 105 -236 190 -73 73 -81 78 -92 61z"/>
<path d="M6165 4607 c-52 -54 -123 -111 -200 -163 l-120 -79 75 0 c64 0 87 -5
160 -37 125 -54 366 -113 510 -124 125 -10 197 22 242 109 24 49 20 100 -12
152 -30 48 -78 70 -185 85 -112 15 -258 62 -332 106 -30 19 -56 34 -57 34 0 0
-37 -38 -81 -83z"/>
<path d="M5457 4220 c-95 -29 -364 -36 -520 -14 -27 4 -47 3 -45 -2 7 -26 -22
-60 -100 -119 -107 -81 -263 -159 -447 -224 -77 -27 -178 -64 -225 -81 -167
-62 -196 -71 -285 -90 -49 -11 -133 -24 -185 -30 -133 -16 -166 -26 -210 -66
-50 -46 -59 -86 -32 -147 36 -82 144 -137 270 -137 102 0 290 35 427 80 66 21
192 57 280 80 88 23 180 48 205 56 60 19 159 87 240 164 106 100 127 115 154
102 l23 -10 6 -378 c4 -207 7 -496 7 -641 l0 -263 145 0 145 0 0 663 c0 364 3
672 6 685 4 12 13 22 22 22 8 0 61 -44 116 -98 167 -161 251 -208 575 -317
286 -97 419 -127 588 -133 162 -5 214 8 281 75 l44 45 -4 64 c-3 54 -8 68 -33
94 -35 37 -67 46 -227 65 -136 17 -332 60 -478 107 -112 36 -436 194 -507 248
-27 20 -81 54 -119 75 -102 57 -142 85 -121 85 10 0 15 5 12 10 -3 6 1 10 10
10 9 0 14 4 10 9 -3 5 3 12 12 14 12 3 13 5 3 5 -8 0 -28 -4 -43 -8z"/>
<path d="M3220 3236 c0 -2 8 -10 18 -17 15 -13 16 -12 3 4 -13 16 -21 21 -21
13z"/>
<path d="M3300 3176 c0 -2 8 -10 18 -17 15 -13 16 -12 3 4 -13 16 -21 21 -21
13z"/>
</g>
</svg>
