<?xml version="1.0" encoding="UTF-8"?>
<svg version="1.1" xmlns="http://www.w3.org/2000/svg" width="1024" height="1024">
<path d="M0 0 C337.92 0 675.84 0 1024 0 C1024 337.92 1024 675.84 1024 1024 C686.08 1024 348.16 1024 0 1024 C0 686.08 0 348.16 0 0 Z " fill="#DCDADD" transform="translate(0,0)"/>
<path d="M0 0 C0.98621338 0.48637939 1.97242676 0.97275879 2.98852539 1.47387695 C12.43545911 6.16361289 21.77456427 11.06630587 31.0625 16.0625 C31.59141846 15.66490479 32.12033691 15.26730957 32.6652832 14.85766602 C34.7962308 13.25732364 36.92924335 11.65976251 39.0625 10.0625 C39.81917969 9.49402344 40.57585937 8.92554687 41.35546875 8.33984375 C55.64049533 -1.76276268 72.14985844 -3.91859048 89.20166016 -1.65332031 C99.5041643 0.3761669 108.1114832 6.36002193 115.0625 14.0625 C115.60390625 14.61164063 116.1453125 15.16078125 116.703125 15.7265625 C130.15450006 29.93823267 132.31916242 48.3546611 132.0625 67.0625 C132.67125977 67.23120605 133.28001953 67.39991211 133.90722656 67.57373047 C140.10363488 69.35279132 145.92442888 71.5765259 151.8125 74.1875 C153.66861283 74.9963034 155.5254055 75.80354809 157.3828125 76.609375 C158.32543945 77.01865234 159.26806641 77.42792969 160.23925781 77.84960938 C164.70015889 79.76605321 169.19131079 81.60570397 173.6875 83.4375 C174.57195801 83.79948486 175.45641602 84.16146973 176.36767578 84.53442383 C181.67030084 86.69932591 186.98639777 88.82709512 192.3125 90.93359375 C193.53759277 91.42230957 194.76268555 91.91102539 196.02490234 92.41455078 C198.42286288 93.37072995 200.82413593 94.31865315 203.22900391 95.25732422 C204.32132324 95.69447754 205.41364258 96.13163086 206.5390625 96.58203125 C207.50924316 96.96464111 208.47942383 97.34725098 209.47900391 97.74145508 C212.24820705 99.15745945 213.95698278 100.80043096 216.0625 103.0625 C216.3925 103.0625 216.7225 103.0625 217.0625 103.0625 C222.79122539 103.59701335 227.75431231 104.70618376 233.125 106.75 C234.17107422 107.14276123 234.17107422 107.14276123 235.23828125 107.54345703 C240.42967171 109.59147033 244.17992371 111.98579489 248.0625 116.0625 C242.39201647 124.31466709 235.59530384 131.58420104 227.5 137.5 C223.17439915 140.74607481 220.17124554 144.5212049 216.8515625 148.76171875 C212.71838223 153.82620857 207.93462351 158.30957826 203.265625 162.87255859 C199.20975913 166.85078681 195.37431809 170.92224032 191.67041016 175.22973633 C189.41326357 177.80252701 187.01154839 180.17107627 184.5625 182.5625 C181.46998308 185.6042942 178.4712205 188.66922994 175.6875 192 C172.0836263 196.22912408 168.01054705 199.89351277 163.90649414 203.625 C160.13297391 207.05735863 156.48329952 210.57271489 152.94140625 214.24609375 C150.43220031 216.67183338 147.76126186 218.84959119 145.0625 221.0625 C146.36058594 221.20945312 147.65867187 221.35640625 148.99609375 221.5078125 C177.24526885 224.91519809 211.44273554 229.92717689 230.1328125 253.6953125 C238.66465399 266.3638044 241.20068661 278.13834645 241.0625 293.0625 C240.134375 292.94205322 239.20625 292.82160645 238.25 292.69750977 C223.28678333 290.85358444 208.2499536 290.03066262 193.20776367 289.12921143 C190.35233019 288.95722575 187.4971309 288.7815289 184.64193726 288.60561275 C172.95807074 287.8857627 161.27363519 287.18071005 149.58544922 286.53443909 C148.34933144 286.46593459 148.34933144 286.46593459 147.08824158 286.39604616 C145.07966741 286.28474921 143.07108461 286.17360826 141.0625 286.0625 C140.31249059 314.12803294 139.90838195 342.1718657 139.9281745 370.24715614 C139.93079916 375.18523829 139.92833284 380.1233191 139.92678833 385.06140137 C139.9249908 393.36385438 139.92730383 401.66629837 139.93212891 409.96875 C139.93692951 418.32162056 139.93697575 426.67447322 139.93212891 435.02734375 C139.90698244 479.39121949 139.96170114 523.7442388 140.78383827 568.10164642 C140.84656257 571.71930633 140.89367217 575.33692648 140.93951416 578.95483398 C141.00656335 583.89976794 141.16828599 588.83268235 141.37445068 593.77368164 C141.44800281 596.28204584 141.52096066 598.79042755 141.59326172 601.29882812 C141.6584305 602.43616142 141.72359928 603.57349472 141.79074287 604.74529266 C141.95578396 612.40373992 140.23975466 616.32234995 135.08871651 621.99871063 C134.42006506 622.67976112 133.75141361 623.36081161 133.0625 624.0625 C132.054165 625.17021685 131.0471888 626.27917631 130.04296875 627.390625 C129.11399361 628.36650492 128.18299749 629.34046496 127.25 630.3125 C121.05858522 636.88541402 115.55644141 643.90591842 110.0625 651.0625 C107.24253196 654.65478361 104.29173266 657.83326734 101.0625 661.0625 C99.22845722 663.19030721 97.41204399 665.33056364 95.61328125 667.48828125 C95.10152344 668.00777344 94.58976563 668.52726563 94.0625 669.0625 C93.4025 669.0625 92.7425 669.0625 92.0625 669.0625 C91.83949219 669.58457031 91.61648438 670.10664062 91.38671875 670.64453125 C89.57112766 673.95972559 87.23226254 676.81172761 84.875 679.75 C83.88127254 680.9998109 82.88778303 682.24981103 81.89453125 683.5 C81.1687085 684.41072266 81.1687085 684.41072266 80.42822266 685.33984375 C78.08371943 688.29708628 75.79258519 691.29541362 73.5 694.29296875 C72.11131428 696.00241068 70.6298084 697.51825622 69.0625 699.0625 C69.710979 699.13243164 70.35945801 699.20236328 71.02758789 699.27441406 C101.15176308 702.59220724 131.37049781 710.68097818 154.0625 732.0625 C154.57329102 732.52849609 155.08408203 732.99449219 155.61035156 733.47460938 C168.92561153 745.67697565 180.91725044 760.68451097 183.0625 779.0625 C-0.61357027 780.16219345 -0.61357027 780.16219345 -89.65628433 780.28710938 C-91.44657644 780.28962631 -93.23686855 780.29214906 -95.02716064 780.29467773 C-95.9056757 780.29591078 -96.78419075 780.29714382 -97.68932748 780.29841423 C-103.85872846 780.30782764 -110.02807646 780.32516673 -116.19744873 780.34594727 C-123.67157328 780.37101086 -131.14562459 780.38563455 -138.61979288 780.38623834 C-142.3968793 780.38678195 -146.1737995 780.39192273 -149.95084572 780.4101181 C-154.01901366 780.42951713 -158.08682037 780.42541873 -162.1550293 780.41894531 C-163.33000914 780.42816261 -164.50498898 780.43737991 -165.71557426 780.44687653 C-173.87118925 780.40525571 -181.90795239 779.71865779 -188.0625 773.8125 C-188.7121875 773.19117188 -189.361875 772.56984375 -190.03125 771.9296875 C-190.6603125 771.31351563 -191.289375 770.69734375 -191.9375 770.0625 C-192.5459375 769.54945313 -193.154375 769.03640625 -193.78125 768.5078125 C-205.13606904 758.49764308 -207.49287644 741.53449372 -211.04199219 727.56494141 C-211.9162604 724.14557071 -212.81674728 720.73428573 -213.7265625 717.32421875 C-218.35960861 699.88104159 -222.5788211 682.33072768 -225.99609375 664.60546875 C-227.75442183 655.75341079 -231.20969647 648.98136548 -236.9375 642.0625 C-242.09598145 635.73492346 -247.00125652 629.28221058 -251.8125 622.6875 C-256.49613553 616.27616192 -261.30884048 610.10404699 -266.4609375 604.0625 C-269.32999612 600.58704729 -272.01074374 596.99916469 -274.6875 593.375 C-278.91222103 587.65759428 -283.30907167 582.135712 -287.875 576.6875 C-293.32473637 570.16899643 -298.39072858 563.4529698 -303.31079102 556.52758789 C-306.54531196 551.97498598 -309.8649454 547.51803337 -313.3125 543.125 C-316.78393401 538.6482387 -319.94339156 534.11255384 -322.921875 529.296875 C-325.55343097 525.07414566 -328.27901907 520.91547213 -331 516.75 C-335.75997158 509.44888695 -340.45946523 502.11177171 -345.125 494.75 C-351.23158457 485.12183708 -357.47019905 475.59504127 -363.90625 466.18359375 C-374.36529591 450.77364701 -383.44455189 434.51573977 -392.48046875 418.24609375 C-395.17732508 413.39868476 -397.94006861 408.59415035 -400.73193359 403.80102539 C-409.46341326 388.76878193 -416.75628009 373.30820929 -422.9375 357.0625 C-423.24010742 356.27117676 -423.54271484 355.47985352 -423.85449219 354.66455078 C-425.21079018 351.11725798 -426.56575129 347.56956399 -427.90649414 344.01635742 C-429.4645582 339.89102451 -431.03775315 335.77850201 -432.72265625 331.703125 C-440.72990138 312.21285014 -445.62270486 291.64427578 -450.75 271.25 C-450.93890808 270.50099426 -451.12781616 269.75198853 -451.32244873 268.98028564 C-458.49041863 240.45817985 -458.49041863 240.45817985 -457.9375 234.0625 C-456.13087585 231.41278458 -454.82508942 229.50629471 -451.9375 228.0625 C-449.94921875 227.82421875 -449.94921875 227.82421875 -447.625 227.75 C-446.48611328 227.69392578 -446.48611328 227.69392578 -445.32421875 227.63671875 C-441.82445737 228.26106243 -440.46457977 229.53542023 -437.9375 232.0625 C-435.81646987 235.10493989 -433.97046762 238.28487264 -432.125 241.5 C-431.05926194 243.31940198 -429.99285598 245.1384129 -428.92578125 246.95703125 C-428.41225098 247.8382666 -427.8987207 248.71950195 -427.36962891 249.62744141 C-425.57185686 252.68420553 -423.69992085 255.68530919 -421.8125 258.6875 C-418.71442217 263.68027006 -415.87497259 268.78157042 -413.0625 273.9375 C-409.97962736 279.57424902 -406.75764819 285.01321067 -403.125 290.3125 C-397.20991492 298.9510691 -392.00829679 307.99009218 -386.72314453 317.02246094 C-379.04632255 330.09216115 -371.31137556 343.13151526 -363.03515625 355.83203125 C-360.67332044 359.46934636 -358.36069437 363.13476438 -356.0625 366.8125 C-355.64685791 367.47725342 -355.23121582 368.14200684 -354.80297852 368.8269043 C-352.60550536 372.35239541 -350.43038148 375.89013374 -348.28125 379.4453125 C-342.23103066 389.449638 -335.92376608 399.23479455 -329.38085938 408.92382812 C-327.11870179 412.27573957 -324.87020658 415.63671762 -322.625 419 C-322.21386963 419.61552734 -321.80273926 420.23105469 -321.37915039 420.86523438 C-318.4374383 425.28168183 -315.57724269 429.74548728 -312.74560547 434.23339844 C-310.95606866 437.03344603 -309.12574257 439.80100219 -307.27734375 442.5625 C-304.37526553 446.90529557 -301.48470933 451.25531081 -298.60546875 455.61328125 C-291.23166478 466.7569531 -283.85525269 477.85969543 -275.80859375 488.53515625 C-273.9375 491.0625 -273.9375 491.0625 -272.9375 493.0625 C-273.5066906 486.54624897 -274.70153483 480.59157856 -276.5 474.3125 C-276.76176025 473.37494873 -277.02352051 472.43739746 -277.29321289 471.47143555 C-277.86495342 469.42404251 -278.43952927 467.37743961 -279.01660156 465.33154297 C-283.44010443 449.62881141 -287.76847138 433.89723382 -291.9375 418.125 C-292.39177368 416.4375769 -292.39177368 416.4375769 -292.85522461 414.71606445 C-293.12987549 413.66636475 -293.40452637 412.61666504 -293.6875 411.53515625 C-293.92984375 410.62000244 -294.1721875 409.70484863 -294.421875 408.76196289 C-295.47038354 403.27268309 -295.0543343 399.54802637 -292.59375 394.53515625 C-291.84351563 392.9879187 -291.84351563 392.9879187 -291.078125 391.40942383 C-290.53671875 390.32556396 -289.9953125 389.2417041 -289.4375 388.125 C-288.88578125 387.00053467 -288.3340625 385.87606934 -287.765625 384.7175293 C-284.00379796 377.0911501 -280.14410171 369.52838663 -276.04492188 362.07714844 C-274.75739968 359.73485718 -273.48007071 357.38713619 -272.203125 355.0390625 C-268.12307314 347.54196721 -264.03082843 340.05160776 -259.921875 332.5703125 C-249.61797466 313.78849118 -239.7597583 294.80216493 -230.20703125 275.62890625 C-229.63323542 274.47741813 -229.63323542 274.47741813 -229.04784775 273.30266762 C-225.47308092 266.12680241 -221.9034334 258.94839614 -218.33813477 251.76782227 C-216.3631849 247.79080097 -214.38411468 243.81585101 -212.40268517 239.84205437 C-211.66332914 238.357248 -210.92547672 236.87169169 -210.18934059 235.38528633 C-205.68943689 226.29965847 -200.96348503 217.39351394 -195.92803955 208.59263611 C-193.03808066 203.52008015 -190.44803732 198.30113635 -187.875 193.0625 C-186.84505438 190.98437386 -185.81510646 188.90624886 -184.78515625 186.828125 C-184.2967627 185.83876953 -183.80836914 184.84941406 -183.30517578 183.83007812 C-181.48710501 180.15109736 -179.65131927 176.48114097 -177.8125 172.8125 C-175.72728833 168.64802051 -173.64795179 164.48074462 -171.578125 160.30859375 C-167.17055978 151.4372554 -162.69503344 142.61120984 -158.04833984 133.86254883 C-155.38585968 128.84171022 -152.77040944 123.79847861 -150.18359375 118.73828125 C-149.51725137 117.43802859 -148.85082838 116.13781723 -148.18432617 114.83764648 C-147.19601035 112.90955263 -146.2094195 110.98069211 -145.22891235 109.0486145 C-141.85335763 102.39858403 -138.42159176 95.92845989 -134.09277344 89.83642578 C-132.76145016 87.95557322 -132.76145016 87.95557322 -131.9375 85.0625 C-132.9275 84.7325 -133.9175 84.4025 -134.9375 84.0625 C-145.0036152 70.54455474 -149.84567676 55.64613116 -147.4765625 38.78125 C-144.33903851 23.27819031 -135.81083159 11.83266243 -122.9453125 2.85546875 C-109.90647311 -4.91703421 -95.39094822 -6.81824461 -80.5625 -3.9375 C-70.45605109 -1.34578488 -60.32502116 3.85288233 -51.9375 10.0625 C-51.9375 10.7225 -51.9375 11.3825 -51.9375 12.0625 C-47.71280937 11.5212585 -45.39093229 10.17547488 -42.0625 7.5625 C-37.58335752 4.23185559 -33.07159421 1.01421431 -28.375 -2 C-27.7867041 -2.40605469 -27.1984082 -2.81210938 -26.59228516 -3.23046875 C-17.55799544 -8.88895626 -8.6421212 -4.3927009 0 0 Z " fill="#55B6DF" transform="translate(564.9375,117.9375)"/>
<path d="M0 0 C0.75925781 -0.03738281 1.51851562 -0.07476562 2.30078125 -0.11328125 C5.80054263 0.51106243 7.16042023 1.78542023 9.6875 4.3125 C11.80853013 7.35493989 13.65453238 10.53487264 15.5 13.75 C16.56573806 15.56940198 17.63214402 17.3884129 18.69921875 19.20703125 C19.21274902 20.0882666 19.7262793 20.96950195 20.25537109 21.87744141 C22.05314314 24.93420553 23.92507915 27.93530919 25.8125 30.9375 C28.91057783 35.93027006 31.75002741 41.03157042 34.5625 46.1875 C37.64537264 51.82424902 40.86735181 57.26321067 44.5 62.5625 C50.41508508 71.2010691 55.61670321 80.24009218 60.90185547 89.27246094 C68.57867745 102.34216115 76.31362444 115.38151526 84.58984375 128.08203125 C86.95167956 131.71934636 89.26430563 135.38476438 91.5625 139.0625 C92.18596313 140.05963013 92.18596313 140.05963013 92.82202148 141.0769043 C95.01949464 144.60239541 97.19461852 148.14013374 99.34375 151.6953125 C105.39396934 161.699638 111.70123392 171.48479455 118.24414062 181.17382812 C120.50629821 184.52573957 122.75479342 187.88671762 125 191.25 C125.41113037 191.86552734 125.82226074 192.48105469 126.24584961 193.11523438 C129.1875617 197.53168183 132.04775731 201.99548728 134.87939453 206.48339844 C136.66893134 209.28344603 138.49925743 212.05100219 140.34765625 214.8125 C143.24973447 219.15529557 146.14029067 223.50531081 149.01953125 227.86328125 C150.51166274 230.11808943 152.00530655 232.37188936 153.5 234.625 C153.89013275 235.21311462 154.2802655 235.80122925 154.68222046 236.40716553 C159.30472861 243.36482324 163.99097299 250.2496573 169 256.9375 C178.545674 269.81915066 182.11029723 282.50580087 185 298.1875 C186.5897315 306.49626245 188.92380568 314.56963203 191.21313477 322.70898438 C194.97487146 336.14036513 198.40000571 349.65560498 201.83007812 363.17480469 C202.27728846 364.93686299 202.72455302 366.69890753 203.171875 368.4609375 C203.38740021 369.31039948 203.60292542 370.15986145 203.82498169 371.0350647 C205.44976593 377.42165745 207.1378273 383.78954144 208.84765625 390.15380859 C210.06319974 394.7255242 211.1870085 399.31663891 212.28515625 403.91796875 C212.9738685 406.73542796 213.707959 409.35951505 214.8671875 412.0234375 C215.79368174 414.60879762 215.62706324 415.77567926 214.6875 418.3125 C209.76868067 413.80870605 205.82791377 408.94957605 201.97265625 403.51953125 C195.03820986 393.78759879 187.76345104 384.31770092 180.25439453 375.02392578 C176.52113967 370.39149915 172.90308835 365.68106435 169.3125 360.9375 C164.83098505 355.01865818 160.19875602 349.25829211 155.4375 343.5625 C150.55184061 337.70743204 146.08609059 331.76541758 141.8359375 325.4296875 C139.52721104 322.07993529 137.0736196 318.88582384 134.5625 315.6875 C131.00214321 311.12392275 127.7480151 306.46992161 124.703125 301.546875 C122.07156903 297.32414566 119.34598093 293.16547213 116.625 289 C111.86502842 281.69888695 107.16553477 274.36177171 102.5 267 C96.39341543 257.37183708 90.15480095 247.84504127 83.71875 238.43359375 C73.25970409 223.02364701 64.18044811 206.76573977 55.14453125 190.49609375 C52.44767492 185.64868476 49.68493139 180.84415035 46.89306641 176.05102539 C38.16158674 161.01878193 30.86871991 145.55820929 24.6875 129.3125 C24.38489258 128.52117676 24.08228516 127.72985352 23.77050781 126.91455078 C22.41420982 123.36725798 21.05924871 119.81956399 19.71850586 116.26635742 C18.1604418 112.14102451 16.58724685 108.02850201 14.90234375 103.953125 C6.89509862 84.46285014 2.00229514 63.89427578 -3.125 43.5 C-3.31390808 42.75099426 -3.50281616 42.00198853 -3.69744873 41.23028564 C-10.86541863 12.70817985 -10.86541863 12.70817985 -10.3125 6.3125 C-7.25144397 1.82295115 -5.38297776 0.17189341 0 0 Z " fill="#4790B7" transform="translate(117.3125,345.6875)"/>
<path d="M0 0 C1.4950353 0.10092075 2.98784526 0.23975519 4.4765625 0.41015625 C5.67466553 0.517229 5.67466553 0.517229 6.89697266 0.62646484 C40.91397564 3.9625266 72.72445825 19.47326629 95.1015625 45.47265625 C103.21751241 55.74416563 109.46295334 66.36378293 111.1015625 79.47265625 C46.4215625 79.47265625 -18.2584375 79.47265625 -84.8984375 79.47265625 C-81.15030517 75.72452392 -77.70097611 72.78427135 -73.3984375 69.84765625 C-58.70369264 59.5427535 -45.43928439 47.3738631 -33.859375 33.6484375 C-31.04198274 30.52236681 -28.02331813 27.61005854 -25.0234375 24.66015625 C-18.26268601 17.99123614 -11.98715179 11.0704436 -6.67578125 3.1640625 C-3.8984375 0.47265625 -3.8984375 0.47265625 0 0 Z " fill="#372827" transform="translate(636.8984375,817.52734375)"/>
<path d="M0 0 C9.59911126 7.01533743 16.40776974 18.03270963 18.39453125 29.75 C19.32836417 40.17086821 19.9912927 51.55657366 14.39453125 60.75 C13.99363281 61.48734375 13.59273437 62.2246875 13.1796875 62.984375 C6.8601836 73.60846851 -3.20473586 81.88890738 -15.03125 85.48828125 C-28.44363494 88.63281169 -42.7896782 87.04798828 -54.60546875 79.75 C-66.37001465 72.2003111 -72.78021788 62.13925212 -77.98046875 49.375 C-80.33493203 35.719113 -77.83153257 23.74990713 -70.3515625 12.12890625 C-53.80345631 -10.41650017 -23.41072371 -14.03941452 0 0 Z " fill="#F6FCFE" transform="translate(646.60546875,202.25)"/>
<path d="M0 0 C15.86830958 7.20799045 26.30892611 17.88605364 32.73046875 34.1953125 C35.78686282 42.52449238 35.93762142 49.38532433 35.85546875 58.2578125 C34.92734375 58.13736572 33.99921875 58.01691895 33.04296875 57.89282227 C18.07975208 56.04889694 3.04292235 55.22597512 -11.99926758 54.32452393 C-14.85527589 54.15250362 -17.71104994 53.97677109 -20.56681824 53.80081749 C-36.33864971 52.81626407 -36.33864971 52.81626407 -52.1171875 51.94970703 C-52.97393066 51.90600479 -53.83067383 51.86230255 -54.71337891 51.817276 C-56.23758076 51.74130745 -57.76199303 51.66939512 -59.28662109 51.6025238 C-64.03487425 51.3674695 -64.03487425 51.3674695 -65.14453125 50.2578125 C-65.23839506 48.3860031 -65.26196929 46.5106319 -65.25805664 44.63647461 C-65.25798111 43.43530502 -65.25790558 42.23413544 -65.25782776 40.99656677 C-65.25266647 39.6893013 -65.24750519 38.38203583 -65.2421875 37.03515625 C-65.24032323 35.69137118 -65.23889937 34.34758543 -65.23789978 33.00379944 C-65.23407527 29.46098973 -65.22424557 25.9182208 -65.2131958 22.37542725 C-65.20298024 18.76266023 -65.19840185 15.14988666 -65.19335938 11.53710938 C-65.18262323 4.4439937 -65.16554761 -2.64909424 -65.14453125 -9.7421875 C-46.41225814 -17.68578312 -17.7741962 -7.6488167 0 0 Z " fill="#382E32" transform="translate(770.14453125,352.7421875)"/>
<path d="M0 0 C336.6 0 673.2 0 1020 0 C1020 337.92 1020 675.84 1020 1024 C682.08 1024 344.16 1024 -4 1024 C-4 687.4 -4 350.8 -4 4 C-3.34 4 -2.68 4 -2 4 C-2.33 339.94 -2.66 675.88 -3 1022 C334.26 1022 671.52 1022 1019 1022 C1018.7834375 772.334375 1018.7834375 772.334375 1018.5625 517.625 C1018.51939697 464.98693848 1018.47629395 412.34887695 1018.43188477 358.11572266 C1018.3886519 311.10697875 1018.3886519 311.10697875 1018.34410095 264.09823608 C1018.32357114 242.39714867 1018.30602299 220.69606112 1018.29021824 198.99496997 C1018.2730763 175.48249989 1018.25232777 151.97003611 1018.22762626 128.45757254 C1018.21346998 114.87883703 1018.20201227 101.30010577 1018.19458313 87.72136487 C1018.18941411 78.76371989 1018.18067846 69.80608307 1018.16899385 60.84844423 C1018.16243512 55.74129093 1018.15746789 50.63414937 1018.15684116 45.52699161 C1018.1562384 40.87233589 1018.15107721 36.21770835 1018.1422801 31.56306111 C1018.13991573 29.88929406 1018.13921219 28.21552364 1018.1403733 26.54175532 C1018.14170881 24.26718188 1018.13689319 21.99269793 1018.13061053 19.71813452 C1018.12951866 18.45937088 1018.1284268 17.20060725 1018.12730185 15.90369926 C1017.97575061 11.25639475 1017.4626699 6.62669899 1017 2 C681.39 1.67 345.78 1.34 0 1 C0 0.67 0 0.34 0 0 Z " fill="#F6F6F5" transform="translate(4,0)"/>
<path d="M0 0 C3.45299108 2.62449564 6.58840572 5.33613877 9.5 8.5625 C10.04140625 9.11164063 10.5828125 9.66078125 11.140625 10.2265625 C24.99079862 24.85957202 26.08258057 43.49731807 27.5 62.5625 C23.29240997 61.26944334 19.58934302 59.66829926 15.73828125 57.54296875 C14.07841187 56.63659668 14.07841187 56.63659668 12.38500977 55.71191406 C11.80276642 55.39194458 11.22052307 55.0719751 10.62063599 54.74230957 C-1.04136232 48.34217561 -12.84926618 42.36509377 -24.87963867 36.68823242 C-25.93900635 36.18783447 -26.99837402 35.68743652 -28.08984375 35.171875 C-29.47997681 34.5217041 -29.47997681 34.5217041 -30.89819336 33.85839844 C-33.52302928 32.55102966 -35.99017271 31.07654484 -38.5 29.5625 C-39.87290441 28.87933609 -41.25709096 28.2183088 -42.65234375 27.58203125 C-43.42280029 27.22616943 -44.19325684 26.87030762 -44.98706055 26.50366211 C-45.79570557 26.13120361 -46.60435059 25.75874512 -47.4375 25.375 C-55.72672459 21.51192819 -63.65392398 17.25990603 -71.5 12.5625 C-71.5 11.2425 -71.5 9.9225 -71.5 8.5625 C-53.26900373 -9.22306181 -21.63807193 -14.4886505 0 0 Z " fill="#3A85AC" transform="translate(670.5,123.4375)"/>
<path d="M0 0 C4.24175141 1.66343193 7.63884708 3.9269459 11 7 C12.84768676 12.54306028 13.13875975 18.98063286 11.05859375 24.49609375 C9.29044548 27.51691133 7.67045727 29.55302849 4.75 31.5 C-1.6905689 32.67101253 -7.88595367 32.51754849 -14 30 C-18.2122872 25.7877128 -19.81528538 21.93950354 -20.375 16.0625 C-20.22481483 11.06884312 -18.07988018 7.96315221 -14.46875 4.5546875 C-9.64453503 0.41626779 -6.32764408 -0.66233284 0 0 Z " fill="#232A37" transform="translate(620,224)"/>
<path d="M0 0 C5.72634621 0.54384294 10.69263885 1.6439983 16.0625 3.6875 C16.75988281 3.94934082 17.45726562 4.21118164 18.17578125 4.48095703 C23.36717171 6.52897033 27.11742371 8.92329489 31 13 C25.76761032 20.61461587 19.05206582 29.26253959 11 34 C8.91015625 33.91015625 8.91015625 33.91015625 7 33 C1.17045394 26.37776778 -2.1217354 16.65788571 -2.1875 7.9375 C-2.20167969 7.08027344 -2.21585938 6.22304687 -2.23046875 5.33984375 C-2 3 -2 3 0 0 Z " fill="#2C262C" transform="translate(782,221)"/>
<path d="M0 0 C2.51383642 2.50039344 5.0106982 5.01115597 7.46484375 7.5703125 C8.28082031 8.41335938 9.09679687 9.25640625 9.9375 10.125 C10.75089844 10.97320313 11.56429688 11.82140625 12.40234375 12.6953125 C18.62503887 18.2161999 24.76974829 19.12641947 32.8273468 19.12025452 C33.83830887 19.12153615 33.83830887 19.12153615 34.86969441 19.12284368 C37.12059508 19.12448646 39.37142068 19.11899685 41.62231445 19.11352539 C43.23879494 19.11324323 44.85527556 19.11340181 46.47175598 19.1139679 C50.85562885 19.11425476 55.23947434 19.10837596 59.62334085 19.10139394 C64.20642727 19.09514192 68.78951433 19.09455514 73.37260437 19.09336853 C82.04935589 19.09026067 90.72609482 19.08205462 99.40284079 19.07201904 C109.28184808 19.06084099 119.16085596 19.05534318 129.039868 19.05032361 C149.35991903 19.03987156 169.67995872 19.02228266 190 19 C189.67 19.66 189.34 20.32 189 21 C188.1712587 21.01030746 187.3425174 21.02061493 186.48866272 21.03123474 C178.50803539 21.13102282 170.52745119 21.23371926 162.54689884 21.33933926 C158.44835674 21.39348873 154.34980786 21.44667974 150.2512207 21.49731445 C145.49165551 21.55628684 140.7321416 21.61849682 135.97265625 21.68359375 C135.18307589 21.69432859 134.39349552 21.70506344 133.57998848 21.71612358 C124.98578841 21.83635153 116.3951704 21.99770655 107.80444336 22.27368164 C107.06428765 22.29740813 106.32413195 22.32113462 105.56154728 22.3455801 C102.09567483 22.45874204 98.63042536 22.58006208 95.16517639 22.71141052 C83.69890472 23.11447208 72.32541885 22.72260952 60.8671875 22.2578125 C52.26518082 21.93630348 43.6696442 21.91422147 35.0625 21.9375 C33.9923616 21.94029465 33.9923616 21.94029465 32.90060425 21.94314575 C28.93368647 21.9550785 24.96685091 21.97425923 21 22 C21 21.34 21 20.68 21 20 C20.0925 19.7525 19.185 19.505 18.25 19.25 C14.83404543 17.93617132 13.45841552 16.62230988 11 14 C10.01 13.566875 10.01 13.566875 9 13.125 C6.01877218 11.44805935 4.8049113 8.85292431 3 6 C2.4225 5.443125 1.845 4.88625 1.25 4.3125 C0 3 0 3 0 0 Z " fill="#CEF5FA" transform="translate(364,878)"/>
<path d="M0 0 C0.66 0 1.32 0 2 0 C2.66 1.98 3.32 3.96 4 6 C4.66 6 5.32 6 6 6 C6 7.32 6 8.64 6 10 C6.66 10 7.32 10 8 10 C8.99 12.97 9.98 15.94 11 19 C11.66 19 12.32 19 13 19 C13.98484108 20.74681293 14.96266187 22.4975851 15.9375 24.25 C16.48277344 25.22453125 17.02804688 26.1990625 17.58984375 27.203125 C18.76610835 29.53610409 19.52101691 31.45350762 20 34 C20.66 34 21.32 34 22 34 C22.33 35.98 22.66 37.96 23 40 C23.66 40 24.32 40 25 40 C25.60416667 41.20833333 26.20833333 42.41666667 26.8125 43.625 C27.36164063 44.71748047 27.36164063 44.71748047 27.921875 45.83203125 C28.82481514 47.6477261 29.69739467 49.4784767 30.5625 51.3125 C31.89360845 53.80109406 33.04606788 55.04945371 35 57 C35.78068146 58.12301859 36.52472495 59.2722052 37.234375 60.44140625 C37.84333618 61.43370239 37.84333618 61.43370239 38.46459961 62.44604492 C38.88878174 63.1444751 39.31296387 63.84290527 39.75 64.5625 C43.17676428 70.13373525 46.69325224 75.58304917 50.52734375 80.88671875 C55 87.30503979 55 87.30503979 55 90 C55.66 90 56.32 90 57 90 C57.81837442 91.41328129 58.62946219 92.83078346 59.4375 94.25 C59.88996094 95.03890625 60.34242188 95.8278125 60.80859375 96.640625 C61.89311602 98.78833468 62.53148716 100.65205061 63 103 C63.66 103 64.32 103 65 103 C66.55078125 105.08984375 66.55078125 105.08984375 68.3125 107.9375 C68.93640625 108.94296875 69.5603125 109.9484375 70.203125 110.984375 C72.13833672 114.23216511 73.94277894 117.53303635 75.73046875 120.86328125 C77.53046531 123.89281392 79.70463403 126.57254221 81.9609375 129.2734375 C82.30382812 129.84320312 82.64671875 130.41296875 83 131 C82.67 131.99 82.34 132.98 82 134 C76.58420071 126.95480551 71.86767822 119.64527797 67.28222656 112.04614258 C58.66030303 97.77736213 49.42429387 83.86553461 40.01953125 70.1015625 C29.47363395 54.57626215 20.33354897 38.17978186 11.2265625 21.78515625 C7.97761341 15.93914153 4.64132544 10.1478666 1.2578125 4.37890625 C0 2 0 2 0 0 Z " fill="#5B87A4" transform="translate(161,514)"/>
<path d="M0 0 C1.051875 0.12375 2.10375 0.2475 3.1875 0.375 C0.1875 2.375 0.1875 2.375 -1.9375 3.25 C-2.55625 3.62125 -3.175 3.9925 -3.8125 4.375 C-3.956875 4.99375 -4.10125 5.6125 -4.25 6.25 C-5.08213769 9.39363129 -7.29948108 10.40048513 -9.8125 12.375 C-10.3075 13.2 -10.8025 14.025 -11.3125 14.875 C-13.077475 17.816625 -15.00592038 19.43198334 -17.8125 21.375 C-18.4725 21.375 -19.1325 21.375 -19.8125 21.375 C-20.18375 22.2103125 -20.18375 22.2103125 -20.5625 23.0625 C-22.69163948 27.00140804 -24.48332087 29.93194029 -28.8125 31.375 C-29.328125 32.385625 -29.84375 33.39625 -30.375 34.4375 C-32.73095962 38.91107314 -36.33403386 41.37147182 -40.375 44.28515625 C-43.180722 46.69070316 -44.78182997 49.29775388 -46.8125 52.375 C-48.59058473 54.16092922 -50.42620682 55.89126497 -52.3125 57.5625 C-53.2509375 58.40167969 -54.189375 59.24085938 -55.15625 60.10546875 C-61.32368761 65.375 -61.32368761 65.375 -64.8125 65.375 C-65.1425 66.365 -65.4725 67.355 -65.8125 68.375 C-67.45806566 69.40935556 -69.1295608 70.40263513 -70.8125 71.375 C-72.98460401 72.93524373 -74.84104447 74.54108787 -76.8125 76.375 C-76.8125 77.365 -76.8125 78.355 -76.8125 79.375 C-79.4525 79.375 -82.0925 79.375 -84.8125 79.375 C-81.27660046 75.64119563 -77.56250955 72.6507624 -73.3125 69.75 C-58.61775514 59.44509725 -45.35334689 47.27620685 -33.7734375 33.55078125 C-30.95604524 30.42471056 -27.93738063 27.51240229 -24.9375 24.5625 C-18.54781408 18.25960528 -12.56829878 11.73299549 -7.40234375 4.36328125 C-5.00239232 1.05273732 -4.19846495 0.41296377 0 0 Z " fill="#2D373C" transform="translate(636.8125,817.625)"/>
<path d="M0 0 C1.08410156 0.51949219 2.16820312 1.03898437 3.28515625 1.57421875 C6 3 6 3 7 5 C9.11327425 5.90725434 9.11327425 5.90725434 11.5625 6.625 C12.38878906 6.88539062 13.21507812 7.14578125 14.06640625 7.4140625 C14.70449219 7.60742188 15.34257813 7.80078125 16 8 C16 8.66 16 9.32 16 10 C16.60328125 10.19335938 17.2065625 10.38671875 17.828125 10.5859375 C18.62734375 10.84632812 19.4265625 11.10671875 20.25 11.375 C21.43335938 11.75785156 21.43335938 11.75785156 22.640625 12.1484375 C24.86627958 12.95173667 26.90931672 13.89711662 29 15 C29.433125 14.360625 29.86625 13.72125 30.3125 13.0625 C32 11 32 11 35 10 C35.33 9.34 35.66 8.68 36 8 C37.33333333 7.33333333 38.66666667 6.66666667 40 6 C40.33 5.34 40.66 4.68 41 4 C43.64860427 3.40644386 46.29197322 3.25790731 49 3 C46.31411591 5.0507088 43.57917298 6.96539606 40.75 8.8125 C36.36949657 11.71104207 32.16412588 14.80031744 28 18 C25.76930149 16.89884897 23.54022496 15.79464532 21.3125 14.6875 C20.60859131 14.33792236 19.90468262 13.98834473 19.17944336 13.62817383 C14.94919499 11.51419333 10.75137702 9.34954798 6.578125 7.125 C5.66248779 6.63813721 4.74685059 6.15127441 3.8034668 5.6496582 C2.01530733 4.69577141 0.23015126 3.73622659 -1.55151367 2.77026367 C-12.20880354 -3.03139259 -12.20880354 -3.03139259 -24 -4 C-26.56052518 -2.75853325 -28.80955129 -1.52119684 -31.1875 0 C-32.16444824 0.60424805 -32.16444824 0.60424805 -33.16113281 1.22070312 C-38.23269177 4.39944385 -43.0707723 7.83586248 -47.828125 11.46875 C-50 13 -50 13 -53 14 C-53.66 13.67 -54.32 13.34 -55 13 C-55 12.34 -55 11.68 -55 11 C-56.32 10.34 -57.64 9.68 -59 9 C-58.01 8.67 -57.02 8.34 -56 8 C-56 8.66 -56 9.32 -56 10 C-55.34 10 -54.68 10 -54 10 C-54 10.66 -54 11.32 -54 12 C-53.34 12 -52.68 12 -52 12 C-51.67 11.01 -51.34 10.02 -51 9 C-50.01 9 -49.02 9 -48 9 C-47.74863281 8.40316406 -47.49726562 7.80632812 -47.23828125 7.19140625 C-45.10817272 3.42171892 -41.50748786 1.41778289 -38 -1 C-36.7625 -1.86625 -36.7625 -1.86625 -35.5 -2.75 C-23.14048261 -8.92975869 -11.46421644 -6.68339426 0 0 Z " fill="#D0EFFB" transform="translate(568,117)"/>
<path d="M0 0 C0.66 0 1.32 0 2 0 C1.30737072 3.49381929 -0.07697998 6.3001264 -1.73510742 9.44238281 C-2.31408279 10.54805603 -2.89305817 11.65372925 -3.48957825 12.79290771 C-3.80239054 13.38635735 -4.11520283 13.97980698 -4.43749428 14.59123993 C-6.15136788 17.84582306 -7.84859783 21.10903673 -9.54443359 24.37304688 C-10.08601026 25.41535021 -10.08601026 25.41535021 -10.63852787 26.47871017 C-14.86848946 34.64271001 -18.96123362 42.87440473 -23.05078125 51.109375 C-23.81754241 52.65120072 -24.58437808 54.1929894 -25.35128784 55.73474121 C-28.47870838 62.02428945 -31.60265301 68.31554753 -34.71948242 74.61035156 C-36.66388541 78.53664365 -38.61402925 82.46003737 -40.56795311 86.38159943 C-41.30260203 87.85893411 -42.03503054 89.33737517 -42.76516151 90.81694794 C-43.77072071 92.85434467 -44.78350624 94.88798728 -45.7980957 96.92089844 C-46.65622612 98.65167633 -46.65622612 98.65167633 -47.5316925 100.41741943 C-49 103 -49 103 -51 104 C-50.47731534 101.23723823 -49.89130413 98.6739124 -49 96 C-48.34 96 -47.68 96 -47 96 C-46.896875 95.278125 -46.79375 94.55625 -46.6875 93.8125 C-46 91 -46 91 -44.5 88.5625 C-42.81233682 85.67940874 -42.51977173 83.26713661 -42 80 C-41.01 79.505 -41.01 79.505 -40 79 C-39.1443611 77.34401859 -38.36408097 75.64868429 -37.625 73.9375 C-35.5466803 69.21348549 -33.34243142 64.59810613 -31 60 C-30.34 60 -29.68 60 -29 60 C-28.76216797 58.93072266 -28.76216797 58.93072266 -28.51953125 57.83984375 C-27.16619444 52.28443353 -25.77403517 48.25458835 -22.19140625 43.81640625 C-20.27072814 40.88815929 -19.64006163 37.63176113 -18.7421875 34.27734375 C-17.76375599 31.2751039 -16.02812313 29.39687279 -14 27 C-12.93548965 24.86239453 -12.00857034 22.68566937 -11.07421875 20.48828125 C-9.90884548 17.78885299 -8.66412946 15.14252636 -7.375 12.5 C-6.97023438 11.6646875 -6.56546875 10.829375 -6.1484375 9.96875 C-5 8 -5 8 -3 7 C-1.94647157 4.69034152 -0.94280904 2.3570226 0 0 Z " fill="#DDEFF6" transform="translate(366,328)"/>
<path d="M0 0 C0.66 0.33 1.32 0.66 2 1 C1.57928223 1.81637939 1.15856445 2.63275879 0.72509766 3.47387695 C-3.27616333 11.23852401 -7.27648544 19.00365392 -11.27580261 26.76930237 C-13.33099032 30.75987182 -15.38651698 34.75026584 -17.44287109 38.74023438 C-19.43429521 42.60425121 -21.42476001 46.4687609 -23.41461182 50.33358765 C-24.16684118 51.79422933 -24.91939292 53.25470504 -25.67230225 54.71499634 C-32.01159894 67.01113511 -38.23297809 79.36212265 -44.3359375 91.77734375 C-44.84253906 92.80408203 -45.34914063 93.83082031 -45.87109375 94.88867188 C-46.90153339 96.97765405 -47.92734787 99.06892226 -48.94921875 101.16210938 C-49.44808594 102.16951172 -49.94695312 103.17691406 -50.4609375 104.21484375 C-50.90228027 105.11323975 -51.34362305 106.01163574 -51.79833984 106.93725586 C-53 109 -53 109 -55 110 C-55 108.02 -55 106.04 -55 104 C-54.360625 103.773125 -53.72125 103.54625 -53.0625 103.3125 C-52.381875 102.879375 -51.70125 102.44625 -51 102 C-50.87238281 101.31292969 -50.74476563 100.62585938 -50.61328125 99.91796875 C-49.77290255 95.919479 -47.98621558 92.61569478 -46.125 89 C-45.59712891 87.95199219 -45.59712891 87.95199219 -45.05859375 86.8828125 C-43.56729834 83.94457247 -42.06414202 81.10168135 -40.3046875 78.3125 C-38.87414876 76.05830808 -38.87414876 76.05830808 -38.49609375 73.4609375 C-37.91195019 70.5632175 -36.80951834 68.99137692 -35.0625 66.625 C-33.09314951 63.81164216 -31.63369997 61.46643438 -30.8125 58.125 C-30 55 -30 55 -28.6171875 53.66015625 C-26.47150908 51.45746705 -25.53600579 49.12325655 -24.3125 46.3125 C-23.87550781 45.31863281 -23.43851562 44.32476562 -22.98828125 43.30078125 C-22.66214844 42.54152344 -22.33601563 41.78226562 -22 41 C-21.34 41 -20.68 41 -20 41 C-19.81824219 40.443125 -19.63648438 39.88625 -19.44921875 39.3125 C-16.04747774 28.9851632 -16.04747774 28.9851632 -14 24 C-13.34 23.67 -12.68 23.34 -12 23 C-11.27306096 21.02111039 -10.60183749 19.02045442 -10 17 C-9.34 17 -8.68 17 -8 17 C-7.71125 15.9275 -7.4225 14.855 -7.125 13.75 C-6.27179891 10.90599636 -5.4363497 8.56491017 -4 6 C-3.34 6 -2.68 6 -2 6 C-1.34 4.02 -0.68 2.04 0 0 Z " fill="#DAE9F1" transform="translate(423,218)"/>
<path d="M0 0 C0.33 0 0.66 0 1 0 C1.7224478 30.84045122 2.14306904 61.68051902 2.23217773 92.52920532 C2.24255687 96.01232744 2.26001308 99.49530478 2.28344727 102.97836304 C2.31077362 107.12108072 2.32315765 111.26358019 2.32407379 115.40638542 C2.32675138 116.94503455 2.33450916 118.48368413 2.3476181 120.02227974 C2.36460998 122.13718009 2.36289733 124.25127059 2.35644531 126.36621094 C2.36009094 127.55631775 2.36373657 128.74642456 2.36749268 129.97259521 C1.9626456 133.30772558 1.10318075 134.47672169 -1 137 C-1 137.99 -1 138.98 -1 140 C-2.609375 141.4296875 -2.609375 141.4296875 -4.75 142.875 C-8.10915981 145.25738284 -10.60333673 147.60472704 -13 151 C-13.66 150.67 -14.32 150.34 -15 150 C-14.41992188 149.3709375 -13.83984375 148.741875 -13.2421875 148.09375 C-12.46101562 147.2378125 -11.67984375 146.381875 -10.875 145.5 C-10.10929688 144.6646875 -9.34359375 143.829375 -8.5546875 142.96875 C-7.71164062 141.9890625 -6.86859375 141.009375 -6 140 C-5.49244864 139.47794228 -4.98489727 138.95588455 -4.46196556 138.4180069 C0.90036446 132.341162 0.82155341 126.82094484 0.68115234 118.97460938 C0.68246658 117.04165009 0.68246658 117.04165009 0.68380737 115.06964111 C0.6855201 111.5573196 0.65039114 108.04624214 0.60836363 104.5342083 C0.57070661 100.85608197 0.56731956 97.17792314 0.56021118 93.49963379 C0.54160594 86.5439309 0.49242853 79.58879778 0.43211424 72.63334513 C0.36491354 64.71077924 0.33202621 56.7881853 0.30194163 48.86540508 C0.23932475 32.57660386 0.13387517 16.28837478 0 0 Z " fill="#CEE1F2" transform="translate(705,600)"/>
<path d="M0 0 C0.66 0 1.32 0 2 0 C2.33 2.64 2.66 5.28 3 8 C-57.72 8 -118.44 8 -181 8 C-181 7.67 -181 7.34 -181 7 C-121.27 6.67 -61.54 6.34 0 6 C0.33 5.34 0.66 4.68 1 4 C0.01 3.505 0.01 3.505 -1 3 C-0.67 2.01 -0.34 1.02 0 0 Z " fill="#201D20" transform="translate(745,889)"/>
<path d="M0 0 C0 3.40578558 -0.39536194 3.86687256 -2.45703125 6.40625 C-2.9876416 7.06278564 -3.51825195 7.71932129 -4.06494141 8.39575195 C-4.64163574 9.09015381 -5.21833008 9.78455566 -5.8125 10.5 C-6.68914307 11.5677063 -6.68914307 11.5677063 -7.58349609 12.65698242 C-12.71260761 18.82149948 -18.19730028 24.47024957 -24 30 C-25.84813702 31.82629143 -27.64595157 33.67907729 -29.4375 35.5625 C-31.67897973 37.69463926 -33.31185689 38.65592845 -36 40 C-36.33 40.99 -36.66 41.98 -37 43 C-39.0625 43.6875 -39.0625 43.6875 -41 44 C-41.09796875 44.59941406 -41.1959375 45.19882812 -41.296875 45.81640625 C-42.14252379 48.44261555 -43.10010818 49.25030229 -45.25 50.9375 C-47.59353462 52.82189315 -49.55566401 54.5953543 -51.625 56.8125 C-54.17903 59.16489605 -55.59067182 59.70777187 -59 60 C-55.73399118 55.8154262 -52.27488332 52.42042799 -48.23828125 48.984375 C-45.71909101 46.75095678 -43.36407957 44.39676269 -41 42 C-38.11142234 39.07185278 -35.21377984 36.26717737 -32.0625 33.625 C-28.09363187 30.23225789 -24.63336144 26.4238953 -21.14575195 22.55224609 C-18.26419507 19.35829146 -15.31665386 16.26963532 -12.25 13.25 C-8.76335948 9.81352697 -5.4979465 6.24760425 -2.3125 2.53125 C-1.56874537 1.66353626 -0.8081145 0.8081145 0 0 Z " fill="#D2E9F2" transform="translate(768,280)"/>
<path d="M0 0 C5.11062006 -0.37394781 8.37819301 0.90710627 13 3 C13.99 3 14.98 3 16 3 C16 3.66 16 4.32 16 5 C18.475 5.495 18.475 5.495 21 6 C21 6.66 21 7.32 21 8 C21.639375 8.12375 22.27875 8.2475 22.9375 8.375 C23.948125 8.58125 24.95875 8.7875 26 9 C26.66644531 9.12246094 27.33289063 9.24492187 28.01953125 9.37109375 C33.04231078 10.3650939 37.42966852 11.90118666 42.0546875 14.09765625 C44.13905434 15.10875592 44.13905434 15.10875592 47 16 C47 16.66 47 17.32 47 18 C47.5775 18.1340625 48.155 18.268125 48.75 18.40625 C51.59248652 19.15635061 54.26475465 20.21279479 57 21.28125 C58.98155753 21.99337224 60.95018648 22.52415043 63 23 C63 23.66 63 24.32 63 25 C68.445 26.485 68.445 26.485 74 28 C74 28.66 74 29.32 74 30 C75.0828125 30.0928125 75.0828125 30.0928125 76.1875 30.1875 C79.84657625 31.24456647 81.49211602 33.20550071 84 36 C83.01 36.66 82.02 37.32 81 38 C81 37.01 81 36.02 81 35 C73.99379562 31.16502497 66.69380558 28.21328885 59.27856445 25.28833008 C52.63209304 22.66365885 46.02785689 19.94988272 39.4375 17.1875 C26.32920231 11.69892612 13.1682924 6.34272199 0 1 C0 0.67 0 0.34 0 0 Z " fill="#D0E8F5" transform="translate(699,185)"/>
<path d="M0 0 C3.51973101 3.25901019 6.52760275 6.8860931 9 11 C9 11.66 9 12.32 9 13 C9.66 13 10.32 13 11 13 C15.73076923 18.19230769 15.73076923 18.19230769 17 22 C17.59683594 22.59683594 18.19367188 23.19367187 18.80859375 23.80859375 C21.34714089 26.34714089 23.12196102 29.04513014 25.0625 32.0625 C27.6319944 36.12240476 27.6319944 36.12240476 30.74609375 39.74609375 C32 41 32 41 32 43 C32.99 43 33.98 43 35 43 C39.28571429 50.42857143 39.28571429 50.42857143 41 54 C41.66 54 42.32 54 43 54 C45.1875 56.8125 45.1875 56.8125 47 60 C46.67 60.99 46.34 61.98 46 63 C45.36835938 62.18660156 44.73671875 61.37320313 44.0859375 60.53515625 C39.36582213 54.48218642 34.59551572 48.48655968 29.67529297 42.59448242 C24.14690525 35.97076321 18.97895167 29.31526759 14.16796875 22.1484375 C11.34952421 18.05534507 8.33098691 14.13882389 5.27246094 10.22363281 C0 3.47402897 0 3.47402897 0 0 Z " fill="#5B86A3" transform="translate(245,649)"/>
<path d="M0 0 C0 3.48354205 -0.45035158 3.88427053 -2.6875 6.375 C-3.18636719 6.93960938 -3.68523438 7.50421875 -4.19921875 8.0859375 C-5.55376894 9.52569801 -6.95241241 10.92416954 -8.37109375 12.30078125 C-11.30009381 15.3081201 -13.82640988 18.48444727 -16.375 21.8125 C-19.43786462 25.77251543 -22.51026389 29.66345995 -25.875 33.375 C-28.71549031 36.52201804 -30.87817322 39.84180912 -32.95703125 43.53125 C-33.30121094 44.0159375 -33.64539063 44.500625 -34 45 C-34.66 45 -35.32 45 -36 45 C-35.67 45.99 -35.34 46.98 -35 48 C-33.02 48.33 -31.04 48.66 -29 49 C-29 49.33 -29 49.66 -29 50 C-33.29 50 -37.58 50 -42 50 C-41.175 49.071875 -40.35 48.14375 -39.5 47.1875 C-36.92466683 44.18495034 -34.56188178 41.0843806 -32.25 37.875 C-29.08731973 33.48510209 -25.88955724 29.12697104 -22.625 24.8125 C-22.19606445 24.2354834 -21.76712891 23.6584668 -21.32519531 23.06396484 C-20.26480531 21.67140958 -19.13770249 20.33013915 -18 19 C-17.34 19 -16.68 19 -16 19 C-15.74863281 18.43152344 -15.49726562 17.86304688 -15.23828125 17.27734375 C-13.82945546 14.68634868 -12.16725262 12.74666303 -10.1875 10.5625 C-9.47851562 9.78003906 -8.76953125 8.99757813 -8.0390625 8.19140625 C-5.74793861 5.72910644 -3.41431364 3.34115262 -1 1 C-0.67 0.67 -0.34 0.34 0 0 Z " fill="#D2EBF3" transform="translate(675,768)"/>
<path d="M0 0 C-2.36283002 1.18141501 -4.72407246 2.33307333 -7.125 3.4375 C-10.22547632 4.83318284 -10.22547632 4.83318284 -12 8 C-12.38563169 16.1701286 -9.5925567 24.64554899 -7.6875 32.5 C-7.37092318 33.8321425 -7.05525585 35.16450145 -6.74047852 36.49707031 C-5.58795545 41.37128478 -4.42466712 46.24287085 -3.24804688 51.11132812 C-2.63482798 53.65538204 -2.03455966 56.20211689 -1.4375 58.75 C-1.16715942 59.83764648 -1.16715942 59.83764648 -0.89135742 60.94726562 C-0.43359375 62.921875 -0.43359375 62.921875 0 66 C-0.99 66.99 -0.99 66.99 -2 68 C-2.19335938 67.05898438 -2.38671875 66.11796875 -2.5859375 65.1484375 C-2.84632812 63.90320313 -3.10671875 62.65796875 -3.375 61.375 C-3.63023438 60.14523437 -3.88546875 58.91546875 -4.1484375 57.6484375 C-4.92120994 54.33756841 -5.89673268 51.21193148 -7 48 C-8.36238143 42.95414286 -9.2697639 38.26039598 -9 33 C-9.66 33 -10.32 33 -11 33 C-11.16852247 31.39602723 -11.33474886 29.7918131 -11.5 28.1875 C-11.5928125 27.29417969 -11.685625 26.40085937 -11.78125 25.48046875 C-12 23 -12 23 -12 20 C-12.66 20 -13.32 20 -14 20 C-14.054348 17.9377952 -14.09294961 15.87517184 -14.125 13.8125 C-14.14820312 12.66394531 -14.17140625 11.51539063 -14.1953125 10.33203125 C-14.00225517 7.03847313 -13.56086532 4.8912673 -12 2 C-7.95371035 0.06881631 -4.44176394 -0.21151257 0 0 Z " fill="#CFE2F3" transform="translate(120,344)"/>
<path d="M0 0 C0.80716136 2.42148408 1.05144831 3.78659822 0.4453125 6.30078125 C-0.07807493 9.47324363 0.40311044 11.43134897 1.3125 14.5 C1.57675781 15.4178125 1.84101563 16.335625 2.11328125 17.28125 C2.95818573 19.99740171 2.95818573 19.99740171 4.06640625 22.54296875 C5.01485587 25.03909767 5.38760971 27.16164176 5.625 29.8125 C5.69976562 30.60269531 5.77453125 31.39289062 5.8515625 32.20703125 C5.90054687 32.79871094 5.94953125 33.39039063 6 34 C6.66 34 7.32 34 8 34 C9.96294557 43.62678625 11.89418905 53.23200326 13 63 C11.22932772 60.34399158 10.53593327 58.82618957 9.73828125 55.84375 C9.39531006 54.5762793 9.39531006 54.5762793 9.04541016 53.28320312 C8.8035498 52.36474609 8.56168945 51.44628906 8.3125 50.5 C8.05774902 49.54544922 7.80299805 48.59089844 7.54052734 47.60742188 C6.98699933 45.52677046 6.43634788 43.44535221 5.88818359 41.36328125 C4.95314463 37.82257296 4.0021856 34.28634314 3.05078125 30.75 C2.40808134 28.33353875 1.76614146 25.91687521 1.125 23.5 C0.81473877 22.34951172 0.50447754 21.19902344 0.18481445 20.01367188 C-0.10047119 18.92634766 -0.38575684 17.83902344 -0.6796875 16.71875 C-0.93476074 15.75904297 -1.18983398 14.79933594 -1.45263672 13.81054688 C-2.45853822 8.64554329 -2.24456038 4.76969081 0 0 Z " fill="#74B5CD" transform="translate(272,513)"/>
<path d="M0 0 C0.66 0 1.32 0 2 0 C0.62332606 4.64276262 -1.29719304 8.51867887 -3.75 12.6875 C-4.476056 13.93443293 -5.20130965 15.18183337 -5.92578125 16.4296875 C-6.2810791 17.0390918 -6.63637695 17.64849609 -7.00244141 18.27636719 C-10.24716949 23.8827745 -13.28117106 29.6073118 -16.265625 35.35546875 C-16.66531494 36.12141357 -17.06500488 36.8873584 -17.47680664 37.67651367 C-18.27003669 39.19883074 -19.05847189 40.72365808 -19.84155273 42.2512207 C-20.20708252 42.95206787 -20.5726123 43.65291504 -20.94921875 44.375 C-21.27237061 45.00148438 -21.59552246 45.62796875 -21.9284668 46.2734375 C-23.08462464 48.13635577 -24.39756891 49.51249678 -26 51 C-25.505 48.03 -25.505 48.03 -25 45 C-23.515 44.505 -23.515 44.505 -22 44 C-21.979375 43.071875 -21.95875 42.14375 -21.9375 41.1875 C-21.27605712 36.21141434 -18.36419617 32.51795996 -15.59375 28.453125 C-13.86704606 26.02058066 -13.86704606 26.02058066 -13 23 C-12.34 23 -11.68 23 -11 23 C-10.90460938 22.28585937 -10.80921875 21.57171875 -10.7109375 20.8359375 C-9.88573584 17.54419899 -8.52762892 15.42676157 -6.625 12.625 C-3.90731974 8.50104577 -1.74248199 4.61245233 0 0 Z " fill="#D7E8F1" transform="translate(313,432)"/>
<path d="M0 0 C1.19302734 -0.00128906 2.38605469 -0.00257812 3.61523438 -0.00390625 C5.47051758 0.00189453 5.47051758 0.00189453 7.36328125 0.0078125 C8.61173828 0.00394531 9.86019531 0.00007813 11.14648438 -0.00390625 C12.33564453 -0.00261719 13.52480469 -0.00132813 14.75 0 C15.83885498 0.00112793 16.92770996 0.00225586 18.04956055 0.00341797 C20.67578125 0.1328125 20.67578125 0.1328125 22.67578125 1.1328125 C22.67578125 1.7928125 22.67578125 2.4528125 22.67578125 3.1328125 C24.32578125 2.8028125 25.97578125 2.4728125 27.67578125 2.1328125 C28.17078125 3.1228125 28.17078125 3.1228125 28.67578125 4.1328125 C30.45549753 5.20978367 32.27470404 6.22222937 34.11328125 7.1953125 C35.10199219 7.72253906 36.09070313 8.24976562 37.109375 8.79296875 C38.62551831 9.58450171 40.14601918 10.36793147 41.67578125 11.1328125 C41.67578125 11.7928125 41.67578125 12.4528125 41.67578125 13.1328125 C37.89752984 11.68124165 34.30720917 9.97925147 30.67578125 8.1953125 C15.50769912 1.216971 0.88002107 0.80886587 -15.32421875 4.1328125 C-10.57301336 0.08548939 -6.07791682 0.00627652 0 0 Z " fill="#CDE7F7" transform="translate(467.32421875,111.8671875)"/>
<path d="M0 0 C2.51383642 2.50039344 5.0106982 5.01115597 7.46484375 7.5703125 C8.28082031 8.41335938 9.09679687 9.25640625 9.9375 10.125 C10.75089844 10.97320313 11.56429688 11.82140625 12.40234375 12.6953125 C20.81508421 20.15924765 31.90402702 20.28147083 42.625 20.625 C43.62917969 20.66367187 44.63335937 20.70234375 45.66796875 20.7421875 C48.11181005 20.83528622 50.55566596 20.92110913 53 21 C53 21.33 53 21.66 53 22 C42.44 22 31.88 22 21 22 C21 21.34 21 20.68 21 20 C20.0925 19.7525 19.185 19.505 18.25 19.25 C14.83404543 17.93617132 13.45841552 16.62230988 11 14 C10.01 13.566875 10.01 13.566875 9 13.125 C6.01877218 11.44805935 4.8049113 8.85292431 3 6 C2.4225 5.443125 1.845 4.88625 1.25 4.3125 C0 3 0 3 0 0 Z " fill="#DAEDF4" transform="translate(364,878)"/>
<path d="M0 0 C6 3 6 3 7.7578125 3.984375 C20.4163846 10.86979079 34.22133176 11.6156789 48 8 C50.01345199 7.37513559 52.02179902 6.72881089 54 6 C53 9 53 9 51.19921875 9.94921875 C38.5541619 13.6660395 23.35499401 13.79250657 11 9 C10.31679688 8.76023437 9.63359375 8.52046875 8.9296875 8.2734375 C5.1757833 6.8441267 2.52603088 5.13227829 0 2 C0 1.34 0 0.68 0 0 Z " fill="#52A2C6" transform="translate(586,278)"/>
<path d="M0 0 C0.66 0 1.32 0 2 0 C1.14424806 2.78119382 0.27858698 5.46030198 -1.05859375 8.05078125 C-5.72943521 17.15003295 -3.23794314 24.84516318 -0.62109375 34.3359375 C0 37 0 37 0 41 C-0.99 40.67 -1.98 40.34 -3 40 C-3.48164188 37.64631607 -3.96036648 35.29209845 -4.4375 32.9375 C-4.57220703 32.28072266 -4.70691406 31.62394531 -4.84570312 30.94726562 C-6.12163814 24.62983128 -7.15781659 18.47048019 -7 12 C-6.34 11.67 -5.68 11.34 -5 11 C-3.90480507 8.69219431 -3.90480507 8.69219431 -2.9375 6 C-1.08883827 1.08883827 -1.08883827 1.08883827 0 0 Z " fill="#DEEFF8" transform="translate(275,503)"/>
<path d="M0 0 C-0.52207031 0.25652344 -1.04414062 0.51304688 -1.58203125 0.77734375 C-8.47841839 4.36443128 -14.07730254 8.97695278 -20 14 C-26.27 11.03 -32.54 8.06 -39 5 C-39 4.67 -39 4.34 -39 4 C-37.02 4 -35.04 4 -33 4 C-33 4.66 -33 5.32 -33 6 C-32.39671875 6.19335938 -31.7934375 6.38671875 -31.171875 6.5859375 C-29.97304688 6.97652344 -29.97304688 6.97652344 -28.75 7.375 C-27.96109375 7.63023437 -27.1721875 7.88546875 -26.359375 8.1484375 C-24.13372042 8.95173667 -22.09068328 9.89711662 -20 11 C-19.566875 10.360625 -19.13375 9.72125 -18.6875 9.0625 C-17 7 -17 7 -14 6 C-13.67 5.34 -13.34 4.68 -13 4 C-11.66666667 3.33333333 -10.33333333 2.66666667 -9 2 C-8.67 1.34 -8.34 0.68 -8 0 C-4.95647475 -1.15444061 -3.07394306 -0.85709523 0 0 Z " fill="#D1EAF4" transform="translate(617,121)"/>
<path d="M0 0 C2.40478307 2.40478307 2.53296389 3.68909543 3.18359375 6.98828125 C3.48970581 8.5045813 3.48970581 8.5045813 3.80200195 10.05151367 C4.01171631 11.12763916 4.22143066 12.20376465 4.4375 13.3125 C4.87641181 15.50284343 5.31650695 17.6929501 5.7578125 19.8828125 C5.96954102 20.93887695 6.18126953 21.99494141 6.39941406 23.08300781 C7.32695932 27.5880122 8.40254745 32.04995473 9.51953125 36.51171875 C10.01319861 39.06835376 10.08891339 41.40279294 10 44 C8 43 8 43 6.875 39.9375 C5.80317715 35.90141709 5.8540999 32.15815272 6 28 C5.34 28 4.68 28 4 28 C3.3280098 24.08422732 2.66333258 20.1672478 2 16.25 C1.80921875 15.13882813 1.6184375 14.02765625 1.421875 12.8828125 C1.15117187 11.27792969 1.15117187 11.27792969 0.875 9.640625 C0.70742188 8.65610352 0.53984375 7.67158203 0.3671875 6.65722656 C0 4 0 4 0 0 Z " fill="#D4E3F4" transform="translate(337,776)"/>
<path d="M0 0 C0.33 0 0.66 0 1 0 C1.46213542 5.77669279 0.44844595 8.40207206 -3 13 C-3.33 13.99 -3.66 14.98 -4 16 C-4.66 16 -5.32 16 -6 16 C-6 16.99 -6 17.98 -6 19 C-6.66 19 -7.32 19 -8 19 C-8.20625 19.763125 -8.4125 20.52625 -8.625 21.3125 C-10.55894391 26.49898594 -13.2785146 31.19033084 -16 36 C-16.33 35.34 -16.66 34.68 -17 34 C-15.98364258 31.51318359 -15.98364258 31.51318359 -14.39453125 28.3984375 C-13.53698242 26.70267578 -13.53698242 26.70267578 -12.66210938 24.97265625 C-12.04578391 23.77332905 -11.42924591 22.57411104 -10.8125 21.375 C-9.92594727 19.62896484 -9.92594727 19.62896484 -9.02148438 17.84765625 C-7.87239281 15.5853422 -6.72031276 13.32454308 -5.56494141 11.06542969 C-3.68750887 7.3878879 -1.83924982 3.69675522 0 0 Z " fill="#63ADC9" transform="translate(387,291)"/>
<path d="M0 0 C1.19882812 -0.01417969 2.39765625 -0.02835937 3.6328125 -0.04296875 C6.67784753 0.17348555 8.32827005 0.58470727 10.875 2.1875 C5.0621571 3.08178352 -0.51056473 3.24686653 -6.390625 3.125 C-9.06685971 3.08498856 -9.06685971 3.08498856 -11.359375 3.75 C-13.125 4.1875 -13.125 4.1875 -15.125 3.1875 C-15.125 3.8475 -15.125 4.5075 -15.125 5.1875 C-22.08928571 7.46428571 -22.08928571 7.46428571 -26.125 6.1875 C-24.08623051 5.36775737 -22.04383925 4.5570193 -20 3.75 C-18.86304688 3.29753906 -17.72609375 2.84507813 -16.5546875 2.37890625 C-10.99859285 0.44882781 -5.86067747 0.03164513 0 0 Z " fill="#52A6CA" transform="translate(471.125,112.8125)"/>
<path d="M0 0 C4.44907205 1.48302402 6.74579392 5.08285501 9 9 C9 9.66 9 10.32 9 11 C9.99 11.33 10.98 11.66 12 12 C12.33333333 13.33333333 12.66666667 14.66666667 13 16 C13.99 16.33 14.98 16.66 16 17 C17.66110165 19.16029281 19.18943143 21.2950884 20.6875 23.5625 C21.10322266 24.17802734 21.51894531 24.79355469 21.94726562 25.42773438 C22.97193162 26.94706671 23.98690678 28.47292657 25 30 C24.67 30.66 24.34 31.32 24 32 C23.34515625 31.16339844 22.6903125 30.32679688 22.015625 29.46484375 C21.0938462 28.28898708 20.1719627 27.11321248 19.25 25.9375 C18.76354004 25.31641357 18.27708008 24.69532715 17.77587891 24.05541992 C15.08598684 20.62861218 12.37691477 17.21953491 9.6328125 13.8359375 C9.08850586 13.16312744 8.54419922 12.49031738 7.98339844 11.79711914 C6.92513054 10.49131165 5.86336923 9.18832629 4.79785156 7.88842773 C2.68250614 5.27462667 1.07273274 3.21819823 0 0 Z " fill="#5A88A6" transform="translate(292,712)"/>
<path d="M0 0 C0.66 0 1.32 0 2 0 C2.84416163 2.53851462 3.67547299 5.08010854 4.5 7.625 C4.73847656 8.33785156 4.97695313 9.05070313 5.22265625 9.78515625 C6.57381808 13.99306024 7.28250044 17.52236798 7 22 C3.74451247 18.97704729 1.31022942 15.79537691 -1 12 C-1 11.34 -1 10.68 -1 10 C-0.01 10.33 0.98 10.66 2 11 C1.34 7.37 0.68 3.74 0 0 Z " fill="#D4E4F4" transform="translate(286,590)"/>
<path d="M0 0 C4.82822507 2.01479543 9.42361362 4.47441501 14 7 C13.01 7.495 13.01 7.495 12 8 C10.08203125 7.2578125 10.08203125 7.2578125 7.8125 6.125 C3.77640581 4.23103994 0.42563906 3.37665013 -4 3 C-4 2.34 -4 1.68 -4 1 C-4.721875 1.144375 -5.44375 1.28875 -6.1875 1.4375 C-10.09375 2.21875 -10.09375 2.21875 -14 3 C-14.33 3.99 -14.66 4.98 -15 6 C-15.99 5.34 -16.98 4.68 -18 4 C-12.01782599 -0.82918516 -7.4547594 -2.23845357 0 0 Z " fill="#4BA2CB" transform="translate(554,113)"/>
<path d="M0 0 C0.66 0 1.32 0 2 0 C3.57410012 4.17762903 4.24126552 7.59724481 4.1953125 12.0546875 C4.18564453 13.71757812 4.18564453 13.71757812 4.17578125 15.4140625 C4.15902344 16.55617187 4.14226563 17.69828125 4.125 18.875 C4.11597656 20.0403125 4.10695313 21.205625 4.09765625 22.40625 C4.07417432 25.27104577 4.04133141 28.13541535 4 31 C3.34 30.67 2.68 30.34 2 30 C1.97494385 29.37544922 1.9498877 28.75089844 1.92407227 28.10742188 C1.80699619 25.23812877 1.68478249 22.36907575 1.5625 19.5 C1.52318359 18.51773438 1.48386719 17.53546875 1.44335938 16.5234375 C1.20239383 10.9626941 0.78078831 5.51144691 0 0 Z " fill="#5CACC9" transform="translate(663,224)"/>
<path d="M0 0 C3.28204182 3.88350197 5.83782828 7.93321183 8.375 12.3125 C11.31239052 17.32957762 14.3207838 22.04346034 18.1015625 26.484375 C18.39804688 26.98453125 18.69453125 27.4846875 19 28 C18.67 28.99 18.34 29.98 18 31 C13.2180885 24.6953569 8.74954233 18.23490662 4.5 11.5625 C4.05479004 10.87671875 3.60958008 10.1909375 3.15087891 9.484375 C0.9424918 5.97036241 0 4.24703254 0 0 Z " fill="#5A8BA6" transform="translate(225,617)"/>
<path d="M0 0 C2.87816915 5.35055575 4.39185225 11.22133603 6.1875 17 C6.56841797 18.18851562 6.94933594 19.37703125 7.34179688 20.6015625 C7.69693359 21.74367188 8.05207031 22.88578125 8.41796875 24.0625 C8.74563232 25.10535156 9.0732959 26.14820313 9.41088867 27.22265625 C9.9955214 29.97888578 9.95890145 31.3918506 9 34 C5.60350183 26.20701943 2 17.61188604 2 9 C1.34 9 0.68 9 0 9 C-0.87890625 2.84765625 -0.87890625 2.84765625 -1 1 C-0.67 0.67 -0.34 0.34 0 0 Z " fill="#CFE2F2" transform="translate(120,412)"/>
<path d="M0 0 C0 0.66 0 1.32 0 2 C-1.051875 2.3403125 -1.051875 2.3403125 -2.125 2.6875 C-5.70552601 4.32208796 -8.02817402 6.4158035 -11 9 C-11.99 9.66 -12.98 10.32 -14 11 C-14.33 11.99 -14.66 12.98 -15 14 C-17.3125 16.25 -17.3125 16.25 -20 18 C-22.3125 17.75 -22.3125 17.75 -24 17 C-24 16.34 -24 15.68 -24 15 C-25.32 14.34 -26.64 13.68 -28 13 C-27.01 12.67 -26.02 12.34 -25 12 C-25 12.66 -25 13.32 -25 14 C-24.34 14 -23.68 14 -23 14 C-23 14.66 -23 15.32 -23 16 C-22.34 16 -21.68 16 -21 16 C-20.67 15.01 -20.34 14.02 -20 13 C-19.01 13 -18.02 13 -17 13 C-16.74863281 12.40316406 -16.49726562 11.80632812 -16.23828125 11.19140625 C-13.64943604 6.60988524 -5.35376142 0 0 0 Z " fill="#E5EFF6" transform="translate(537,113)"/>
<path d="M0 0 C0 3.48354205 -0.45035158 3.88427053 -2.6875 6.375 C-3.43580078 7.22191406 -3.43580078 7.22191406 -4.19921875 8.0859375 C-5.57082248 9.54382433 -6.98369522 10.96300261 -8.4140625 12.36328125 C-11.91723992 15.93525219 -14.92292586 19.8397561 -18.01171875 23.76953125 C-18.66785156 24.50558594 -19.32398438 25.24164062 -20 26 C-20.66 26 -21.32 26 -22 26 C-20.79618552 23.50638429 -19.54571278 21.31856917 -18 19 C-17.34 19 -16.68 19 -16 19 C-15.62294922 18.14728516 -15.62294922 18.14728516 -15.23828125 17.27734375 C-13.82945546 14.68634868 -12.16725262 12.74666303 -10.1875 10.5625 C-9.47851562 9.78003906 -8.76953125 8.99757813 -8.0390625 8.19140625 C-5.74793861 5.72910644 -3.41431364 3.34115262 -1 1 C-0.67 0.67 -0.34 0.34 0 0 Z " fill="#CCE5EF" transform="translate(675,768)"/>
<path d="M0 0 C0.33 0 0.66 0 1 0 C0.55860007 6.57595817 -1.94229072 11.56941905 -4.9375 17.375 C-5.39318359 18.28894531 -5.84886719 19.20289063 -6.31835938 20.14453125 C-9.72802078 26.86401039 -9.72802078 26.86401039 -12 28 C-11.47731534 25.23723823 -10.89130413 22.6739124 -10 20 C-9.34 20 -8.68 20 -8 20 C-7.8453125 18.9171875 -7.8453125 18.9171875 -7.6875 17.8125 C-7 15 -7 15 -5.5 12.5625 C-3.81233682 9.67940874 -3.51977173 7.26713661 -3 4 C-2.34 3.67 -1.68 3.34 -1 3 C-0.67 2.01 -0.34 1.02 0 0 Z " fill="#D5EAF2" transform="translate(327,404)"/>
<path d="M0 0 C0.73734375 0.22816406 1.4746875 0.45632812 2.234375 0.69140625 C1.234375 2.69140625 1.234375 2.69140625 -2.078125 4.44140625 C-5.84914156 6.48146439 -7.52333965 9.0373116 -9.765625 12.69140625 C-10.425625 12.69140625 -11.085625 12.69140625 -11.765625 12.69140625 C-11.765625 9.34915881 -11.25686295 7.27675988 -9.09375 4.69921875 C-3.63983308 -0.40613957 -3.63983308 -0.40613957 0 0 Z " fill="#1D1821" transform="translate(612.765625,225.30859375)"/>
<path d="M0 0 C2 3 2 3 2 5 C2.66 5 3.32 5 4 5 C4.06058594 5.63808594 4.12117188 6.27617188 4.18359375 6.93359375 C4.26738281 7.75988281 4.35117187 8.58617187 4.4375 9.4375 C4.51871094 10.26121094 4.59992188 11.08492187 4.68359375 11.93359375 C4.78930815 13.98662025 4.78930815 13.98662025 6 15 C6.23363881 16.84891946 6.41303635 18.70488031 6.5625 20.5625 C6.64628906 21.57441406 6.73007812 22.58632813 6.81640625 23.62890625 C6.90728516 24.80259766 6.90728516 24.80259766 7 26 C5.20615077 23.30922616 4.51100011 21.72613768 3.7109375 18.69140625 C3.49179687 17.86189453 3.27265625 17.03238281 3.046875 16.17773438 C2.82515625 15.31470703 2.6034375 14.45167969 2.375 13.5625 C2.03082031 12.27375977 2.03082031 12.27375977 1.6796875 10.95898438 C0.67505691 7.10491048 0 4.02613481 0 0 Z " fill="#69ADCE" transform="translate(285,576)"/>
<path d="M0 0 C0.99 0.33 1.98 0.66 3 1 C-0.86757281 5.95532767 -5.18876004 9.96476648 -10 14 C-10.33 13.01 -10.66 12.02 -11 11 C-7.37 7.37 -3.74 3.74 0 0 Z " fill="#343335" transform="translate(590,865)"/>
<path d="M0 0 C0.66 0.33 1.32 0.66 2 1 C3.05885037 4.1765511 3.20049266 6.59988011 3.25 9.9375 C3.27578125 10.97777344 3.3015625 12.01804688 3.328125 13.08984375 C2.96423357 16.31721419 2.16358594 17.63713641 0 20 C-0.97714021 16.2000103 -0.75989103 13.79945515 0 10 C0.09235323 6.66502214 0.05828942 3.33545011 0 0 Z " fill="#1D4154" transform="translate(629,230)"/>
<path d="M0 0 C1.65 1.32 3.3 2.64 5 4 C4.44010697 7.99012371 3.24330232 10.5255052 0.9375 13.8125 C0.11572266 14.99779297 0.11572266 14.99779297 -0.72265625 16.20703125 C-1.14417969 16.79871094 -1.56570313 17.39039063 -2 18 C-3 15 -3 15 -2.0625 12.8125 C-1.5365625 11.9153125 -1.5365625 11.9153125 -1 11 C-0.34 11 0.32 11 1 11 C0.835 10.113125 0.67 9.22625 0.5 8.3125 C0.07004243 5.46403108 -0.08441035 2.86995198 0 0 Z " fill="#DDE7ED" transform="translate(428,199)"/>
<path d="M0 0 C0.66 0 1.32 0 2 0 C4.64004825 8.48586939 6.00189534 17.18340884 7 26 C5.20615077 23.30922616 4.51100011 21.72613768 3.7109375 18.69140625 C3.49179687 17.86189453 3.27265625 17.03238281 3.046875 16.17773438 C2.82515625 15.31470703 2.6034375 14.45167969 2.375 13.5625 C2.03082031 12.27375977 2.03082031 12.27375977 1.6796875 10.95898438 C0.67505691 7.10491048 0 4.02613481 0 0 Z " fill="#6FA3BD" transform="translate(278,550)"/>
<path d="M0 0 C0.66 0 1.32 0 2 0 C3.34495828 7.09705662 4.24091535 13.7725395 4 21 C0.47111416 14.55014562 -0.31545811 7.25553656 0 0 Z " fill="#69A8C9" transform="translate(340,781)"/>
<path d="M0 0 C3.376763 3.14600471 5.98516091 6.63451231 8.5625 10.4375 C8.94857422 10.99759766 9.33464844 11.55769531 9.73242188 12.13476562 C11.94021774 15.35807237 14.02723924 18.62802873 16 22 C12.55379139 20.8512638 11.90830804 19.92418358 9.8125 17.0625 C9.28269531 16.35222656 8.75289063 15.64195312 8.20703125 14.91015625 C7 13 7 13 7 11 C6.34 11 5.68 11 5 11 C5 10.34 5 9.68 5 9 C4.34 9 3.68 9 3 9 C2.01 6.03 1.02 3.06 0 0 Z " fill="#5F8CA5" transform="translate(270,581)"/>
<path d="M0 0 C0.33 0.99 0.66 1.98 1 3 C0.52949219 3.37511719 0.05898438 3.75023437 -0.42578125 4.13671875 C-3.37838364 6.56359898 -5.69421335 8.47075387 -7.625 11.8125 C-9 14 -9 14 -11.6875 14.8125 C-12.450625 14.874375 -13.21375 14.93625 -14 15 C-12.40153531 10.75091664 -9.1869608 8.17774261 -5.875 5.25 C-5.31167969 4.74339844 -4.74835937 4.23679687 -4.16796875 3.71484375 C-2.78348469 2.47115468 -1.39238512 1.23483695 0 0 Z " fill="#4DAED1" transform="translate(657,269)"/>
<path d="M0 0 C0.66 0.66 1.32 1.32 2 2 C1 4 0 6 -1 8 C-1.495 9.010625 -1.99 10.02125 -2.5 11.0625 C-6.4 18.7 -6.4 18.7 -9 20 C-8.37348573 17.1375259 -7.47829483 14.71918347 -6.15234375 12.109375 C-5.79462891 11.40039062 -5.43691406 10.69140625 -5.06835938 9.9609375 C-4.69517578 9.23132813 -4.32199219 8.50171875 -3.9375 7.75 C-3.56044922 7.00492187 -3.18339844 6.25984375 -2.79492188 5.4921875 C-1.86689327 3.65962469 -0.93392821 1.82956324 0 0 Z " fill="#4DB1D8" transform="translate(397,274)"/>
<path d="M0 0 C1.2077558 3.62326739 0.54311128 4.64146369 -1 8 C-1.66 8 -2.32 8 -3 8 C-3 9.32 -3 10.64 -3 12 C-3.66 12 -4.32 12 -5 12 C-5.103125 12.763125 -5.20625 13.52625 -5.3125 14.3125 C-6.04364039 17.17059424 -6.76951913 18.15742885 -9 20 C-9 16.80086419 -8.51720902 15.73317778 -7.03125 12.98828125 C-6.62519531 12.23095703 -6.21914063 11.47363281 -5.80078125 10.69335938 C-5.37152344 9.90767578 -4.94226563 9.12199219 -4.5 8.3125 C-4.07074219 7.51521484 -3.64148438 6.71792969 -3.19921875 5.89648438 C-2.13831912 3.92792617 -1.07175323 1.96266394 0 0 Z " fill="#60ACC8" transform="translate(300,460)"/>
<path d="M0 0 C-0.81984375 0.38671875 -1.6396875 0.7734375 -2.484375 1.171875 C-3.56203125 1.69265625 -4.6396875 2.2134375 -5.75 2.75 C-6.81734375 3.26046875 -7.8846875 3.7709375 -8.984375 4.296875 C-11.8735255 5.9285714 -13.71760386 7.63535535 -16 10 C-16.66 10 -17.32 10 -18 10 C-18 9.01 -18 8.02 -18 7 C-17.01 7 -16.02 7 -15 7 C-15 6.01 -15 5.02 -15 4 C-13.68 4 -12.36 4 -11 4 C-11 3.34 -11 2.68 -11 2 C-10.01 2 -9.02 2 -8 2 C-8 1.34 -8 0.68 -8 0 C-4.90645403 -0.99435406 -3.09720845 -0.87840996 0 0 Z " fill="#C9E4F0" transform="translate(452,117)"/>
<path d="M0 0 C1 4 1 4 0.07421875 5.96484375 C-0.61220703 6.94130859 -0.61220703 6.94130859 -1.3125 7.9375 C-3.29361135 10.88165159 -4.83860961 13.62140977 -6 17 C-6.66 17 -7.32 17 -8 17 C-8 17.66 -8 18.32 -8 19 C-8.66 18.67 -9.32 18.34 -10 18 C-6.7 12.06 -3.4 6.12 0 0 Z " fill="#64ADCB" transform="translate(316,431)"/>
<path d="M0 0 C0 0.33 0 0.66 0 1 C-2.64 1.33 -5.28 1.66 -8 2 C-8 2.33 -8 2.66 -8 3 C-12.95 3.33 -17.9 3.66 -23 4 C-15.93501061 -0.70999292 -8.19241175 -0.24577235 0 0 Z " fill="#CCF8FD" transform="translate(622,194)"/>
<path d="M0 0 C0 3.91872745 -1.57342329 6.08391214 -4 9 C-6.24323237 11.11834149 -8.58207078 13.08467405 -11 15 C-11.66 14.67 -12.32 14.34 -13 14 C-12.56429687 13.57589844 -12.12859375 13.15179687 -11.6796875 12.71484375 C-7.54991517 8.64764373 -3.71958871 4.44536212 0 0 Z " fill="#273C46" transform="translate(604,850)"/>
<path d="M0 0 C0.33 0.99 0.66 1.98 1 3 C1.99 3.33 2.98 3.66 4 4 C4.94921875 6.109375 4.94921875 6.109375 5.6875 8.75 C5.93886719 9.61109375 6.19023437 10.4721875 6.44921875 11.359375 C6.99753428 13.98817853 7.10108994 16.32352338 7 19 C5.2117698 16.31765469 4.14809618 14.04485923 3 11.0625 C2.03292345 8.55792284 1.09217407 6.17009754 -0.1875 3.80859375 C-0.5896875 2.91333984 -0.5896875 2.91333984 -1 2 C-0.67 1.34 -0.34 0.68 0 0 Z " fill="#79AAC2" transform="translate(333,762)"/>
<path d="M0 0 C2.630693 2.630693 4.03993988 5.7114832 5.6875 9 C6.02072266 9.64195312 6.35394531 10.28390625 6.69726562 10.9453125 C7.52943092 12.59926264 8.27191775 14.29766443 9 16 C8.67 16.66 8.34 17.32 8 18 C5 14.25 5 14.25 5 12 C4.01 11.67 3.02 11.34 2 11 C0.60955102 7.12137916 0 4.13537997 0 0 Z " fill="#DCE6F1" transform="translate(418,180)"/>
<path d="M0 0 C0.6875 1.75 0.6875 1.75 1 4 C-0.94046583 7.5575207 -3.5640467 9.01076388 -7 11 C-7.33 11.66 -7.66 12.32 -8 13 C-8.66 12.67 -9.32 12.34 -10 12 C-8.52149287 10.18696196 -7.04217625 8.37458402 -5.5625 6.5625 C-4.32693359 5.04849609 -4.32693359 5.04849609 -3.06640625 3.50390625 C-1 1 -1 1 0 0 Z " fill="#CAE2EE" transform="translate(689,751)"/>
<path d="M0 0 C-2.34240608 1.17120304 -4.61410583 2.23812267 -7.0625 3.1875 C-11.01840308 5.62837637 -11.52958886 7.67045609 -13 12 C-13.33 12 -13.66 12 -14 12 C-13.39165187 4.57815275 -13.39165187 4.57815275 -11.6875 2.0625 C-7.94685499 -0.29272093 -4.33426915 -0.09850612 0 0 Z " fill="#D7E9F4" transform="translate(120,344)"/>
<path d="M0 0 C2.0625 0.4375 2.0625 0.4375 4 1 C3.01 2.485 3.01 2.485 2 4 C1.54084493 6.96842658 1.54084493 6.96842658 1.375 10.1875 C1.30023437 11.27417969 1.22546875 12.36085937 1.1484375 13.48046875 C1.09945312 14.31191406 1.05046875 15.14335937 1 16 C0.67 16 0.34 16 0 16 C-1.30677037 11.09961113 -1.31718286 6.03761016 -1 1 C-0.67 0.67 -0.34 0.34 0 0 Z " fill="#252B39" transform="translate(782,221)"/>
<path d="M0 0 C0.99 0.495 0.99 0.495 2 1 C2 1.66 2 2.32 2 3 C2.66 3 3.32 3 4 3 C4.33 3.99 4.66 4.98 5 6 C7.00016466 7.20882096 7.00016466 7.20882096 9 8 C9 9.98 9 11.96 9 14 C5.15237434 10.5798883 2.39365978 6.53225744 0 2 C0 1.34 0 0.68 0 0 Z " fill="#D2E1F1" transform="translate(155,397)"/>
<path d="M0 0 C0.66 0.33 1.32 0.66 2 1 C-1.04202619 5.25883667 -4.4839539 8.38603243 -9 11 C-9.66 11 -10.32 11 -11 11 C-9.48832294 6.76730422 -6.69447201 5.33731903 -3 3 C-1.20605554 1.37648891 -1.20605554 1.37648891 0 0 Z " fill="#D3F5FC" transform="translate(533,115)"/>
<path d="M0 0 C2.50719458 2.32649587 4.32183601 4.82681521 6.1875 7.6875 C6.71730469 8.49574219 7.24710937 9.30398438 7.79296875 10.13671875 C8.39044922 11.05904297 8.39044922 11.05904297 9 12 C8.67 12.66 8.34 13.32 8 14 C7.01 13.67 6.02 13.34 5 13 C4.67 11.02 4.34 9.04 4 7 C3.34 7 2.68 7 2 7 C1.34 4.69 0.68 2.38 0 0 Z " fill="#5883A1" transform="translate(261,567)"/>
<path d="M0 0 C1.59373901 2.39060851 2.65297076 4.30828179 3.6875 6.9375 C3.95949219 7.60652344 4.23148437 8.27554688 4.51171875 8.96484375 C5.0787676 11.32830338 4.76024003 12.7192799 4 15 C2 13 2 13 1.875 9.875 C1.91625 8.92625 1.9575 7.9775 2 7 C0.68 6.67 -0.64 6.34 -2 6 C-1.01 6 -0.02 6 1 6 C0.67 4.02 0.34 2.04 0 0 Z " fill="#3D7D9F" transform="translate(328,749)"/>
<path d="M0 0 C0.66 0 1.32 0 2 0 C0.35433477 5.68502535 -2.29032784 10.76681636 -5 16 C-6.58533976 11.24398073 -4.00490521 7.97762936 -1.875 3.6875 C-1.25196065 2.45733836 -0.62762455 1.22782862 0 0 Z " fill="#D2EAF7" transform="translate(283,487)"/>
<path d="M0 0 C2.12966005 2.12966005 2.47624662 3.04068204 3.1875 5.875 C3.36667969 6.55304687 3.54585938 7.23109375 3.73046875 7.9296875 C4.02970718 10.22818556 3.69377386 11.80550964 3 14 C3 13.34 3 12.68 3 12 C2.34 12 1.68 12 1 12 C0.67 8.04 0.34 4.08 0 0 Z " fill="#DAE6F0" transform="translate(353,844)"/>
<path d="M0 0 C2.52893294 2.34160457 4.73354191 4.82152732 6.8125 7.5625 C7.47185547 8.43068359 7.47185547 8.43068359 8.14453125 9.31640625 C8.56798828 10.14978516 8.56798828 10.14978516 9 11 C8.67 11.99 8.34 12.98 8 14 C6.65804628 12.23569031 5.32668332 10.4633209 4 8.6875 C3.2575 7.70136719 2.515 6.71523438 1.75 5.69921875 C0 3 0 3 0 0 Z " fill="#6590AD" transform="translate(245,649)"/>
<path d="M0 0 C3.27126868 2.18084579 3.59023384 2.81286107 4.75 6.375 C5.01296875 7.14585937 5.2759375 7.91671875 5.546875 8.7109375 C6.03705634 11.1871984 5.80000683 12.63241221 5 15 C4.16013916 13.06532058 3.32831973 11.12714871 2.5 9.1875 C2.0359375 8.10855469 1.571875 7.02960938 1.09375 5.91796875 C0 3 0 3 0 0 Z " fill="#5F94B0" transform="translate(136,457)"/>
<path d="M0 0 C4.03433549 3.75610546 6.97907757 7.48701889 8 13 C3.99027798 9.32442148 1.54664585 5.81033104 -1 1 C-0.67 0.67 -0.34 0.34 0 0 Z " fill="#6190AC" transform="translate(236,635)"/>
<path d="M0 0 C3.26008643 3.16952847 6.22237877 6.39937989 9 10 C8.34 10.66 7.68 11.32 7 12 C6.401875 11.071875 5.80375 10.14375 5.1875 9.1875 C3.2345415 6.11316856 3.2345415 6.11316856 1.25 4.3125 C0 3 0 3 0 0 Z " fill="#D0E4EC" transform="translate(364,878)"/>
<path d="M0 0 C4.61513112 1.31860889 8.09897612 3.21355437 12 6 C11.67 6.66 11.34 7.32 11 8 C10.01 8 9.02 8 8 8 C7.938125 7.071875 7.938125 7.071875 7.875 6.125 C7.58625 5.42375 7.2975 4.7225 7 4 C4.02496878 2.84164327 4.02496878 2.84164327 1 2 C0.67 1.34 0.34 0.68 0 0 Z " fill="#54A3C5" transform="translate(496,119)"/>
<path d="M0 0 C0.99 0.33 1.98 0.66 3 1 C1.02 3.31 -0.96 5.62 -3 8 C-3.33 6.68 -3.66 5.36 -4 4 C-3.34 4 -2.68 4 -2 4 C-2 3.01 -2 2.02 -2 1 C-1.34 0.67 -0.68 0.34 0 0 Z " fill="#60B6CF" transform="translate(742,304)"/>
<path d="M0 0 C0.66 0.33 1.32 0.66 2 1 C0.44499019 4.81684226 -2.03595495 7.19195732 -5 10 C-4.67 8.35 -4.34 6.7 -4 5 C-3.01 4.67 -2.02 4.34 -1 4 C-0.26676204 1.98491642 -0.26676204 1.98491642 0 0 Z " fill="#5CB2CE" transform="translate(784,259)"/>
<path d="M0 0 C3.38276494 0.60406517 5.34321071 1.85742799 8 4 C8.99 4.66 9.98 5.32 11 6 C6.64477147 5.49357808 3.55760365 4.61588503 0 2 C0 1.34 0 0.68 0 0 Z " fill="#E8E8EE" transform="translate(679,824)"/>
<path d="M0 0 C0.99 0.495 0.99 0.495 2 1 C2.6328125 3.50390625 2.6328125 3.50390625 3.125 6.5625 C3.29257813 7.57441406 3.46015625 8.58632813 3.6328125 9.62890625 C3.75398438 10.41136719 3.87515625 11.19382812 4 12 C3.34 11.67 2.68 11.34 2 11 C2 10.01 2 9.02 2 8 C1.34 8 0.68 8 0 8 C0 5.36 0 2.72 0 0 Z " fill="#C8DDF1" transform="translate(106,356)"/>
<path d="M0 0 C1 2 1 2 0.3125 4.25 C-1.18526213 7.38816827 -3.01250158 10.15125227 -5 13 C-5.33 12.34 -5.66 11.68 -6 11 C-4.78515625 8.3984375 -4.78515625 8.3984375 -3.0625 5.375 C-2.21365234 3.87066406 -2.21365234 3.87066406 -1.34765625 2.3359375 C-0.90292969 1.56507813 -0.45820313 0.79421875 0 0 Z " fill="#69B2CE" transform="translate(363,338)"/>
<path d="M0 0 C0.66 0 1.32 0 2 0 C2.33 2.64 2.66 5.28 3 8 C1.68 7.67 0.36 7.34 -1 7 C-0.34 6.01 0.32 5.02 1 4 C0.34 3.67 -0.32 3.34 -1 3 C-0.67 2.01 -0.34 1.02 0 0 Z " fill="#2A2021" transform="translate(745,889)"/>
<path d="M0 0 C0.99 0.66 1.98 1.32 3 2 C1.2984375 2.4021875 1.2984375 2.4021875 -0.4375 2.8125 C-1.613125 3.204375 -2.78875 3.59625 -4 4 C-4.33 4.99 -4.66 5.98 -5 7 C-5.99 6.34 -6.98 5.68 -8 5 C-4.04 2.525 -4.04 2.525 0 0 Z " fill="#4AADD3" transform="translate(544,112)"/>
<path d="M0 0 C2 3 2 3 2 5 C2.66 5 3.32 5 4 5 C3.67 7.31 3.34 9.62 3 12 C0.97649676 8.96474514 0.67875982 7.80573798 0.375 4.3125 C0.30023438 3.50425781 0.22546875 2.69601562 0.1484375 1.86328125 C0.09945313 1.24839844 0.05046875 0.63351562 0 0 Z " fill="#6AA3BA" transform="translate(285,576)"/>
<path d="M0 0 C3.28788824 3.11016455 5.83735988 6.01618925 8 10 C4.63362603 8.5572683 2.33497429 6.83532593 0 4 C0 2.68 0 1.36 0 0 Z " fill="#549DC4" transform="translate(574,264)"/>
<path d="M0 0 C0.66 0.33 1.32 0.66 2 1 C1.01 1.33 0.02 1.66 -1 2 C-1.33 2.99 -1.66 3.98 -2 5 C-3.29355827 6.37195574 -4.62298702 7.71182656 -6 9 C-6.66 8.67 -7.32 8.34 -8 8 C-7.04578192 6.85073734 -6.08647955 5.70569459 -5.125 4.5625 C-4.59132813 3.92441406 -4.05765625 3.28632813 -3.5078125 2.62890625 C-2 1 -2 1 0 0 Z " fill="#CAE6F0" transform="translate(793,254)"/>
<path d="M0 0 C0.66 0.33 1.32 0.66 2 1 C2 2.32 2 3.64 2 5 C-0.31 5 -2.62 5 -5 5 C-3.35 3.35 -1.7 1.7 0 0 Z " fill="#243F46" transform="translate(557,892)"/>
<path d="M0 0 C0.98726527 2.66561622 1.0275526 3.90126985 0.25 6.6875 C-1 9 -1 9 -4 10 C-2.8905928 6.51329166 -1.73662334 3.22515763 0 0 Z " fill="#59ABCC" transform="translate(325,413)"/>
<path d="M0 0 C0.33 0.99 0.66 1.98 1 3 C-1.31 4.98 -3.62 6.96 -6 9 C-6.66 8.67 -7.32 8.34 -8 8 C-5.36 5.36 -2.72 2.72 0 0 Z " fill="#50ABC5" transform="translate(657,269)"/>
<path d="M0 0 C0.99 0.33 1.98 0.66 3 1 C0.69 3.31 -1.62 5.62 -4 8 C-4 4.09161134 -2.49432124 2.88405893 0 0 Z " fill="#70BBDB" transform="translate(595,857)"/>
<path d="M0 0 C3.37503669 1.1858237 5.64722731 2.27573689 8 5 C7.67 5.66 7.34 6.32 7 7 C6.01 6.34 5.02 5.68 4 5 C4 4.34 4 3.68 4 3 C2.35 2.67 0.7 2.34 -1 2 C-0.67 1.34 -0.34 0.68 0 0 Z " fill="#2B2229" transform="translate(707,842)"/>
<path d="M0 0 C0.66 0.66 1.32 1.32 2 2 C3.98821313 2.39764263 5.98944339 2.73775349 8 3 C8 3.33 8 3.66 8 4 C4.37 4 0.74 4 -3 4 C-2.01 2.68 -1.02 1.36 0 0 Z " fill="#EAEFF6" transform="translate(638,814)"/>
<path d="M0 0 C0.66 0 1.32 0 2 0 C2 0.66 2 1.32 2 2 C3.32 2 4.64 2 6 2 C6 3.65 6 5.3 6 7 C1.125 3.375 1.125 3.375 0 0 Z " fill="#598CA6" transform="translate(324,754)"/>
<path d="M0 0 C3.14737182 0.69941596 6.02588876 1.76078698 9 3 C9 3.33 9 3.66 9 4 C6.69 4 4.38 4 2 4 C1.34 2.68 0.68 1.36 0 0 Z " fill="#63AED0" transform="translate(590,132)"/>
<path d="M0 0 C0.99 0.33 1.98 0.66 3 1 C1.68 2.32 0.36 3.64 -1 5 C-1.66 4.67 -2.32 4.34 -3 4 C-2.67 3.01 -2.34 2.02 -2 1 C-1.34 0.67 -0.68 0.34 0 0 Z " fill="#53A8CB" transform="translate(580,871)"/>
<path d="M0 0 C0.66 0 1.32 0 2 0 C2 0.99 2 1.98 2 3 C2.66 3 3.32 3 4 3 C4 4.65 4 6.3 4 8 C3.34 8 2.68 8 2 8 C1.34 5.36 0.68 2.72 0 0 Z " fill="#6095B4" transform="translate(127,434)"/>
<path d="M0 0 C6.75 2.75 6.75 2.75 9 5 C5.93606987 5.25532751 4.36766788 5.21861333 1.6875 3.625 C1.130625 3.08875 0.57375 2.5525 0 2 C0 1.34 0 0.68 0 0 Z " fill="#E4E5E9" transform="translate(779,216)"/>
<path d="M0 0 C0.66 0.33 1.32 0.66 2 1 C-3.14285714 6.57142857 -3.14285714 6.57142857 -7 7 C-4.78071806 4.09197539 -3.07030857 2.04687238 0 0 Z " fill="#53ACCF" transform="translate(443,120)"/>
</svg>
