<?xml version="1.0" standalone="no"?>
<!DOCTYPE svg PUBLIC "-//W3C//DTD SVG 20010904//EN"
 "http://www.w3.org/TR/2001/REC-SVG-20010904/DTD/svg10.dtd">
<svg version="1.0" xmlns="http://www.w3.org/2000/svg"
 width="1024.000000pt" height="1024.000000pt" viewBox="0 0 1024.000000 1024.000000"
 preserveAspectRatio="xMidYMid meet">

<g transform="translate(0.000000,1024.000000) scale(0.100000,-0.100000)"
fill="#000000" stroke="none">
<path d="M2915 8989 c-130 -9 -180 -19 -339 -65 -353 -103 -626 -291 -805
-554 -118 -173 -203 -358 -250 -545 -64 -255 -62 -139 -59 -2430 l3 -2080 23
-80 c57 -201 148 -403 241 -538 74 -106 201 -249 284 -317 88 -73 293 -195
408 -244 86 -36 191 -66 310 -88 47 -8 656 -12 2294 -15 2441 -4 2277 -7 2555
54 268 59 516 199 731 413 228 228 374 493 440 803 l22 102 1 2015 c0 1108 -3
2048 -7 2088 -24 236 -86 460 -176 641 -172 343 -434 584 -783 722 -174 69
-223 83 -388 110 -110 18 -209 19 -2255 17 -1177 0 -2189 -4 -2250 -9z m3859
-905 c205 -33 417 -114 542 -207 33 -25 93 -80 134 -122 179 -182 276 -390
310 -665 13 -107 14 -2882 1 -2925 -5 -17 -21 -69 -35 -118 -39 -133 -196
-426 -248 -465 -14 -10 -15 -18 -7 -38 7 -20 6 -25 -3 -21 -10 3 -12 -12 -10
-66 6 -113 -2 -134 -71 -200 -73 -69 -166 -132 -258 -176 -69 -32 -293 -92
-414 -110 -96 -14 -3053 -16 -3223 -1 -178 15 -318 51 -476 124 -78 36 -170
111 -159 129 3 6 1 7 -5 3 -8 -4 -16 4 -23 21 -7 19 -7 29 0 31 6 2 11 11 11
20 0 19 21 80 34 100 4 7 15 11 25 7 9 -3 -16 27 -55 67 -164 167 -288 386
-346 608 l-33 125 -3 1405 c-3 1531 -4 1501 54 1720 27 102 99 254 145 308 16
18 29 37 29 42 0 4 18 27 40 50 22 23 46 49 53 59 22 30 166 132 250 176 74
40 165 73 287 107 34 9 398 13 1545 18 825 3 1569 6 1654 8 103 1 187 -3 255
-14z"/>
<path d="M3341 7449 c-95 -19 -196 -108 -227 -202 -49 -145 3 -289 124 -348
38 -20 63 -24 137 -24 107 0 154 18 226 88 38 36 51 59 69 116 21 65 22 77 11
126 -15 67 -80 167 -133 205 -21 16 -62 33 -89 39 -56 12 -57 12 -118 0z"/>
<path d="M6739 7446 c-86 -33 -142 -85 -190 -176 -27 -52 -32 -154 -10 -230
18 -63 99 -141 166 -161 72 -20 180 -17 237 9 60 26 143 114 163 171 60 176
-82 386 -269 397 -37 2 -75 -2 -97 -10z"/>
<path d="M4310 6459 c-161 -29 -297 -148 -350 -307 -42 -128 -27 -310 36 -434
57 -113 124 -158 347 -235 160 -54 226 -86 276 -132 69 -64 78 -167 21 -253
-40 -60 -85 -80 -191 -86 -105 -5 -161 6 -282 58 -134 57 -156 55 -228 -19
-92 -94 -91 -152 3 -212 142 -91 464 -137 666 -95 95 20 216 85 253 136 16 22
34 39 41 37 6 -1 19 23 28 53 10 30 29 79 43 109 32 68 42 154 28 252 -14 103
-41 159 -108 231 -72 76 -179 130 -379 194 -78 24 -156 54 -175 67 -74 50
-104 173 -65 271 17 42 27 52 70 72 28 12 69 25 92 29 56 9 167 -17 259 -59
117 -54 126 -52 195 54 39 60 41 67 31 100 -6 20 -21 46 -33 57 -30 28 -129
77 -198 97 -67 20 -300 30 -380 15z"/>
<path d="M5695 6431 c-197 -17 -366 -90 -420 -181 -20 -34 -20 -48 -20 -650
l0 -615 28 -51 c40 -72 111 -143 173 -171 l53 -24 358 3 c337 3 360 4 392 23
75 44 97 126 52 198 -39 62 -38 62 -351 63 -295 1 -320 4 -360 44 -18 18 -20
32 -20 174 0 84 3 168 6 185 l7 32 296 -7 c325 -7 351 -4 387 50 34 53 -8 188
-74 232 -30 21 -38 21 -325 16 l-294 -5 -5 144 c-7 182 -3 195 83 238 l62 31
238 0 c277 0 295 4 330 77 34 70 11 149 -52 180 -30 15 -418 24 -544 14z"/>
<path d="M6716 4464 c-74 -23 -159 -112 -182 -189 -32 -111 2 -241 84 -323 76
-76 221 -108 305 -67 22 10 63 40 92 67 44 40 58 62 82 126 68 186 5 338 -162
387 -66 19 -155 18 -219 -1z"/>
<path d="M3287 4456 c-100 -37 -158 -99 -183 -196 -30 -116 2 -232 87 -320 54
-56 109 -80 184 -80 98 0 133 15 200 83 74 76 107 152 106 246 0 104 -61 210
-145 253 -53 28 -192 35 -249 14z"/>
<path d="M2920 3396 c0 -2 8 -10 18 -17 15 -13 16 -12 3 4 -13 16 -21 21 -21
13z"/>
<path d="M7195 3340 c-3 -6 1 -7 9 -4 18 7 21 14 7 14 -6 0 -13 -4 -16 -10z"/>
</g>
</svg>
