<?xml version="1.0" standalone="no"?>
<!DOCTYPE svg PUBLIC "-//W3C//DTD SVG 20010904//EN"
 "http://www.w3.org/TR/2001/REC-SVG-20010904/DTD/svg10.dtd">
<svg version="1.0" xmlns="http://www.w3.org/2000/svg"
 width="1024.000000pt" height="1024.000000pt" viewBox="0 0 1024.000000 1024.000000"
 preserveAspectRatio="xMidYMid meet">

<g transform="translate(0.000000,1024.000000) scale(0.100000,-0.100000)"
fill="#000000" stroke="none">
<path d="M6240 9057 c-42 -13 -94 -34 -115 -47 -51 -31 -145 -103 -145 -111 0
-9 199 -112 360 -188 30 -14 57 -29 60 -32 7 -8 369 -189 378 -189 4 0 0 5 -8
10 -12 8 -11 10 8 10 13 0 22 -5 20 -12 -3 -15 3 -18 32 -18 15 0 22 9 27 30
6 30 18 39 25 18 3 -7 11 -5 25 7 17 14 20 27 17 64 -3 39 -2 42 7 21 6 -14 8
-43 5 -65 -5 -28 -3 -36 4 -25 8 12 10 13 10 1 0 -8 2 -12 5 -9 8 8 -13 134
-31 191 -9 28 -20 45 -26 41 -7 -4 -8 -2 -4 4 9 15 -24 73 -37 65 -6 -3 -7 -1
-3 6 9 14 -63 103 -77 94 -5 -3 -7 -1 -3 5 8 13 -49 60 -113 96 -111 60 -283
74 -421 33z m-203 -137 c1 -11 -2 -20 -8 -20 -10 0 -12 23 -2 33 9 9 9 10 10
-13z"/>
<path d="M7805 7997 c-12 -29 -12 -43 0 -98 24 -113 76 -209 113 -209 8 0 59
45 114 100 l101 101 -23 24 c-27 29 -104 66 -194 94 -89 27 -95 27 -111 -12z"/>
<path d="M6110 7989 c-14 -6 -38 -22 -53 -37 -60 -56 -71 -115 -38 -189 24
-53 55 -73 124 -80 80 -8 120 9 153 64 24 41 26 53 21 112 -4 56 -9 69 -34 89
-57 48 -118 63 -173 41z"/>
<path d="M7080 6821 l-25 -7 -3 -302 -2 -302 22 -4 c13 -3 147 -12 298 -21
458 -26 583 -35 633 -45 26 -6 52 -10 57 -10 11 0 2 99 -16 174 -23 93 -91
213 -161 283 -46 46 -85 73 -155 107 -186 91 -534 159 -648 127z"/>
<path d="M1151 6775 c3 -2 19 -5 36 -7 19 -1 38 -11 49 -25 9 -13 22 -23 27
-23 6 0 -2 14 -18 30 -21 22 -38 30 -64 30 -19 0 -32 -2 -30 -5z"/>
<path d="M1290 6683 c8 -17 8 -23 -1 -23 -6 0 0 -9 13 -20 17 -13 24 -27 23
-45 -2 -14 1 -25 7 -25 6 0 8 7 4 15 -10 28 2 15 28 -29 15 -25 32 -48 39 -53
6 -4 3 6 -7 22 -11 17 -33 51 -49 78 -17 26 -34 47 -39 47 -5 0 -7 4 -4 9 3 4
-1 17 -10 27 -14 18 -15 18 -4 -3z"/>
<path d="M1092 6620 c0 -14 4 -36 8 -50 l8 -25 0 25 c0 14 -4 36 -8 50 l-8 25
0 -25z"/>
<path d="M1111 6514 c0 -11 3 -14 6 -6 3 7 2 16 -1 19 -3 4 -6 -2 -5 -13z"/>
<path d="M1480 6358 c0 -8 35 -69 67 -117 13 -18 21 -37 18 -41 -2 -3 2 -7 10
-7 8 0 11 5 8 11 -39 64 -103 160 -103 154z"/>
<path d="M1611 6143 c12 -21 29 -45 37 -53 7 -8 0 9 -18 38 -17 28 -34 52 -37
52 -2 0 5 -17 18 -37z"/>
<path d="M1660 6065 c0 -5 10 -21 21 -35 13 -17 17 -18 10 -5 -17 33 -31 51
-31 40z"/>
<path d="M1712 5975 c6 -14 15 -25 20 -25 5 0 1 11 -8 25 -9 14 -18 25 -20 25
-2 0 2 -11 8 -25z"/>
<path d="M1830 5786 c0 -11 70 -126 77 -126 2 0 -4 15 -15 33 -11 17 -29 48
-41 67 -11 19 -21 31 -21 26z"/>
<path d="M1926 5612 c-3 -5 1 -9 9 -9 8 0 12 4 9 9 -3 4 -7 8 -9 8 -2 0 -6 -4
-9 -8z"/>
<path d="M1960 5573 c0 -6 8 -17 18 -24 16 -13 16 -13 2 6 -8 11 -16 22 -17
24 -2 2 -3 0 -3 -6z"/>
<path d="M2000 5510 c6 -11 13 -20 16 -20 2 0 0 9 -6 20 -6 11 -13 20 -16 20
-2 0 0 -9 6 -20z"/>
<path d="M2026 5467 c3 -10 9 -15 12 -12 3 3 0 11 -7 18 -10 9 -11 8 -5 -6z"/>
<path d="M1450 5433 c0 -4 5 -15 10 -23 8 -13 10 -13 10 2 0 9 -4 20 -10 23
-5 3 -10 3 -10 -2z"/>
<path d="M2110 5331 c5 -11 15 -23 21 -27 6 -3 3 5 -6 20 -20 30 -30 35 -15 7z"/>
<path d="M2204 5179 c6 -27 19 -51 42 -77 13 -14 24 -31 24 -37 0 -7 7 -15 15
-19 8 -3 -3 24 -27 62 -47 76 -58 90 -54 71z"/>
<path d="M1597 5119 c7 -7 15 -10 18 -7 3 3 -2 9 -12 12 -14 6 -15 5 -6 -5z"/>
<path d="M1625 5070 c9 -16 18 -30 21 -30 2 0 -2 14 -11 30 -9 17 -18 30 -21
30 -2 0 2 -13 11 -30z"/>
<path d="M1665 5000 c9 -16 18 -30 21 -30 2 0 -2 14 -11 30 -9 17 -18 30 -21
30 -2 0 2 -13 11 -30z"/>
<path d="M2300 5022 c0 -5 10 -17 22 -28 l21 -19 -18 28 c-18 28 -25 33 -25
19z"/>
<path d="M2336 4962 c-3 -5 9 -19 26 -32 l30 -22 -23 31 c-25 34 -26 35 -33
23z"/>
<path d="M1708 4924 c11 -22 27 -48 36 -59 15 -20 15 -20 13 3 -1 12 -7 22
-13 22 -6 0 -17 14 -24 30 -7 17 -17 33 -22 36 -5 3 0 -11 10 -32z"/>
<path d="M2398 4885 c5 -11 7 -27 5 -35 -4 -12 -3 -13 5 -1 8 11 11 9 18 -10
4 -13 7 -28 5 -34 -1 -5 1 -7 5 -3 4 4 13 0 21 -10 18 -22 -26 56 -50 89 -12
17 -15 18 -9 4z"/>
<path d="M1780 4812 c0 -27 115 -224 248 -424 113 -170 176 -267 190 -295 7
-12 18 -27 25 -35 7 -7 26 -35 41 -61 16 -26 30 -46 33 -44 5 6 -57 111 -68
115 -5 2 -7 7 -4 11 2 5 -7 23 -20 41 -14 19 -25 42 -25 53 0 10 -9 21 -20 24
-11 3 -20 14 -20 24 0 11 -4 19 -8 19 -4 0 -15 13 -24 28 -13 22 -14 32 -6 40
9 9 7 12 -9 12 -17 0 -20 4 -15 23 5 20 4 21 -11 8 -15 -12 -17 -11 -17 12 0
16 -7 26 -20 30 -13 3 -18 11 -15 25 2 14 -1 19 -9 16 -7 -3 -21 6 -30 20 -9
15 -14 26 -10 26 3 0 -1 11 -10 25 -9 14 -14 29 -11 34 2 5 -2 11 -10 15 -8 3
-15 15 -15 27 0 14 -5 19 -14 16 -15 -6 -30 19 -21 34 4 5 0 7 -7 4 -8 -3 -24
19 -43 60 -16 36 -33 65 -36 65 -4 0 -14 15 -23 33 -8 17 -16 26 -16 19z"/>
<path d="M2505 4700 c-4 -6 -2 -9 3 -8 5 2 19 -8 32 -22 l22 -25 -22 33 c-23
35 -26 37 -35 22z"/>
<path d="M2632 4484 c-8 -9 -22 -12 -33 -9 -15 5 -19 2 -19 -14 0 -12 -4 -21
-10 -21 -5 0 -10 9 -10 20 0 13 -7 20 -20 20 -17 0 -20 -7 -20 -40 l0 -40 40
0 c33 0 40 -3 40 -20 0 -11 7 -20 15 -20 8 0 15 -9 15 -20 0 -16 -7 -20 -35
-20 -34 0 -35 -1 -35 -40 l0 -40 80 0 c57 0 80 4 80 13 1 6 9 2 19 -11 22 -25
33 -11 20 26 -5 13 -5 22 1 22 17 0 11 22 -17 58 -15 20 -21 32 -14 28 10 -6
10 -4 0 12 -7 12 -17 18 -23 15 -5 -3 -6 -1 -2 5 7 11 -40 92 -53 92 -3 -1
-12 -8 -19 -16z m24 -19 c-4 -34 -16 -44 -16 -13 0 21 7 38 16 38 1 0 1 -11 0
-25z"/>
<path d="M2792 4277 c10 -8 16 -16 13 -19 -3 -2 2 -5 10 -5 19 0 10 14 -18 27
-20 10 -20 10 -5 -3z"/>
<path d="M2814 4218 l-19 -23 23 19 c17 15 22 16 22 5 0 -8 10 -20 21 -28 l22
-13 -22 31 c-12 17 -24 31 -25 31 -2 0 -11 -10 -22 -22z"/>
<path d="M2883 4149 c-1 -12 1 -18 5 -15 3 4 16 -10 29 -31 13 -21 23 -34 23
-29 0 9 -48 96 -53 96 -2 0 -3 -10 -4 -21z"/>
<path d="M2982 3920 c0 -14 2 -19 5 -12 2 6 2 18 0 25 -3 6 -5 1 -5 -13z"/>
<path d="M2377 3849 c7 -7 15 -10 18 -7 3 3 -2 9 -12 12 -14 6 -15 5 -6 -5z"/>
<path d="M2506 3657 c3 -10 9 -15 12 -12 3 3 0 11 -7 18 -10 9 -11 8 -5 -6z"/>
<path d="M3043 3590 c-1 -38 3 -72 8 -75 5 -4 9 -15 9 -26 0 -11 -4 -17 -10
-14 -5 3 -10 15 -10 26 0 12 -7 19 -20 19 -19 0 -20 -7 -20 -120 l0 -120 -54
0 c-44 0 -55 -4 -59 -17 -4 -17 -5 -17 -6 0 -1 20 -2 20 -36 7 -16 -6 -24 -6
-20 0 7 11 -24 50 -40 50 -6 0 -16 9 -23 21 -7 12 -16 19 -19 16 -3 -3 16 -33
42 -66 33 -42 52 -58 63 -54 13 4 14 2 4 -4 -10 -8 4 -32 59 -101 68 -87 89
-106 89 -81 0 5 -5 7 -12 3 -8 -5 -9 -2 -5 10 4 10 3 15 -3 11 -6 -3 -11 -1
-11 4 -1 6 -3 20 -4 31 -1 11 -3 29 -4 40 -1 22 -26 27 -34 8 -3 -7 -6 -8 -6
-3 0 6 6 19 15 30 13 17 16 18 25 5 8 -11 12 -12 16 -2 2 7 22 12 44 12 39 0
39 0 39 40 0 22 5 40 10 40 6 0 10 -13 10 -29 0 -16 2 -44 5 -62 4 -27 3 -29
-3 -9 -8 25 -8 25 -14 3 -4 -15 -14 -23 -27 -23 -14 0 -21 -6 -21 -20 0 -11 5
-20 10 -20 6 0 10 -9 10 -20 0 -16 7 -20 34 -20 30 0 34 -4 40 -31 10 -50 8
-52 -25 -45 -18 3 -38 1 -45 -5 -10 -8 -14 -9 -14 0 0 6 5 11 10 11 6 0 10 4
10 9 0 13 -30 22 -45 14 -9 -6 9 -36 66 -108 44 -55 93 -114 109 -132 17 -18
30 -36 30 -40 0 -11 111 -153 121 -153 4 0 -7 42 -25 93 -18 50 -39 123 -45
160 -7 38 -18 85 -26 105 -8 21 -30 102 -50 182 -64 266 -116 455 -126 458 -5
2 -7 7 -4 12 3 4 2 17 -3 29 -5 13 -8 -4 -9 -49z m97 -331 c0 -11 -4 -18 -10
-14 -5 3 -7 12 -3 20 7 21 13 19 13 -6z m-210 -69 c0 -5 -6 -10 -14 -10 -8 0
-18 5 -21 10 -3 6 3 10 14 10 12 0 21 -4 21 -10z m25 -80 c3 -6 -1 -7 -9 -4
-18 7 -21 14 -7 14 6 0 13 -4 16 -10z m162 -12 c-3 -8 -6 -5 -6 6 -1 11 2 17
5 13 3 -3 4 -12 1 -19z m53 -5 c0 -7 -9 -13 -20 -13 -11 0 -20 6 -20 13 0 7 9
13 20 13 11 0 20 -6 20 -13z m-140 -73 c0 -5 -4 -10 -10 -10 -5 0 -10 5 -10
10 0 6 5 10 10 10 6 0 10 -4 10 -10z m258 -325 c-3 -3 -9 2 -12 12 -6 14 -5
15 5 6 7 -7 10 -15 7 -18z"/>
<path d="M2531 3634 c-1 -6 10 -23 24 -38 14 -15 25 -29 25 -32 0 -6 131 -184
135 -184 8 0 -8 35 -27 59 -10 13 -18 29 -18 35 0 6 -25 38 -55 71 -30 33 -55
66 -55 73 0 7 -4 11 -9 8 -5 -4 -12 0 -14 6 -3 8 -6 8 -6 2z"/>
<path d="M3003 3085 c0 -16 24 -28 31 -17 6 10 -6 26 -20 29 -6 1 -11 -4 -11
-12z"/>
<path d="M6295 2013 c-116 -154 -499 -535 -636 -635 -56 -40 -111 -81 -123
-90 -20 -16 15 -17 669 -20 975 -4 1263 -3 1272 6 13 13 -39 146 -91 230 -57
94 -219 261 -309 320 -142 93 -306 165 -452 199 -60 14 -232 37 -279 37 -8 0
-31 -21 -51 -47z"/>
</g>
</svg>
