<?xml version="1.0" standalone="no"?>
<!DOCTYPE svg PUBLIC "-//W3C//DTD SVG 20010904//EN"
 "http://www.w3.org/TR/2001/REC-SVG-20010904/DTD/svg10.dtd">
<svg version="1.0" xmlns="http://www.w3.org/2000/svg"
 width="1024.000000pt" height="1024.000000pt" viewBox="0 0 1024.000000 1024.000000"
 preserveAspectRatio="xMidYMid meet">

<g transform="translate(0.000000,1024.000000) scale(0.100000,-0.100000)"
fill="#000000" stroke="none">
<path d="M4120 7619 c-222 -21 -461 -94 -695 -211 -537 -269 -946 -808 -1056
-1392 l-22 -115 -71 -27 c-512 -192 -910 -633 -1041 -1151 -58 -232 -59 -554
-2 -773 118 -451 410 -841 807 -1078 199 -119 449 -203 693 -234 81 -10 556
-13 2332 -13 l2230 0 127 27 c271 59 539 171 723 303 176 126 353 311 468 490
197 308 293 694 258 1039 -41 395 -200 726 -486 1011 -183 184 -351 291 -599
386 l-100 37 -27 109 c-62 250 -181 456 -371 638 -255 247 -557 359 -918 341
-175 -8 -336 -47 -466 -114 l-40 -20 -99 106 c-186 198 -359 325 -608 447
-336 166 -674 229 -1037 194z m406 -399 c261 -45 533 -166 739 -329 155 -123
285 -270 410 -466 42 -66 78 -121 80 -124 3 -2 24 14 49 37 203 187 458 286
690 268 115 -8 186 -29 304 -86 85 -43 118 -66 197 -142 196 -187 282 -374
307 -665 l11 -132 46 -6 c131 -18 302 -70 416 -127 162 -81 340 -228 446 -367
74 -97 183 -325 216 -451 26 -98 28 -118 27 -300 0 -178 -3 -204 -27 -293
-102 -381 -369 -698 -730 -867 -121 -57 -307 -117 -417 -135 -83 -13 -361 -15
-2262 -15 -2123 0 -2168 0 -2283 20 -301 52 -557 182 -766 390 -258 257 -389
561 -389 900 0 339 129 642 375 878 117 114 214 181 370 258 101 49 174 73
350 110 l40 9 6 130 c12 228 64 418 174 635 81 157 163 268 300 405 137 137
248 219 404 299 317 162 619 217 917 166z"/>
<path d="M3603 5341 c-52 -24 -76 -65 -142 -236 -81 -215 -137 -357 -248 -633
-90 -226 -104 -268 -98 -299 15 -82 111 -123 198 -85 55 24 73 50 113 161 l31
86 220 3 219 2 24 -67 c42 -123 67 -162 113 -184 52 -23 85 -24 136 -3 48 19
71 51 71 99 0 20 -25 99 -56 178 -31 78 -118 306 -194 507 -75 201 -144 379
-153 395 -45 87 -140 118 -234 76z m96 -433 c7 -18 35 -95 62 -170 l49 -138
-130 0 c-72 0 -130 4 -130 8 0 4 21 62 46 127 25 66 53 139 62 163 9 23 19 42
22 42 3 0 12 -15 19 -32z"/>
<path d="M4360 5342 c-19 -9 -43 -32 -54 -51 l-19 -33 31 -102 c41 -135 181
-634 230 -821 49 -187 53 -196 91 -228 73 -61 184 -45 244 35 11 14 40 110 67
215 26 104 69 267 96 362 l48 173 19 -63 c10 -35 51 -200 91 -366 78 -322 89
-348 152 -378 48 -22 139 -16 187 14 44 27 62 63 96 196 36 140 201 706 247
848 35 108 35 109 17 145 -35 69 -138 94 -203 50 -18 -13 -42 -34 -52 -48 -11
-15 -54 -171 -107 -385 -49 -198 -94 -371 -99 -385 -8 -22 -11 -19 -21 35 -7
33 -34 164 -61 290 -99 462 -99 462 -177 497 -82 36 -178 5 -218 -72 -8 -16
-55 -192 -105 -391 -49 -199 -91 -364 -94 -366 -5 -6 -4 -14 -95 372 -39 165
-76 319 -82 341 -28 108 -136 163 -229 116z"/>
<path d="M6480 5350 c-99 -17 -210 -77 -265 -142 -55 -64 -80 -135 -79 -223 1
-98 22 -168 70 -224 50 -58 105 -93 274 -177 192 -94 232 -141 180 -207 -29
-37 -83 -52 -180 -50 -62 1 -108 8 -170 28 -47 15 -96 27 -109 28 -32 2 -62
-41 -92 -130 l-22 -67 29 -23 c93 -75 367 -116 549 -82 134 25 252 106 302
207 25 50 28 68 28 152 0 84 -3 102 -28 152 -40 81 -110 140 -237 199 -58 27
-134 64 -170 82 -97 48 -135 120 -92 173 51 64 174 73 317 24 79 -28 89 -29
110 -16 24 16 55 75 76 145 13 43 12 44 -16 67 -86 68 -322 110 -475 84z"/>
</g>
</svg>
