<?xml version="1.0" standalone="no"?>
<!DOCTYPE svg PUBLIC "-//W3C//DTD SVG 20010904//EN"
 "http://www.w3.org/TR/2001/REC-SVG-20010904/DTD/svg10.dtd">
<svg version="1.0" xmlns="http://www.w3.org/2000/svg"
 width="1024.000000pt" height="1024.000000pt" viewBox="0 0 1024.000000 1024.000000"
 preserveAspectRatio="xMidYMid meet">

<g transform="translate(0.000000,1024.000000) scale(0.100000,-0.100000)"
fill="#000000" stroke="none">
<path d="M2763 8989 c-105 -20 -191 -82 -229 -164 -23 -48 -24 -60 -24 -286 0
-192 3 -246 16 -287 31 -96 116 -167 213 -179 l52 -6 -2 -2151 c-1 -2342 -4
-2181 53 -2356 47 -145 153 -309 266 -410 63 -57 198 -141 276 -171 156 -62
377 -78 539 -40 291 69 558 310 646 581 52 162 50 74 52 2393 l2 2156 43 7
c25 3 63 20 86 37 103 74 110 103 106 434 -3 290 -5 298 -85 375 -73 71 -10
67 -1039 71 -511 3 -948 1 -971 -4z m61 -145 c28 -11 18 -53 -21 -90 l-36 -34
6 -218 c4 -119 4 -227 1 -239 -8 -27 -34 -30 -70 -7 -47 31 -52 55 -54 269 -3
257 -5 238 32 274 41 40 103 60 142 45z m376 -15 c0 -51 -15 -59 -110 -59 -76
0 -89 -2 -93 -17 -3 -10 -5 5 -6 34 l-1 52 73 4 c39 1 87 4 105 5 26 2 32 -2
32 -19z m370 -3 c0 -40 -11 -46 -84 -46 -77 0 -87 4 -105 38 l-12 22 101 0
c80 0 100 -3 100 -14z m-573 -378 c-3 -7 -5 -2 -5 12 0 14 2 19 5 13 2 -7 2
-19 0 -25z m1465 -2515 c2 -1182 0 -2183 -3 -2225 -12 -132 -60 -255 -138
-348 -172 -206 -391 -310 -626 -296 -122 6 -196 25 -300 75 -213 102 -363 279
-428 507 l-22 79 -3 2172 -2 2173 727 3 c401 1 742 3 760 5 l32 2 3 -2147z"/>
<path d="M3229 7636 c-85 -30 -129 -80 -153 -173 -13 -50 -16 -128 -16 -455 0
-448 2 -463 71 -542 80 -91 56 -87 577 -84 505 3 494 2 561 69 61 62 71 99 82
308 6 104 9 305 7 447 -3 287 -3 285 -74 358 -20 21 -60 49 -88 62 l-51 24
-440 -1 c-334 0 -449 -3 -476 -13z m897 -136 c82 -40 79 -25 79 -460 -1 -409
-5 -455 -48 -485 -18 -13 -80 -15 -447 -15 -465 0 -453 -1 -484 59 -8 15 -17
72 -21 127 -10 164 -13 631 -5 677 9 48 63 103 109 110 14 2 194 5 400 6 359
1 376 0 417 -19z"/>
<path d="M3482 7339 c-12 -5 -29 -20 -38 -34 -21 -33 -13 -51 37 -76 49 -26
63 -39 51 -51 -6 -6 -21 -4 -40 6 -29 15 -32 15 -42 -3 -20 -38 -13 -51 29
-51 54 0 90 15 100 42 13 36 2 57 -45 84 -24 14 -44 29 -44 34 0 13 29 20 61
13 29 -6 30 -4 20 14 -12 23 -57 34 -89 22z"/>
<path d="M3270 7240 c0 -55 2 -100 4 -100 2 0 11 -3 20 -6 11 -4 17 3 23 27
12 45 30 48 39 5 6 -33 9 -36 41 -36 19 0 33 3 31 8 -2 4 -10 20 -18 35 -11
22 -11 34 -2 61 17 46 15 60 -11 84 -18 17 -36 22 -75 22 l-52 0 0 -100z m91
50 c24 -14 25 -50 1 -50 -23 0 -42 19 -42 42 0 20 12 23 41 8z"/>
<path d="M3609 7323 c-1 -10 -1 -56 -1 -103 1 -67 4 -86 16 -88 10 -2 16 7 18
30 3 31 6 34 58 46 30 8 56 15 58 17 2 2 1 23 -3 47 -6 39 -11 46 -39 56 -51
19 -106 16 -107 -5z m91 -43 c13 -9 13 -11 0 -20 -27 -17 -60 -12 -60 10 0 22
33 27 60 10z"/>
<path d="M3798 7333 l-28 -4 0 -93 0 -93 43 -6 c57 -8 87 1 87 25 0 16 -6 19
-32 18 -51 -3 -60 -1 -56 13 3 6 18 14 34 17 20 4 30 12 32 27 3 20 0 22 -26
17 -18 -4 -32 -1 -37 5 -11 20 15 41 51 41 22 0 34 5 34 14 0 24 -31 30 -102
19z"/>
<path d="M3966 7310 c-43 -38 -54 -79 -30 -118 20 -34 63 -62 94 -62 27 0 92
38 85 50 -9 15 -55 20 -77 9 -19 -10 -25 -8 -45 15 -48 57 -22 91 61 81 52 -7
56 -6 56 13 0 50 -92 58 -144 12z"/>
<path d="M3456 6979 c-144 -9 -156 -13 -156 -55 0 -47 12 -49 356 -49 l323 0
29 28 c17 16 33 28 37 27 4 -1 9 1 12 3 3 3 -15 15 -39 26 -38 17 -72 21 -234
25 -104 2 -252 0 -328 -5z"/>
<path d="M3587 6820 c-276 -7 -283 -9 -271 -69 4 -21 15 -36 29 -41 12 -4 180
-9 374 -11 l353 -3 14 24 c7 14 13 39 14 57 0 58 15 57 -513 43z"/>
<path d="M3550 5495 c-8 -2 -54 -7 -102 -10 l-87 -7 6 -331 c3 -183 3 -353 -1
-380 -10 -66 -37 -90 -95 -84 -84 9 -81 -7 -84 414 l-2 371 -35 -15 c-19 -9
-44 -18 -56 -20 -19 -4 -22 -14 -27 -116 -11 -186 -8 -1508 3 -1568 11 -57 47
-153 88 -234 14 -28 61 -86 106 -131 136 -135 304 -206 486 -207 92 0 153 17
277 75 91 43 214 165 265 263 73 141 71 103 72 1042 l2 842 -86 40 c-47 23
-105 43 -130 46 -56 5 -579 14 -600 10z m195 -430 c35 -35 33 -76 -6 -109 -37
-31 -39 -31 -89 -6 -44 22 -56 49 -39 82 30 60 93 75 134 33z m-43 -484 c37
-26 58 -58 58 -87 0 -32 -33 -84 -65 -104 -41 -26 -81 -25 -125 1 -50 30 -60
47 -60 104 0 58 18 82 80 109 41 17 61 13 112 -23z m-367 -403 c48 -42 50
-144 3 -180 -29 -22 -60 -23 -103 -2 -67 31 -71 119 -9 173 41 37 73 39 109 9z
m688 -124 c48 -23 80 -74 79 -129 -1 -47 -20 -92 -47 -115 -27 -22 -117 -17
-159 9 -50 31 -66 58 -66 112 0 57 26 94 84 120 50 23 66 23 109 3z"/>
<path d="M5259 8467 c-32 -25 -41 -57 -34 -127 l7 -67 -75 5 c-66 4 -77 2 -96
-17 -11 -11 -21 -34 -21 -49 0 -45 30 -64 109 -70 l69 -5 4 -74 c4 -59 10 -78
28 -98 57 -61 110 -8 110 110 l0 70 72 1 c61 1 74 4 90 23 23 30 23 73 0 94
-14 13 -38 17 -97 17 l-78 0 7 68 c8 81 3 98 -35 117 -34 18 -39 18 -60 2z"/>
<path d="M2205 7885 c-23 -22 -25 -32 -25 -109 l0 -85 -84 6 c-81 6 -85 5
-110 -20 -35 -36 -33 -69 6 -102 31 -26 35 -27 110 -20 l78 6 0 -84 c0 -98 20
-137 69 -137 51 0 66 31 66 130 l0 89 83 -2 c77 -2 85 0 103 22 25 30 24 76
-2 102 -17 17 -31 20 -101 18 l-81 -2 -1 85 c-1 69 -5 90 -20 107 -25 28 -61
27 -91 -4z"/>
<path d="M5438 7653 c-25 -26 -65 -89 -188 -294 -28 -47 -96 -146 -152 -220
-122 -162 -208 -289 -208 -306 0 -19 149 -181 480 -523 157 -162 319 -331 360
-375 242 -259 609 -625 625 -625 22 0 225 199 423 415 172 187 650 686 796
830 134 132 236 253 236 279 0 21 -31 70 -149 232 -94 129 -325 472 -349 519
-12 22 -30 51 -40 64 l-19 24 -895 4 -894 4 -26 -28z m575 -132 l97 -6 -88
-145 c-140 -231 -184 -300 -191 -300 -4 0 -199 384 -229 453 -4 8 269 7 411
-2z m357 -1 c25 0 33 -8 63 -62 18 -35 46 -85 61 -113 35 -63 2 -25 -41 48
-25 42 -40 56 -64 61 -43 8 -75 -11 -149 -91 -35 -37 -60 -61 -55 -53 5 8 29
49 55 90 25 41 51 88 58 103 9 20 17 27 28 23 9 -3 28 -6 44 -6z m275 -8 c6
-4 10 -14 10 -22 -1 -8 5 -27 12 -42 7 -16 11 -28 8 -28 -3 0 5 -11 17 -25 19
-22 68 -126 68 -144 0 -3 -20 29 -45 72 -24 42 -53 90 -63 105 -11 15 -27 42
-36 60 -16 30 -16 32 1 32 10 0 23 -4 28 -8z m415 -64 c-17 -29 -28 -42 -25
-28 4 14 11 29 16 35 13 14 11 45 -3 46 -7 1 -2 4 12 8 14 4 26 4 28 0 2 -4
-11 -32 -28 -61z m-1532 -140 c28 -62 58 -135 67 -163 9 -27 37 -88 62 -134
42 -77 44 -83 22 -75 -13 4 -138 7 -276 6 -139 -1 -253 2 -253 6 0 23 304 470
321 472 3 0 29 -51 57 -112z m1672 34 c0 -5 -7 -17 -15 -28 -14 -18 -14 -17
-4 9 12 27 19 34 19 19z m-822 -48 c25 -17 52 -70 52 -105 0 -38 -31 -87 -65
-103 -18 -9 -55 -16 -81 -16 -44 0 -51 4 -94 48 -27 28 -50 62 -53 81 -7 36 9
71 33 71 9 0 26 8 40 17 48 34 122 37 168 7z m-1095 -568 c15 -30 27 -62 27
-71 0 -9 9 -30 21 -46 11 -16 19 -29 16 -29 -2 0 -47 45 -101 100 l-98 100 55
0 54 0 26 -54z m384 38 c-3 -3 -12 -4 -19 -1 -8 3 -5 6 6 6 11 1 17 -2 13 -5z
m40 0 c-3 -3 -12 -4 -19 -1 -8 3 -5 6 6 6 11 1 17 -2 13 -5z m1073 -10 c0 -10
-4 -12 -12 -7 -7 4 -56 10 -108 14 l-95 6 108 1 c91 2 107 0 107 -14z m-21
-63 c-6 -18 -13 -30 -15 -28 -2 2 1 18 7 36 6 18 13 30 15 28 2 -2 -1 -18 -7
-36z"/>
<path d="M6035 7440 c-3 -5 -1 -10 4 -10 6 0 11 5 11 10 0 6 -2 10 -4 10 -3 0
-8 -4 -11 -10z"/>
<path d="M7479 5874 c-21 -23 -24 -35 -24 -104 l0 -78 -65 4 c-83 7 -130 -15
-144 -64 -8 -29 -6 -37 16 -59 27 -26 29 -27 153 -20 l29 2 4 -75 c4 -89 17
-121 55 -134 24 -9 31 -6 55 17 24 25 27 36 30 111 l4 83 80 -1 c75 -1 81 0
104 27 31 36 30 61 -2 86 -22 17 -41 21 -105 21 l-79 0 0 83 c0 59 -5 89 -16
105 -21 30 -64 29 -95 -4z"/>
<path d="M5211 5832 c-27 -27 -28 -31 -23 -105 l5 -77 -79 0 c-81 -1 -102 -8
-122 -46 -30 -57 18 -90 128 -87 l76 1 -8 -62 c-11 -80 5 -134 45 -156 27 -14
29 -14 52 13 39 44 58 144 36 185 -8 15 -2 17 65 14 71 -3 75 -2 104 26 35 36
37 50 9 86 -19 24 -26 26 -99 26 l-79 0 2 81 c2 77 1 82 -26 105 -36 31 -52
30 -86 -4z"/>
<path d="M5741 4759 c-87 -17 -211 -112 -211 -162 0 -13 13 -43 28 -68 53 -81
145 -149 224 -164 42 -8 78 -38 78 -64 0 -26 -42 -61 -75 -61 -15 0 -50 14
-78 31 -57 35 -101 35 -147 1 -40 -30 -37 -55 12 -95 81 -65 150 -86 242 -73
66 10 159 75 185 129 55 113 -2 200 -169 263 -107 39 -120 48 -120 80 0 53
100 74 164 35 41 -26 68 -27 89 -3 27 30 21 66 -17 100 -52 46 -130 65 -205
51z"/>
<path d="M5260 4749 c-14 -6 -38 -22 -53 -37 l-29 -27 7 26 c8 32 -10 39 -97
39 l-58 0 0 -296 c0 -170 4 -303 10 -313 13 -25 64 -45 95 -37 46 12 55 49 55
226 0 114 4 170 14 194 13 30 80 96 99 96 4 0 25 -11 45 -25 48 -33 77 -32
113 4 36 36 37 60 3 101 -45 53 -137 75 -204 49z"/>
<path d="M6903 4741 c-86 -31 -138 -74 -170 -138 -25 -53 -28 -68 -28 -168 0
-100 2 -115 27 -161 50 -95 158 -168 248 -167 54 0 149 35 191 70 24 20 29 32
27 57 -3 28 -8 32 -56 45 -51 14 -54 13 -105 -12 -29 -15 -59 -27 -68 -27 -43
0 -147 96 -126 117 10 10 102 21 177 22 80 2 146 29 160 66 6 14 13 50 16 80
9 71 -21 135 -83 179 -83 58 -128 66 -210 37z m131 -152 c14 -11 33 -34 42
-50 13 -27 13 -30 -3 -37 -22 -9 -231 -7 -241 2 -13 14 24 60 67 83 55 29 100
29 135 2z"/>
<path d="M7426 4735 c-71 -29 -137 -91 -171 -159 -32 -63 -33 -138 -4 -232 18
-58 30 -78 77 -124 72 -70 119 -93 203 -98 113 -7 181 22 251 106 32 38 28 54
-17 82 -44 27 -61 25 -119 -15 -78 -53 -124 -52 -188 5 -46 40 -68 91 -68 156
0 48 38 111 87 143 64 43 113 40 168 -9 34 -30 111 -30 143 0 30 29 28 37 -20
83 -96 89 -221 112 -342 62z"/>
<path d="M6087 4543 c-14 -422 -13 -639 2 -656 33 -41 146 -41 166 -1 7 13 7
58 1 130 -5 60 -6 127 -2 147 l7 38 42 -31 c79 -56 178 -53 249 9 71 63 99
125 105 235 7 120 -7 182 -58 246 -49 62 -102 90 -169 90 -70 0 -113 -21 -150
-72 l-32 -43 4 48 c3 47 3 48 -32 57 -19 6 -56 10 -81 10 l-46 0 -6 -207z
m356 66 c93 -76 102 -201 22 -281 -43 -44 -86 -53 -137 -30 -61 27 -78 51 -88
123 -14 104 -5 127 70 177 35 23 71 42 80 42 8 0 32 -14 53 -31z"/>
<path d="M5332 4313 c14 -32 39 -65 45 -59 5 5 -45 86 -52 86 -2 0 1 -12 7
-27z"/>
<path d="M5958 3444 c-64 -34 -34 -114 43 -114 46 0 69 21 69 64 0 59 -53 83
-112 50z"/>
<path d="M6639 3411 c-36 -36 -37 -60 -2 -101 25 -30 30 -32 77 -27 58 5 86
32 86 81 0 75 -103 105 -161 47z"/>
<path d="M7095 3405 c-38 -39 -44 -69 -21 -114 15 -29 53 -51 87 -51 12 0 36
15 55 34 46 46 47 96 3 137 -43 40 -79 38 -124 -6z"/>
<path d="M6299 3371 c-16 -16 -29 -39 -29 -51 0 -30 53 -80 85 -80 38 0 90 24
109 51 40 57 -1 109 -86 109 -41 0 -54 -5 -79 -29z"/>
<path d="M3449 2536 c-2 -2 -40 -6 -84 -9 -74 -5 -260 -28 -364 -45 -80 -13
-102 -80 -50 -147 l20 -25 717 0 c467 0 730 4 755 11 48 13 77 45 77 84 0 51
-18 66 -96 75 -38 5 -109 16 -159 25 -49 9 -115 20 -145 25 -53 8 -662 14
-671 6z"/>
<path d="M2623 2470 c-62 -37 -72 -103 -24 -151 53 -52 152 -30 181 41 18 44
-6 95 -55 116 -45 19 -64 18 -102 -6z"/>
<path d="M7538 2474 c-34 -18 -48 -43 -48 -86 0 -97 108 -126 175 -47 41 49
30 105 -25 134 -36 19 -67 19 -102 -1z"/>
<path d="M4920 2452 c-20 -16 -22 -23 -14 -57 6 -23 20 -46 37 -59 28 -21 29
-21 1173 -24 1015 -2 1147 -1 1174 13 49 25 53 101 7 127 -17 10 -263 14
-1188 16 -1121 2 -1167 2 -1189 -16z"/>
</g>
</svg>
