<?xml version="1.0" standalone="no"?>
<!DOCTYPE svg PUBLIC "-//W3C//DTD SVG 20010904//EN"
 "http://www.w3.org/TR/2001/REC-SVG-20010904/DTD/svg10.dtd">
<svg version="1.0" xmlns="http://www.w3.org/2000/svg"
 width="1024.000000pt" height="1024.000000pt" viewBox="0 0 1024.000000 1024.000000"
 preserveAspectRatio="xMidYMid meet">

<g transform="translate(0.000000,1024.000000) scale(0.100000,-0.100000)"
fill="#000000" stroke="none">
<path d="M5938 6660 c-242 -51 -409 -137 -539 -278 -80 -87 -123 -158 -163
-269 -30 -85 -31 -94 -31 -253 0 -162 1 -167 34 -263 57 -163 177 -317 313
-399 102 -61 286 -139 463 -198 302 -99 452 -192 484 -300 44 -147 -30 -297
-170 -346 -44 -15 -82 -19 -204 -19 -170 1 -220 11 -374 77 -104 44 -115 50
-212 120 -37 27 -81 51 -98 54 -37 8 -59 -13 -211 -194 -115 -137 -113 -135
-106 -178 10 -49 47 -88 161 -164 171 -114 293 -169 493 -221 459 -118 980 19
1168 308 19 28 38 54 43 58 6 3 33 48 61 101 106 195 120 434 37 634 -50 121
-95 190 -182 276 -125 124 -261 191 -655 324 -220 74 -290 106 -357 165 -39
34 -54 56 -66 97 -40 128 -31 191 36 262 62 65 100 78 247 84 205 7 372 -36
507 -130 83 -58 103 -63 155 -40 24 10 55 34 69 52 13 17 40 49 60 70 20 21
43 52 50 69 7 16 21 32 31 35 10 2 25 21 34 43 8 21 20 48 27 61 19 40 -16 89
-108 150 -282 189 -694 276 -997 212z"/>
<path d="M4124 6641 c-18 -11 -45 -36 -60 -57 l-29 -37 -1 -941 c0 -871 -2
-945 -18 -1001 -37 -123 -80 -181 -166 -226 -38 -20 -60 -23 -145 -23 -143 1
-276 46 -407 140 -26 18 -54 31 -61 28 -8 -3 -57 -62 -110 -132 -53 -70 -119
-153 -146 -185 -57 -65 -63 -93 -32 -144 49 -80 276 -190 496 -241 372 -86
698 -19 924 191 63 58 157 188 181 250 7 18 26 61 41 97 49 114 62 259 55 585
-3 154 -9 573 -12 930 l-6 650 -24 38 c-14 21 -46 51 -71 68 l-47 29 -165 0
c-146 0 -170 -2 -197 -19z"/>
</g>
</svg>
