<?xml version="1.0" standalone="no"?>
<!DOCTYPE svg PUBLIC "-//W3C//DTD SVG 20010904//EN"
 "http://www.w3.org/TR/2001/REC-SVG-20010904/DTD/svg10.dtd">
<svg version="1.0" xmlns="http://www.w3.org/2000/svg"
 width="1024.000000pt" height="1024.000000pt" viewBox="0 0 1024.000000 1024.000000"
 preserveAspectRatio="xMidYMid meet">

<g transform="translate(0.000000,1024.000000) scale(0.100000,-0.100000)"
fill="#000000" stroke="none">
<path d="M7780 9521 l0 -79 -56 -27 -56 -27 -52 51 c-28 28 -56 51 -61 50 -6
0 -33 -29 -62 -64 l-52 -63 35 -34 c68 -64 76 -82 62 -127 l-13 -41 -86 0 -87
0 -4 -102 c-2 -63 1 -106 7 -110 5 -4 43 -8 82 -8 l73 0 20 -41 c24 -46 26
-40 -48 -121 -40 -42 -39 -44 37 -123 l53 -55 65 59 65 59 39 -26 c38 -25 39
-27 39 -86 0 -34 4 -67 9 -75 6 -10 39 -15 110 -19 l101 -5 2 44 c1 24 2 62 3
84 0 35 4 42 35 57 19 9 40 17 46 18 6 0 37 -24 70 -54 l59 -54 67 65 67 66
-55 62 -54 62 13 39 c14 39 14 39 73 41 32 2 74 5 92 8 l32 6 0 99 c0 54 -4
101 -8 104 -5 3 -45 8 -90 12 l-81 7 -18 45 -17 44 58 56 57 55 -23 26 c-12
14 -38 43 -57 64 l-35 37 -56 -55 -57 -56 -48 25 c-26 14 -54 26 -61 26 -11 0
-14 19 -14 80 l0 80 -110 0 -110 0 0 -79z m188 -257 c160 -66 186 -299 44
-398 -80 -56 -199 -45 -272 27 -44 43 -60 84 -60 155 0 158 152 273 288 216z"/>
<path d="M3290 9485 c0 -75 -2 -85 -18 -85 -9 0 -33 -8 -52 -19 l-35 -19 -39
38 c-21 21 -49 44 -62 51 -22 11 -26 10 -41 -12 -10 -13 -37 -45 -60 -70 l-43
-46 54 -44 c30 -24 57 -50 60 -57 3 -7 -2 -30 -12 -50 l-17 -37 -88 -3 -88 -3
3 -107 3 -107 97 -3 c84 -2 99 -5 108 -22 8 -16 1 -28 -44 -77 l-55 -59 51
-60 c28 -32 54 -60 59 -62 5 -2 35 16 66 40 80 61 78 60 116 42 37 -18 47 -44
47 -127 l0 -38 108 3 107 3 3 71 3 71 41 16 40 16 65 -46 64 -46 23 22 c13 12
37 41 54 65 l31 43 -49 56 c-74 82 -70 88 64 96 78 5 91 8 90 24 0 9 -1 55 -2
101 l-2 84 -85 7 -86 7 -21 41 c-18 35 -18 42 -5 51 8 6 33 28 56 49 l41 37
-52 70 c-29 39 -55 70 -58 70 -3 0 -32 -22 -64 -49 -56 -47 -59 -48 -76 -31
-10 10 -32 21 -49 25 l-31 7 0 79 0 79 -110 0 -110 0 0 -85z m178 -241 c115
-48 167 -191 110 -304 -56 -111 -246 -136 -330 -43 -66 72 -63 212 5 290 58
66 141 88 215 57z"/>
<path d="M5058 9562 l-158 -3 0 -117 0 -117 -41 -13 c-23 -7 -61 -26 -85 -43
-42 -28 -43 -29 -54 -10 -9 18 -129 111 -142 111 -3 0 -35 -39 -72 -87 -36
-49 -80 -105 -98 -126 l-33 -38 80 -78 c44 -43 85 -80 92 -82 9 -3 10 -15 2
-49 -6 -26 -8 -82 -5 -131 l6 -85 -42 -32 c-24 -17 -62 -48 -86 -69 l-42 -38
86 -115 c127 -170 107 -159 194 -99 41 28 76 55 78 60 2 4 25 -8 51 -26 27
-19 62 -38 80 -41 l31 -6 0 -93 c0 -51 3 -107 6 -124 l7 -31 171 2 171 3 2 55
c2 30 5 87 9 126 l5 71 40 12 c21 6 51 22 65 35 l27 23 80 -60 80 -61 36 40
c20 22 67 79 104 127 79 101 80 96 -27 187 -55 47 -63 59 -58 80 8 34 7 144
-1 200 -7 43 -6 46 26 67 19 11 55 46 81 76 l47 55 -73 93 c-40 51 -87 109
-105 128 l-32 36 -33 -30 c-18 -17 -52 -45 -75 -63 l-42 -32 -45 34 c-25 19
-59 37 -76 41 l-30 7 0 113 c0 134 22 121 -202 117z m143 -470 c109 -53 164
-141 163 -262 0 -130 -54 -215 -167 -265 -53 -24 -69 -27 -136 -23 -169 10
-271 115 -272 280 0 78 13 125 51 179 76 106 243 148 361 91z"/>
<path d="M6360 9445 l0 -95 -40 -20 -41 -21 -52 46 c-28 25 -56 45 -62 45 -6
0 -35 -24 -64 -54 l-54 -55 30 -38 c17 -21 40 -47 52 -57 12 -11 21 -29 21
-41 0 -18 -7 -24 -37 -29 -21 -3 -56 -6 -79 -6 l-41 0 -7 -87 c-3 -48 -3 -90
2 -95 5 -5 40 -14 78 -19 38 -6 73 -14 77 -19 5 -4 -15 -32 -42 -62 -28 -31
-51 -60 -51 -66 0 -11 94 -105 110 -110 5 -2 32 15 59 38 49 41 50 42 88 30
21 -7 41 -18 45 -24 4 -6 8 -39 8 -72 0 -74 0 -74 120 -74 101 0 100 -2 100
108 0 43 4 62 13 62 6 0 24 6 39 14 23 12 29 12 38 1 15 -18 104 -75 117 -75
6 0 27 20 47 45 44 53 42 62 -15 135 -37 46 -38 50 -20 60 11 5 33 10 50 10
16 0 41 4 55 10 25 9 26 12 26 94 0 47 -4 87 -9 90 -5 4 -37 9 -70 12 -47 5
-62 11 -67 26 -5 18 6 34 87 125 l20 21 -55 59 -54 58 -29 -26 c-47 -44 -91
-70 -98 -59 -3 5 -24 15 -47 22 l-40 12 7 68 c10 109 12 108 -111 108 l-104 0
0 -95z m183 -262 c40 -20 85 -88 93 -139 20 -138 -150 -237 -265 -153 -90 64
-104 175 -33 251 61 64 132 79 205 41z"/>
<path d="M2054 9503 c-94 -4 -94 -3 -94 -113 l0 -65 -48 -25 -49 -26 -64 58
c-35 32 -67 57 -72 55 -4 -1 -34 -38 -66 -81 l-58 -80 64 -59 c34 -33 63 -65
63 -72 0 -14 -59 -29 -162 -40 l-58 -6 0 -110 0 -109 104 0 c77 0 105 -3 109
-13 3 -7 -24 -43 -60 -80 l-64 -66 68 -72 69 -72 63 53 63 53 34 -17 c19 -9
41 -16 49 -16 12 0 15 -16 15 -77 0 -43 4 -84 8 -91 6 -9 37 -12 118 -10 l109
3 3 81 3 81 37 16 c20 9 44 22 54 29 14 10 25 4 73 -40 31 -29 60 -52 64 -52
9 0 59 54 94 102 l27 37 -50 56 c-27 30 -50 64 -50 75 0 17 7 20 44 20 23 0
71 3 106 7 l63 6 -7 100 c-4 56 -9 104 -12 108 -2 4 -44 10 -94 14 -83 7 -92
9 -110 35 l-19 27 47 31 c74 50 94 70 85 85 -25 40 -96 126 -109 131 -9 3 -23
-2 -32 -12 -10 -11 -36 -34 -59 -51 l-43 -33 -49 24 c-56 26 -61 36 -61 129 0
61 -2 67 -22 73 -13 3 -27 5 -33 4 -5 -1 -47 -4 -91 -5z m133 -369 c64 -37 95
-96 95 -183 0 -95 -29 -145 -107 -184 -73 -37 -142 -31 -217 20 -39 27 -78
101 -78 151 0 99 69 194 157 217 58 16 95 10 150 -21z"/>
<path d="M8768 9013 c-28 -4 -28 -5 -28 -77 l0 -73 -82 -41 c-46 -22 -98 -43
-116 -47 -46 -9 -55 -34 -47 -120 l6 -73 -43 -29 c-36 -24 -43 -35 -46 -66 -3
-30 2 -43 27 -67 19 -20 40 -30 59 -30 23 0 43 -14 88 -58 33 -32 78 -67 101
-78 l42 -19 1 -62 c0 -78 10 -85 123 -81 l82 3 3 73 c3 71 4 72 35 86 18 7 47
25 65 41 31 26 35 27 79 16 58 -15 69 -5 50 42 l-15 35 43 6 c24 4 48 13 55
21 6 8 10 42 8 86 l-3 73 -40 20 c-58 30 -57 51 6 137 16 22 6 57 -29 98 l-28
34 -37 -33 -37 -32 -75 37 -75 38 0 68 c0 61 -2 67 -22 73 -25 6 -105 6 -150
-1z m168 -342 c40 -31 74 -90 74 -129 0 -46 -35 -109 -73 -132 -43 -26 -110
-35 -147 -20 -44 18 -89 69 -101 113 -18 66 15 133 86 179 41 26 121 20 161
-11z"/>
<path d="M4035 8809 c-30 -26 -35 -37 -35 -73 0 -94 108 -132 185 -65 59 52
46 118 -32 158 -39 20 -80 13 -118 -20z"/>
<path d="M7049 8801 c-74 -74 -1 -197 105 -177 46 9 76 47 76 98 0 32 -7 47
-34 74 -46 46 -104 48 -147 5z"/>
<path d="M1298 8526 l4 -74 -45 -17 c-45 -17 -46 -17 -77 5 -17 12 -36 20 -43
17 -7 -2 -20 -26 -29 -52 -16 -42 -16 -50 -3 -75 23 -44 20 -70 -9 -70 -12 0
-37 -5 -55 -11 l-32 -11 3 -87 3 -86 56 -10 c47 -8 66 -18 106 -56 28 -26 65
-54 82 -64 31 -15 33 -19 29 -58 -3 -23 -1 -52 3 -64 8 -22 14 -23 104 -23
l95 0 0 68 0 68 35 13 c19 7 54 35 80 65 44 52 47 53 88 49 23 -3 55 0 71 6
l29 11 -8 83 c-4 45 -11 88 -17 95 -6 6 -28 12 -49 12 l-38 0 -3 83 -3 82 -38
-3 c-38 -4 -126 23 -139 42 -4 6 -8 36 -8 67 0 68 -2 69 -114 69 l-81 0 3 -74z
m170 -239 c30 -27 52 -69 52 -97 0 -35 -39 -99 -70 -115 -52 -27 -94 -20 -140
23 -36 36 -40 43 -40 90 0 40 5 57 26 81 45 54 125 62 172 18z"/>
<path d="M4038 8553 c-28 -7 -34 -52 -12 -92 16 -30 25 -37 56 -39 51 -4 104
42 94 81 -10 43 -75 67 -138 50z"/>
<path d="M3000 8424 c-19 -2 -78 -9 -130 -15 -314 -36 -586 -129 -777 -265
-365 -263 -639 -641 -758 -1049 -64 -219 -82 -506 -44 -702 71 -371 164 -577
379 -845 123 -153 216 -243 350 -338 243 -171 411 -237 757 -295 256 -44 543
-27 846 50 282 71 490 174 758 376 299 224 422 352 846 875 39 49 104 130 145
179 41 50 138 169 216 265 180 222 247 297 385 439 391 399 675 577 1012 632
108 18 351 15 440 -4 100 -22 239 -73 313 -113 164 -91 344 -279 445 -464 96
-175 140 -402 119 -614 -25 -256 -123 -467 -301 -650 -157 -161 -315 -251
-543 -307 -122 -30 -349 -33 -476 -5 -280 60 -483 154 -687 317 -131 104 -426
399 -505 504 -74 99 -94 120 -109 111 -5 -3 -55 -63 -112 -133 -57 -71 -132
-162 -168 -203 -146 -167 -188 -224 -171 -235 6 -4 49 -57 95 -118 87 -116
117 -145 307 -299 195 -158 299 -233 433 -310 163 -95 287 -148 488 -209 544
-166 1054 -127 1537 116 259 131 549 403 702 660 97 162 137 266 186 475 36
154 36 157 37 385 0 260 -8 315 -75 518 -43 128 -142 332 -216 442 -263 393
-672 696 -1047 775 -253 54 -620 62 -862 20 -436 -75 -937 -350 -1315 -722
-215 -210 -389 -408 -605 -683 -82 -104 -196 -242 -252 -305 -57 -63 -136
-162 -175 -220 -107 -158 -255 -336 -379 -454 -209 -201 -369 -304 -590 -381
-283 -99 -464 -106 -732 -29 -143 41 -196 65 -315 143 -205 135 -377 352 -436
551 -31 104 -56 272 -56 377 0 343 173 659 490 897 160 120 383 186 623 186
273 0 475 -61 699 -211 201 -135 313 -238 541 -502 153 -178 213 -240 225
-236 28 11 277 304 388 457 23 31 59 71 81 88 l39 30 -22 17 c-12 9 -118 108
-236 219 -284 271 -357 333 -524 443 -254 167 -366 225 -569 293 -186 63 -246
73 -465 77 -107 2 -211 1 -230 -1z"/>
<path d="M8892 8005 c-94 -40 -86 -192 13 -225 19 -6 48 -9 65 -5 41 9 90 67
90 108 0 83 -95 152 -168 122z"/>
<path d="M2883 6783 l-83 -4 0 -154 0 -155 90 0 c83 0 90 1 90 20 0 16 -7 20
-32 20 -18 0 -50 3 -70 6 -37 6 -38 8 -38 50 l0 43 57 3 c47 2 58 7 61 21 3
17 -2 19 -57 15 l-61 -3 0 48 0 47 54 0 c67 0 86 7 86 31 0 10 -3 18 -7 17 -5
-1 -45 -4 -90 -5z"/>
<path d="M3227 6783 c-4 -3 -7 -13 -7 -21 0 -8 -15 -53 -34 -101 -18 -47 -37
-95 -41 -106 -5 -15 -18 8 -54 100 -31 80 -52 121 -64 123 -14 3 -11 -12 19
-95 55 -152 78 -205 89 -205 10 -1 62 111 103 217 35 89 35 95 14 95 -10 0
-22 -3 -25 -7z"/>
<path d="M3382 6769 c-138 -68 -112 -283 35 -296 88 -9 153 62 153 166 0 65
-26 112 -74 135 -45 21 -62 20 -114 -5z m104 -38 c61 -37 66 -140 9 -197 -36
-36 -97 -33 -136 5 -67 67 -16 209 76 211 11 0 34 -9 51 -19z"/>
<path d="M3930 6775 c-33 -17 -53 -54 -48 -91 2 -22 15 -37 53 -61 89 -58 87
-55 72 -83 -10 -20 -20 -25 -52 -24 -22 0 -48 4 -58 9 -16 6 -18 4 -15 -16 2
-19 11 -25 47 -32 55 -11 86 -3 117 30 47 50 21 97 -77 144 -52 24 -59 40 -33
77 16 24 61 30 94 12 29 -16 38 10 10 32 -26 21 -75 23 -110 3z"/>
<path d="M2492 6624 l3 -156 65 4 c116 9 170 58 170 158 0 102 -56 150 -175
150 l-67 0 4 -156z m143 102 c42 -18 55 -42 55 -100 0 -57 -29 -93 -85 -106
-79 -18 -75 -23 -75 105 l0 115 35 0 c20 0 51 -6 70 -14z"/>
<path d="M3630 6630 c0 -143 1 -150 20 -150 18 0 20 7 20 55 l0 55 35 0 c111
0 165 92 96 161 -27 27 -35 29 -100 29 l-71 0 0 -150z m144 91 c32 -36 -1 -84
-66 -96 l-38 -7 0 61 0 61 43 0 c31 0 49 -6 61 -19z"/>
<path d="M9003 5490 c-32 -13 -63 -81 -63 -136 0 -80 59 -133 137 -121 114 19
138 188 35 241 -39 20 -84 26 -109 16z"/>
<path d="M1215 5346 l7 -84 -54 -26 c-29 -14 -60 -31 -69 -37 -14 -10 -23 -6
-53 24 -20 21 -43 37 -51 37 -8 0 -19 -17 -24 -37 -14 -50 -13 -64 4 -87 8
-11 15 -30 15 -43 0 -21 -5 -23 -45 -23 -55 0 -60 -9 -69 -117 l-6 -82 37 -6
c85 -14 93 -17 93 -33 0 -9 -25 -42 -56 -73 l-57 -57 44 -63 c24 -34 49 -64
55 -66 6 -2 40 17 75 43 l63 47 41 -14 40 -14 5 -77 c3 -43 8 -79 10 -81 3 -3
47 -7 97 -9 105 -5 97 -11 108 89 7 67 14 77 60 87 24 5 41 0 78 -24 26 -16
55 -30 63 -30 22 0 93 80 94 104 0 11 -17 40 -38 65 -43 51 -66 90 -59 98 3 2
38 9 78 14 40 5 73 10 74 11 1 2 -1 41 -4 88 l-6 85 -62 9 -62 9 35 69 c19 38
34 80 32 91 -3 19 -8 22 -48 19 -133 -8 -166 -6 -195 8 -30 16 -30 16 -28 93
l3 77 -116 0 -116 0 7 -84z m189 -252 c45 -22 78 -75 84 -134 9 -101 -82 -189
-185 -177 -111 12 -175 131 -129 240 35 84 136 115 230 71z"/>
<path d="M4778 5183 c-27 -4 -28 -7 -28 -61 0 -31 -3 -74 -6 -94 -6 -33 -11
-39 -60 -58 -29 -12 -59 -28 -65 -36 -10 -12 -25 -2 -89 61 -43 41 -81 75 -84
75 -4 0 -45 -39 -91 -87 l-84 -88 85 -80 85 -80 -21 -50 -22 -50 -101 3 -102
3 3 -118 c3 -122 6 -144 19 -142 4 1 49 1 99 0 l91 -1 12 -37 c7 -21 14 -43
17 -49 3 -7 -14 -23 -38 -37 -24 -14 -65 -45 -93 -70 l-49 -44 72 -96 c39 -52
76 -98 82 -102 9 -6 115 80 180 146 l25 26 41 -22 c23 -12 50 -24 61 -27 18
-5 21 -17 27 -109 4 -57 8 -105 10 -106 4 -4 257 -5 262 -1 2 3 8 48 13 101
10 102 14 117 35 117 7 0 29 11 48 24 l36 24 68 -55 c38 -30 85 -70 104 -88
l35 -34 78 102 77 102 -47 42 c-27 23 -65 52 -85 65 -25 15 -36 28 -32 38 3 8
8 32 11 53 l6 37 103 0 104 0 0 83 c0 45 -3 106 -6 135 l-7 52 -91 0 -91 0
-23 40 -23 40 33 37 c46 52 111 113 121 113 5 0 -26 41 -69 90 -42 50 -81 90
-88 90 -6 0 -41 -30 -78 -67 l-68 -67 -55 27 c-31 15 -64 27 -75 27 -19 0 -20
7 -20 99 0 81 -3 100 -16 105 -17 6 -191 6 -236 -1z m189 -388 c72 -21 146
-84 179 -151 23 -48 26 -63 22 -123 -9 -118 -70 -202 -185 -253 -57 -25 -150
-28 -204 -5 -93 39 -159 136 -167 249 -6 92 11 149 61 199 85 85 190 115 294
84z"/>
<path d="M8587 5068 l5 -93 -52 -33 c-58 -37 -51 -40 -134 41 -27 26 -55 47
-63 47 -18 0 -105 -81 -123 -115 -13 -25 -11 -28 58 -98 40 -40 72 -77 72 -83
0 -24 -47 -54 -86 -54 -21 0 -55 -3 -74 -6 l-35 -6 -1 -104 c-1 -120 -9 -112
111 -116 l70 -3 3 -32 c3 -28 -4 -37 -62 -84 -36 -29 -66 -57 -66 -62 0 -14
112 -158 127 -164 7 -3 49 27 93 67 74 67 82 71 98 57 9 -9 29 -20 45 -26 26
-10 27 -13 27 -83 0 -124 -5 -119 119 -116 l106 3 7 45 c4 25 10 66 13 92 4
33 11 49 24 53 10 3 29 14 41 25 22 19 23 19 54 -2 17 -12 57 -47 90 -78 l59
-55 21 29 c11 16 40 53 64 82 23 29 42 56 42 61 0 5 -29 38 -65 73 -47 47 -65
72 -65 91 0 26 1 26 87 32 47 4 89 10 93 14 4 4 5 59 2 121 l-4 114 -79 -7
-79 -7 -20 45 -20 46 55 58 c30 32 55 61 55 65 0 12 -111 138 -122 138 -5 0
-34 -22 -64 -49 l-53 -49 -65 31 -65 32 -3 75 -3 75 -121 3 -121 3 4 -93z
m206 -269 c75 -21 157 -126 157 -202 0 -192 -195 -307 -348 -203 -25 17 -54
48 -66 70 -25 49 -32 132 -16 181 17 53 76 114 135 141 56 26 82 29 138 13z"/>
<path d="M6376 4683 c-15 -171 -10 -159 -83 -183 -36 -11 -82 -32 -104 -45
-21 -14 -42 -25 -45 -25 -4 0 -42 35 -86 78 -43 42 -83 78 -87 80 -4 1 -20
-13 -35 -32 -14 -19 -71 -78 -126 -132 l-100 -97 81 -84 c57 -58 80 -88 76
-100 -3 -10 -16 -45 -30 -78 -13 -33 -27 -68 -30 -77 -6 -16 -21 -18 -134 -18
l-128 0 2 -217 3 -218 124 -3 c137 -3 128 2 141 -75 3 -20 14 -56 24 -79 l17
-42 -90 -89 -91 -89 25 -16 c14 -8 50 -42 80 -75 181 -197 176 -192 203 -178
14 7 58 46 99 86 l73 72 32 -24 c17 -13 62 -34 100 -46 l68 -22 8 -115 c5 -63
13 -119 18 -125 16 -16 379 -13 396 3 9 10 13 46 13 126 l0 113 58 21 c31 12
77 34 101 49 l44 28 84 -82 c46 -45 92 -85 103 -88 16 -5 32 6 73 51 28 31 59
67 67 80 23 34 84 98 116 122 l29 21 -90 90 -89 91 13 32 c8 18 23 60 35 93
l22 60 122 -3 123 -3 -7 218 c-3 120 -9 220 -11 223 -3 3 -56 7 -118 9 l-114
3 -17 52 c-9 28 -25 68 -36 89 l-18 37 51 68 c28 37 64 79 81 93 l30 27 -115
115 c-62 63 -124 120 -135 126 -19 10 -30 4 -100 -64 l-79 -75 -59 30 c-32 17
-82 36 -110 42 l-52 12 -4 107 c-2 59 -5 110 -8 112 -3 2 -93 8 -201 11 l-197
7 -6 -78z m309 -448 c97 -25 164 -64 235 -134 128 -130 170 -262 140 -444 -35
-218 -232 -394 -464 -413 -88 -8 -159 6 -240 47 -73 37 -116 73 -176 149 -59
72 -88 140 -102 238 -33 235 111 462 344 543 96 33 172 37 263 14z"/>
<path d="M2512 4693 c-13 -63 -31 -182 -40 -267 l-7 -68 -81 -27 c-44 -15 -95
-37 -111 -49 -17 -12 -34 -22 -38 -22 -3 0 -63 52 -133 116 -132 121 -162 140
-190 125 -10 -5 -68 -63 -131 -129 -62 -66 -144 -146 -181 -177 l-69 -58 42
-60 c23 -33 84 -102 136 -153 l95 -94 -22 -39 c-12 -21 -28 -65 -35 -97 l-13
-59 -65 -13 c-35 -7 -120 -21 -188 -30 l-125 -18 3 -264 c1 -146 5 -268 9
-271 4 -4 70 -14 147 -23 205 -25 215 -27 215 -42 0 -18 28 -100 53 -152 l20
-43 -24 -26 c-13 -15 -70 -76 -126 -137 -57 -60 -103 -115 -103 -122 0 -12
348 -362 376 -377 24 -13 52 1 127 66 201 175 204 178 219 160 17 -21 127 -73
153 -73 18 0 22 -10 32 -67 20 -115 60 -300 67 -312 5 -8 81 -11 256 -11 l248
0 11 33 c9 29 56 217 77 310 8 35 14 41 65 61 31 13 72 32 90 42 l34 20 128
-105 c124 -102 175 -141 188 -141 10 0 389 380 389 390 0 12 -63 89 -163 199
-78 87 -84 96 -72 115 9 15 69 179 70 193 0 1 79 8 174 17 118 10 177 19 182
28 5 7 6 126 3 263 -2 138 -5 255 -4 261 0 16 -55 30 -221 56 l-145 22 -18 60
c-9 33 -26 78 -37 99 l-19 40 73 85 c146 171 158 186 167 202 7 14 -23 48
-158 177 -189 183 -224 213 -243 213 -8 0 -70 -54 -139 -120 -69 -66 -129
-120 -133 -120 -5 0 -45 18 -91 40 -45 22 -94 40 -108 40 -25 0 -26 4 -38 83
-16 113 -49 247 -66 275 -14 22 -16 22 -258 22 l-244 0 -10 -47z m433 -738
c147 -38 292 -150 393 -305 66 -100 87 -181 86 -325 -1 -132 -9 -174 -60 -284
-62 -135 -237 -282 -394 -332 -90 -29 -235 -36 -323 -15 -212 50 -396 223
-468 441 -34 102 -32 277 5 390 65 203 244 372 454 430 66 19 235 18 307 0z"/>
<path d="M7725 4611 c-45 -31 -65 -62 -65 -104 0 -53 26 -93 77 -118 36 -18
48 -19 75 -10 75 26 111 95 88 165 -23 70 -117 106 -175 67z"/>
<path d="M7738 4224 c-26 -25 12 -58 80 -69 37 -6 42 -5 42 13 0 10 -9 27 -19
36 -21 19 -91 33 -103 20z"/>
<path d="M1295 4179 c-4 -6 -5 -12 -2 -15 2 -3 7 2 10 11 7 17 1 20 -8 4z"/>
<path d="M1320 4152 c6 -13 14 -21 18 -18 3 4 -2 14 -12 24 -18 16 -18 16 -6
-6z"/>
<path d="M1252 4125 c-12 -14 -22 -27 -22 -30 0 -10 48 26 54 41 8 22 -8 17
-32 -11z"/>
<path d="M8320 3930 l-145 -5 -11 -70 c-18 -116 -22 -124 -60 -131 -18 -3 -56
-23 -85 -44 -51 -39 -75 -45 -194 -53 l-40 -2 1 -62 c0 -35 7 -69 14 -78 9
-11 14 -71 16 -217 l3 -201 -50 -56 c-85 -96 -59 -134 79 -114 42 7 84 14 93
18 10 4 33 -9 62 -36 26 -22 69 -51 95 -64 l47 -23 10 -113 10 -114 157 -3
c181 -3 173 -8 183 98 14 149 13 147 45 154 17 3 50 24 74 46 l43 40 100 0
c126 0 137 8 103 79 -21 46 -23 63 -24 256 l-1 206 28 27 c34 32 57 74 68 120
11 48 -19 77 -70 68 -20 -3 -65 -9 -101 -12 -64 -6 -66 -6 -115 32 -27 20 -68
43 -90 49 l-40 12 -5 89 c-5 96 -12 115 -38 112 -9 -1 -82 -5 -162 -8z m128
-366 c67 -33 135 -110 162 -182 54 -143 -12 -309 -152 -384 -36 -19 -58 -23
-138 -23 -85 0 -100 3 -141 27 -55 33 -90 72 -126 142 -34 66 -37 159 -6 226
23 52 109 150 159 180 76 48 164 53 242 14z"/>
<path d="M4838 3573 c-52 -3 -78 -8 -79 -16 -1 -7 -4 -61 -8 -121 l-6 -109
-37 -13 c-20 -7 -65 -31 -98 -54 l-61 -41 -39 35 c-42 38 -89 71 -93 65 -23
-35 -92 -120 -112 -139 -37 -35 -31 -60 30 -128 56 -61 56 -61 40 -91 -8 -17
-19 -47 -23 -68 -9 -42 6 -39 -144 -31 -36 1 -68 1 -71 -2 -2 -3 -7 -62 -9
-132 l-5 -126 123 -7 123 -7 13 -37 c17 -49 18 -48 -24 -74 -20 -12 -59 -44
-87 -70 -48 -45 -62 -67 -42 -67 5 0 44 -45 86 -100 43 -55 80 -100 82 -100 2
0 27 19 56 43 28 23 70 53 92 67 22 13 43 28 46 32 3 5 29 -7 58 -27 29 -19
61 -35 71 -35 15 0 18 -14 25 -116 7 -110 8 -116 32 -125 13 -5 91 -9 172 -9
l148 0 6 38 c4 20 9 71 13 112 8 84 13 95 52 103 15 3 45 21 68 40 l40 35 50
-31 c27 -18 68 -47 91 -64 22 -18 43 -33 46 -33 2 0 16 17 30 39 14 21 50 65
81 98 l55 60 -32 30 c-27 24 -48 41 -115 89 -2 1 4 27 13 58 l16 55 117 3 117
3 -2 25 c0 14 -5 74 -9 134 l-7 109 -82 -6 c-45 -3 -87 -7 -95 -9 -9 -2 -16
10 -20 34 -4 20 -15 49 -25 64 l-18 28 34 28 c19 16 51 36 71 46 55 25 51 53
-18 132 -31 35 -68 81 -81 102 -14 21 -32 38 -39 38 -8 0 -33 -21 -56 -46 -64
-70 -69 -71 -130 -24 -29 22 -74 48 -99 57 l-46 17 -6 113 c-4 63 -9 118 -12
123 -6 9 -94 10 -267 3z m244 -501 c88 -43 142 -93 175 -160 23 -48 28 -69 27
-132 -2 -148 -68 -251 -202 -317 -68 -34 -84 -38 -152 -38 -68 0 -84 4 -153
38 -63 31 -83 47 -117 95 -54 75 -74 146 -67 237 3 39 12 88 20 108 17 39 84
116 129 148 94 67 230 75 340 21z"/>
<path d="M7190 2637 c0 -112 -4 -122 -54 -141 -24 -9 -58 -27 -76 -41 l-33
-25 -58 55 c-73 69 -94 71 -154 10 -25 -24 -45 -52 -45 -62 0 -10 30 -48 66
-84 l66 -67 -26 -80 -27 -79 -92 4 c-128 7 -125 9 -119 -148 l4 -126 61 -7
c33 -3 83 -6 112 -6 l52 0 11 -49 11 -49 -64 -66 c-39 -39 -65 -75 -65 -87 0
-23 122 -149 145 -149 7 0 45 30 84 66 l71 66 52 -26 c29 -14 58 -26 65 -26 9
0 13 -29 15 -107 l3 -108 145 -2 c80 -2 151 1 159 6 10 7 16 36 19 98 4 89 14
123 33 123 6 0 24 9 40 21 l30 21 42 -27 c23 -16 63 -46 90 -68 56 -46 50 -49
136 63 l61 78 -65 59 -64 58 16 63 16 62 97 0 97 0 6 83 c4 45 7 104 7 130 l0
49 -95 -4 c-95 -3 -96 -3 -101 22 -3 14 -14 53 -25 87 -23 72 -22 77 47 154
55 62 55 85 -1 116 -54 31 -94 29 -141 -5 -77 -56 -75 -56 -158 -11 l-76 41 0
88 0 88 -127 6 c-71 4 -143 8 -160 11 l-33 4 0 -82z m285 -326 c66 -30 121
-86 157 -159 29 -59 33 -76 33 -147 -1 -130 -54 -213 -172 -271 -49 -25 -70
-29 -138 -29 -103 1 -168 28 -230 97 -109 121 -107 307 3 421 34 36 124 89
182 108 35 11 117 1 165 -20z"/>
<path d="M5918 2441 l-3 -84 -40 -12 c-58 -17 -137 -59 -162 -87 -12 -12 -31
-43 -42 -68 -12 -25 -32 -60 -46 -79 -23 -31 -25 -43 -25 -131 l0 -98 47 -23
c26 -13 49 -29 51 -36 2 -7 -18 -35 -43 -62 -26 -28 -45 -55 -43 -60 6 -18
111 -91 130 -91 11 0 40 16 64 35 l46 34 34 -22 c32 -21 34 -25 34 -79 0 -31
4 -68 10 -82 9 -26 10 -26 124 -26 132 0 126 -6 126 117 l0 71 38 12 c20 7 41
16 45 20 5 4 37 -12 72 -36 34 -24 69 -44 76 -44 18 1 109 87 109 103 0 7 -23
35 -51 62 -88 87 -87 105 9 105 l52 0 0 105 0 105 -27 6 c-71 15 -71 16 -25
86 26 41 25 77 -5 111 -22 23 -36 22 -91 -13 l-47 -29 -35 33 c-19 19 -54 43
-77 55 l-42 21 -3 82 -3 83 -127 0 -127 0 -3 -84z m250 -286 c84 -56 112 -145
73 -230 -60 -129 -222 -165 -328 -72 -80 70 -92 168 -30 249 71 92 193 115
285 53z"/>
<path d="M8509 2377 c-24 -18 -61 -46 -82 -61 -21 -15 -51 -52 -68 -82 -37
-64 -36 -64 -108 -78 l-56 -11 -3 -99 c-2 -62 1 -103 9 -112 6 -7 37 -16 68
-20 54 -6 60 -9 92 -53 19 -25 55 -59 81 -76 37 -24 49 -39 59 -75 l14 -45 72
-3 c40 -2 87 1 105 6 29 7 34 14 42 51 7 34 16 46 46 61 49 25 99 78 108 115
8 30 9 30 74 30 91 0 98 8 98 114 0 47 -4 93 -9 100 -6 10 -32 16 -73 19 l-63
4 -24 54 c-25 57 -71 105 -127 132 -19 8 -34 21 -34 27 0 20 -49 35 -114 35
-55 0 -68 -4 -107 -33z m185 -207 c47 -29 80 -92 73 -143 -14 -102 -122 -164
-212 -121 -48 23 -95 87 -95 130 0 61 38 125 85 144 38 16 116 11 149 -10z"/>
<path d="M3706 1992 c-9 -17 -37 -48 -62 -69 -25 -21 -61 -59 -79 -85 -34 -47
-35 -47 -97 -50 l-63 -3 -23 -90 c-12 -49 -20 -101 -17 -113 10 -39 53 -72 94
-72 33 0 44 -8 99 -69 38 -42 76 -75 97 -82 31 -12 35 -17 35 -49 0 -59 56
-100 137 -100 67 0 103 30 110 90 5 40 11 48 52 75 25 17 61 50 80 75 34 45
41 47 94 34 23 -5 34 0 72 38 51 52 55 72 23 138 -12 25 -24 68 -27 95 l-6 50
-72 7 -71 7 -95 97 -94 97 -86 5 -85 4 -16 -30z m168 -206 c39 -16 82 -69 97
-117 14 -48 -5 -110 -47 -150 -29 -28 -43 -33 -91 -37 -49 -3 -64 0 -93 20
-95 65 -108 180 -28 255 46 43 104 53 162 29z"/>
<path d="M8218 1587 c-49 -41 -60 -85 -33 -137 33 -64 114 -78 170 -29 62 55
44 134 -42 178 -33 17 -65 13 -95 -12z"/>
<path d="M2778 1507 c-60 -51 -66 -121 -14 -173 46 -46 100 -48 150 -3 63 55
57 129 -13 176 -43 29 -88 29 -123 0z"/>
<path d="M4484 1481 c-39 -24 -68 -90 -54 -125 14 -39 77 -76 128 -76 113 0
144 152 42 205 -39 20 -79 19 -116 -4z"/>
<path d="M4845 1467 c-39 -39 -46 -86 -20 -137 39 -75 180 -55 215 30 25 61
-31 128 -116 138 -39 4 -47 1 -79 -31z"/>
<path d="M5276 1469 c-84 -66 -64 -173 37 -200 83 -22 147 25 147 108 0 38 -5
50 -34 79 -29 29 -41 34 -79 34 -30 0 -53 -7 -71 -21z"/>
</g>
</svg>
