<?xml version="1.0" standalone="no"?>
<!DOCTYPE svg PUBLIC "-//W3C//DTD SVG 20010904//EN"
 "http://www.w3.org/TR/2001/REC-SVG-20010904/DTD/svg10.dtd">
<svg version="1.0" xmlns="http://www.w3.org/2000/svg"
 width="1024.000000pt" height="1024.000000pt" viewBox="0 0 1024.000000 1024.000000"
 preserveAspectRatio="xMidYMid meet">

<g transform="translate(0.000000,1024.000000) scale(0.100000,-0.100000)"
fill="#000000" stroke="none">
<path d="M3085 9057 l-27 -22 1 -584 c1 -576 1 -584 21 -606 l21 -22 625 2
626 2 21 22 22 22 2 580 2 581 -26 24 -26 24 -618 0 -618 0 -26 -23z m855 -57
c13 -8 15 -61 11 -400 -2 -288 0 -390 8 -390 7 0 28 7 48 15 22 9 67 15 118
15 l83 0 7 40 c4 22 11 40 16 40 5 0 9 16 9 35 0 19 5 35 11 35 5 0 7 5 4 10
-4 6 -10 8 -15 5 -5 -3 -11 -1 -14 4 -4 5 -2 13 4 16 10 6 13 59 10 203 -1 45
3 72 9 72 6 0 10 -8 9 -17 -2 -10 1 -51 5 -91 6 -50 5 -78 -3 -87 -8 -9 -8
-15 0 -20 6 -4 10 -58 10 -142 0 -129 -1 -135 -17 -121 -27 23 -43 13 -31 -20
7 -18 6 -36 -1 -54 l-11 -28 -104 0 c-83 0 -105 -3 -110 -15 -8 -22 -24 -18
-29 8 -2 12 -5 -14 -7 -58 -3 -121 -7 -129 -62 -133 -43 -3 -46 -1 -51 25 -5
27 -7 28 -69 26 -55 -2 -58 -1 -28 7 19 5 47 10 63 12 l27 2 -4 226 c-8 368
-9 711 -2 717 3 4 6 17 6 29 0 18 8 26 33 33 43 12 49 12 67 1z m-322 -45 c16
-60 17 -952 1 -1009 l-11 -38 -46 6 c-25 3 -49 12 -54 19 -4 6 -8 59 -8 116 0
91 -2 102 -15 91 -10 -8 -51 -13 -117 -14 -102 -1 -102 -1 -112 25 -5 14 -6
38 -2 53 6 26 7 26 104 26 71 0 103 -4 119 -15 21 -15 22 -14 29 32 4 27 4
179 1 338 -3 160 -3 318 0 353 l6 62 46 0 47 0 12 -45z m651 -82 c-1 -86 -6
-81 -12 15 -2 34 0 62 5 62 4 0 7 -35 7 -77z m-855 -74 c19 -15 26 -30 26 -54
0 -45 -29 -65 -95 -65 -68 0 -95 20 -95 70 0 42 7 49 54 61 54 12 83 10 110
-12z m786 1 c24 -13 34 -59 20 -95 l-11 -28 -83 5 c-46 3 -89 9 -95 12 -15 10
-14 103 2 109 22 10 148 7 167 -3z m-768 -273 c4 -6 8 -29 8 -49 0 -56 -27
-78 -95 -78 -66 0 -95 22 -95 73 0 42 17 65 55 70 46 7 118 -2 127 -16z m766
11 c14 -14 16 -106 3 -127 -7 -11 -25 -12 -83 -7 -41 4 -80 11 -87 15 -8 5
-11 26 -9 62 3 51 5 54 33 60 52 11 131 9 143 -3z m67 -450 c4 -35 5 -79 3
-98 l-3 -35 -115 6 -115 5 103 2 c73 1 102 6 103 15 3 34 -4 93 -11 100 -8 9
10 67 21 67 4 0 10 -28 14 -62z"/>
<path d="M4555 9055 l-25 -24 0 -585 0 -584 32 -27 c21 -18 38 -25 52 -21 12
3 294 6 628 6 l607 0 27 23 27 23 1 583 c2 556 1 585 -17 607 l-18 24 -645 0
-645 0 -24 -25z m505 -77 c0 -48 10 -51 122 -45 68 3 90 2 63 -3 -22 -5 -64
-9 -92 -9 -40 -1 -53 -5 -53 -16 0 -8 -4 -15 -10 -15 -6 0 -9 -169 -8 -447 0
-247 -3 -465 -7 -485 l-7 -38 -53 0 c-39 0 -54 4 -59 16 -3 9 -6 58 -6 109 l0
94 -32 -10 c-18 -5 -72 -9 -120 -9 -97 0 -106 7 -93 76 l6 34 104 0 c79 0 107
-4 119 -15 8 -8 17 -11 20 -7 3 5 4 182 1 392 -2 211 -2 387 1 392 3 4 27 8
55 8 44 0 49 -2 49 -22z m368 -505 c1 -358 -3 -531 -10 -540 -6 -7 -28 -13
-49 -13 -69 0 -68 -2 -71 543 -2 262 0 477 3 477 4 0 9 14 13 30 5 29 7 30 60
30 l54 0 0 -527z m264 329 c5 -5 8 -29 6 -53 -2 -35 -8 -46 -30 -58 -23 -13
-35 -13 -95 -2 -94 19 -93 19 -93 60 0 40 8 55 30 63 23 9 172 0 182 -10z
m-796 -26 c11 -64 0 -82 -52 -90 -110 -15 -131 -4 -143 70 l-8 52 98 1 98 2 7
-35z m561 2 c-3 -8 -6 -5 -6 6 -1 11 2 17 5 13 3 -3 4 -12 1 -19z m303 -253
c0 -41 -2 -75 -4 -75 -2 0 -11 20 -21 45 -14 38 -15 51 -5 75 20 49 30 34 30
-45z m-870 6 c24 -12 36 -26 38 -45 2 -14 -1 -26 -7 -26 -6 0 -11 -7 -11 -15
0 -22 -30 -33 -112 -41 -70 -6 -77 -5 -87 14 -15 28 -14 84 2 104 22 30 128
35 177 9z m787 -5 c6 -6 15 -35 19 -64 l7 -53 -104 3 -104 3 0 60 0 60 55 5
c65 7 110 2 127 -14z m92 -376 c-1 -25 -5 -14 -14 35 -17 91 -17 113 1 50 7
-27 13 -66 13 -85z m-81 81 c9 -5 12 -25 10 -57 l-3 -49 -108 -3 c-104 -3
-108 -2 -116 20 -5 14 -3 34 5 53 11 28 17 30 76 36 102 9 122 9 136 0z m-761
-183 c-3 -7 -5 -2 -5 12 0 14 2 19 5 13 2 -7 2 -19 0 -25z m-254 -70 c7 10 34
11 115 6 154 -9 150 -24 -6 -24 l-132 0 2 48 1 47 6 -45 c4 -29 9 -40 14 -32z
m267 -13 c0 -5 -5 -3 -10 5 -5 8 -10 20 -10 25 0 6 5 3 10 -5 5 -8 10 -19 10
-25z"/>
<path d="M4698 7973 c12 -2 32 -2 45 0 12 2 2 4 -23 4 -25 0 -35 -2 -22 -4z"/>
<path d="M8620 8135 c-30 -8 -149 -30 -265 -50 -277 -47 -364 -69 -460 -115
-89 -43 -159 -96 -149 -112 4 -6 3 -8 -3 -5 -15 10 -137 -118 -128 -134 5 -8
5 -11 0 -7 -4 4 -14 0 -20 -9 -12 -16 -15 -14 -32 14 -31 51 -103 124 -115
117 -6 -4 -8 -3 -5 4 11 17 -91 92 -188 137 -105 50 -175 68 -340 90 -66 9
-160 24 -210 35 -49 11 -121 22 -160 25 -38 4 -82 8 -96 11 -41 8 -79 -31 -90
-91 -19 -104 22 -340 82 -472 70 -152 200 -311 319 -393 115 -79 336 -170 410
-170 24 0 30 -4 30 -21 0 -26 -50 -190 -61 -203 -5 -6 -9 -18 -9 -28 0 -10 -5
-18 -11 -18 -5 0 -8 -4 -5 -9 3 -5 -1 -12 -9 -15 -8 -3 -15 -9 -14 -13 3 -20
-15 -52 -36 -63 -15 -8 -21 -18 -18 -28 4 -9 2 -13 -4 -9 -6 4 -22 -2 -34 -14
-13 -11 -17 -17 -9 -13 9 4 12 3 7 -2 -5 -5 -12 -9 -15 -9 -13 0 -121 -92
-116 -99 2 -3 1 -4 -2 -2 -3 3 -48 -18 -98 -45 -51 -27 -126 -58 -167 -69 -41
-10 -65 -20 -54 -21 11 -1 -52 -8 -140 -15 -202 -15 -3726 -19 -4019 -4 -221
12 -282 5 -376 -42 -91 -46 -214 -171 -258 -260 -59 -122 -74 -202 -75 -393
-1 -162 1 -176 32 -290 18 -66 47 -160 66 -210 l34 -90 1190 0 c655 0 1191 3
1191 7 0 3 -5 29 -11 56 -15 63 -6 100 28 113 33 12 52 -4 100 -86 90 -154
198 -252 368 -335 67 -33 153 -66 195 -76 110 -25 384 -31 486 -10 122 24 180
44 214 73 40 33 36 60 -21 146 -82 122 -253 274 -382 340 l-46 23 32 14 c45
21 138 16 206 -11 140 -57 259 -174 343 -337 37 -70 40 -82 36 -139 -3 -51 -9
-69 -34 -100 -42 -51 -94 -86 -186 -122 -137 -55 -197 -65 -378 -65 -178 0
-271 14 -404 61 -85 29 -136 39 -136 25 0 -17 -94 -1 -111 20 -9 10 -24 18
-33 18 -9 0 -16 7 -16 15 0 8 -4 15 -8 15 -14 0 -31 47 -27 69 2 14 -1 21 -11
21 -8 0 -17 8 -21 18 -3 9 -26 37 -50 61 -37 36 -48 42 -71 37 -76 -19 -538
-25 -1401 -20 l-944 6 24 -33 c54 -76 277 -288 369 -351 133 -91 300 -173 470
-228 275 -90 171 -85 1635 -85 1446 0 1302 -7 1625 77 203 52 360 108 495 176
105 52 214 116 225 132 3 4 20 15 38 24 18 9 30 21 27 26 -4 6 1 10 10 10 18
0 176 127 172 138 -1 4 1 7 5 7 13 0 87 78 82 87 -3 4 2 8 10 8 18 0 77 70 70
82 -3 5 -1 7 3 6 10 -3 93 88 93 100 0 4 -7 -1 -14 -10 -7 -10 -17 -18 -21
-18 -13 0 6 53 30 82 13 15 26 36 29 45 4 10 22 28 41 41 19 12 35 29 35 37 0
8 5 15 11 15 5 0 7 5 4 10 -11 17 14 38 38 33 13 -3 17 -1 10 4 -16 11 -28 83
-14 83 6 0 11 9 11 20 0 11 5 20 10 20 6 0 10 7 10 16 0 8 7 22 15 30 13 14
16 13 23 -7 7 -17 11 -19 17 -9 5 9 4 15 -3 18 -19 6 -14 32 7 32 13 0 20 10
25 31 5 26 9 30 28 25 13 -3 17 -3 11 0 -10 4 -10 10 2 27 8 12 15 29 15 39 0
10 7 18 15 18 8 0 17 14 21 35 3 19 10 32 15 29 5 -3 9 10 10 28 0 18 3 27 6
21 9 -24 30 -13 40 21 6 20 7 40 1 50 -6 10 -5 16 2 16 5 0 10 -6 11 -12 1
-15 37 80 38 100 1 7 -4 10 -10 6 -8 -4 -9 1 -4 17 10 33 25 48 18 18 -3 -13
-4 -22 -1 -19 21 20 112 441 102 472 -3 12 -2 18 3 15 12 -7 42 279 50 464 l6
137 66 7 c86 9 206 47 306 97 90 46 130 73 198 137 47 46 60 68 32 57 -13 -5
-14 -2 -3 17 7 12 11 26 10 30 -1 5 2 6 8 2 5 -3 10 3 10 14 0 11 7 26 15 35
8 8 15 30 15 49 0 20 6 38 13 40 9 4 8 8 -3 16 -8 5 -11 13 -7 18 5 4 13 1 18
-7 8 -11 12 -12 16 -2 2 6 11 12 18 12 8 0 22 13 31 30 10 17 30 32 45 35 20
5 32 17 43 46 36 89 67 237 73 341 l6 106 -28 26 c-32 30 -76 33 -165 11z
m-813 -1917 c-3 -7 -5 -2 -5 12 0 14 2 19 5 13 2 -7 2 -19 0 -25z m-96 -369
c-5 -13 -10 -19 -10 -12 -1 15 10 45 15 40 3 -2 0 -15 -5 -28z m-4272 -127
c98 -79 108 -238 20 -319 -81 -74 -227 -68 -303 13 -53 58 -66 163 -29 237 7
15 11 32 8 38 -4 5 -1 8 7 7 7 -2 12 3 10 10 -1 8 2 11 7 8 5 -4 12 -2 16 4
10 16 66 43 105 50 46 8 115 -12 159 -48z m3761 -732 c0 -5 -4 -10 -10 -10 -5
0 -10 5 -10 10 0 6 5 10 10 10 6 0 10 -4 10 -10z m-1881 -24 c10 -12 8 -13 -9
-9 -25 7 -37 23 -17 23 8 0 20 -6 26 -14z m31 -20 c0 -2 -8 -10 -17 -17 -16
-13 -17 -12 -4 4 13 16 21 21 21 13z"/>
<path d="M3253 5622 c-40 -37 -49 -71 -29 -110 15 -28 68 -62 99 -62 9 0 29
12 46 26 62 52 31 157 -49 170 -30 5 -41 1 -67 -24z"/>
<path d="M3104 7686 c-17 -8 -34 -21 -37 -29 -3 -9 -7 -273 -8 -588 -1 -556
-1 -572 19 -591 19 -19 35 -20 653 -19 l634 2 17 22 c16 20 17 72 20 582 2
308 -1 572 -5 586 -4 14 -19 31 -33 38 -39 18 -1218 15 -1260 -3z m506 -91
l12 -35 108 0 109 0 3 28 c3 25 6 27 53 27 l50 0 0 -525 0 -525 -41 -3 c-72
-5 -69 -27 -72 510 l-3 478 -102 0 -102 0 -1 -459 c-1 -253 -5 -476 -8 -495
-7 -35 -8 -36 -55 -36 -58 0 -61 5 -61 128 0 75 -2 83 -17 78 -10 -3 -62 -6
-116 -8 -106 -3 -117 2 -117 52 0 47 13 55 105 59 46 1 98 -2 115 -7 l30 -11
0 72 c1 40 0 158 0 262 -2 278 -2 304 5 372 6 57 8 62 33 66 57 9 60 7 72 -28z
m-337 -42 c-7 -2 -19 -2 -25 0 -7 3 -2 5 12 5 14 0 19 -2 13 -5z m157 -118 c7
-9 13 -32 14 -52 1 -48 -26 -63 -115 -63 -73 0 -79 5 -79 65 0 49 23 62 116
64 35 1 56 -4 64 -14z m792 -27 c3 -18 2 -44 -2 -58 -6 -24 -9 -25 -103 -28
l-97 -3 0 45 c0 76 1 76 105 76 l93 0 4 -32z m-790 -252 c4 -6 8 -34 8 -62 0
-45 -3 -52 -22 -58 -45 -12 -123 -6 -147 10 -20 14 -22 23 -18 57 3 21 10 44
16 50 26 26 147 28 163 3z m773 -2 c11 -12 15 -31 13 -68 l-3 -51 -77 -3 c-45
-2 -87 2 -99 9 -19 10 -21 17 -15 58 3 25 14 52 23 59 25 18 138 16 158 -4z
m19 -306 c6 -18 6 -38 0 -55 l-9 -28 -105 0 -105 0 -6 35 -6 35 -2 -35 c-2
-33 -2 -34 -16 -16 -8 11 -15 32 -15 48 0 22 5 28 23 28 12 0 29 5 37 10 8 6
55 9 105 8 88 -3 90 -4 99 -30z m43 -155 c-3 -10 -5 -4 -5 12 0 17 2 24 5 18
2 -7 2 -21 0 -30z m13 -78 c0 -14 -4 -25 -9 -25 -4 0 -6 11 -3 25 2 14 6 25 8
25 2 0 4 -11 4 -25z m-482 8 c-16 -2 -40 -2 -55 0 -16 2 -3 4 27 4 30 0 43 -2
28 -4z m-380 -20 c-16 -2 -40 -2 -55 0 -16 2 -3 4 27 4 30 0 43 -2 28 -4z"/>
<path d="M4553 7674 l-23 -24 2 -580 c3 -565 3 -580 23 -597 19 -17 57 -18
673 -13 632 5 654 6 668 24 12 17 14 114 14 592 l0 571 -27 27 -26 26 -641 -2
-640 -1 -23 -23z m866 -57 c12 -15 18 -1018 6 -1037 -3 -5 -28 -10 -54 -10
-44 0 -48 2 -59 33 -9 24 -12 143 -12 418 1 403 10 587 32 601 20 12 74 9 87
-5z m-344 -14 c21 -52 27 -911 7 -1003 -7 -33 -10 -35 -54 -38 -43 -3 -46 -1
-57 29 -6 18 -11 71 -11 119 0 69 -3 89 -15 94 -10 3 -15 -1 -15 -13 0 -10 -7
-22 -16 -25 -29 -11 -189 -7 -202 6 -17 17 -15 64 4 82 21 22 167 22 208 1 15
-8 32 -15 37 -15 5 0 9 164 9 374 0 415 -1 406 65 406 22 0 35 -6 40 -17z
m-183 -169 c13 -8 10 -94 -4 -99 -7 -2 -41 -6 -75 -10 -54 -5 -65 -3 -83 15
-29 29 -28 87 3 100 21 9 141 5 159 -6z m802 0 c11 -28 6 -69 -10 -93 -16 -22
-22 -23 -95 -19 -43 3 -85 10 -93 18 -19 15 -21 81 -4 98 8 8 46 12 104 12 75
0 93 -3 98 -16z m-804 -283 c12 -24 13 -81 1 -100 -6 -9 -36 -16 -87 -19 -67
-4 -79 -2 -91 13 -20 28 -16 76 9 102 18 20 31 23 89 23 57 0 70 -3 79 -19z
m789 3 c5 -5 12 -35 16 -66 l6 -58 -93 0 c-60 0 -98 4 -106 12 -13 13 -16 85
-5 113 5 15 18 17 90 13 46 -2 87 -9 92 -14z m19 -341 l-3 -58 -90 0 c-137 0
-135 -1 -135 54 0 26 3 51 7 54 3 4 55 7 115 7 l109 0 -3 -57z m69 -10 c-2
-16 -4 -5 -4 22 0 28 2 40 4 28 2 -13 2 -35 0 -50z"/>
<path d="M8685 7559 c-4 -6 -5 -12 -2 -15 2 -3 7 2 10 11 7 17 1 20 -8 4z"/>
<path d="M8529 7343 c-9 -10 -8 -13 4 -13 8 0 20 6 26 13 8 10 7 14 -4 14 -9
0 -20 -6 -26 -14z"/>
<path d="M7646 5675 c-9 -26 -7 -32 5 -12 6 10 9 21 6 23 -2 3 -7 -2 -11 -11z"/>
<path d="M7615 5609 c-4 -6 -5 -12 -2 -15 2 -3 7 2 10 11 7 17 1 20 -8 4z"/>
<path d="M7380 5210 c-12 -16 -19 -30 -16 -30 2 0 14 14 26 30 12 17 19 30 16
30 -2 0 -14 -13 -26 -30z"/>
<path d="M2669 3829 c-54 -8 -108 -34 -207 -101 -101 -68 -129 -78 -220 -78
-47 0 -83 -5 -90 -12 -21 -21 -15 -92 11 -115 65 -59 213 -27 377 82 93 62
155 88 188 80 26 -6 88 -42 208 -117 87 -55 151 -72 269 -72 134 -1 188 17
325 108 61 41 124 78 141 81 35 8 86 -15 244 -110 106 -64 179 -85 292 -85
105 0 164 21 298 108 122 79 155 94 195 86 17 -4 81 -40 142 -81 132 -87 180
-104 309 -110 142 -8 220 20 388 136 105 72 122 71 272 -20 262 -158 437 -155
685 11 38 27 88 54 111 60 35 11 46 10 89 -9 27 -12 83 -45 126 -72 114 -75
199 -102 328 -102 125 -1 165 12 294 96 174 114 166 114 348 1 137 -86 196
-107 296 -102 74 3 86 6 103 27 15 18 19 36 17 70 l-3 46 -92 7 c-105 8 -129
17 -239 85 -115 73 -155 91 -212 99 -77 10 -137 -10 -248 -82 -114 -74 -170
-94 -266 -94 -89 0 -161 26 -263 93 -175 116 -276 123 -425 30 -41 -26 -106
-63 -144 -82 -67 -34 -74 -36 -170 -36 -114 1 -142 11 -269 98 -105 72 -201
93 -299 64 -24 -8 -86 -42 -137 -77 -104 -71 -150 -90 -234 -97 -88 -9 -172
18 -281 90 -113 75 -169 97 -244 97 -74 -1 -113 -16 -201 -76 -117 -79 -141
-92 -206 -104 -111 -21 -201 6 -356 106 -85 55 -142 74 -218 74 -74 -1 -113
-16 -213 -82 -125 -83 -142 -90 -238 -96 -111 -6 -172 12 -276 79 -133 87
-210 112 -305 98z"/>
<path d="M6589 3416 c-44 -15 -93 -45 -181 -108 -105 -76 -170 -103 -253 -103
-81 0 -138 23 -256 102 -125 85 -167 103 -232 103 -67 0 -104 -16 -220 -98
-107 -75 -175 -101 -259 -102 -98 0 -169 27 -298 113 -190 125 -224 125 -408
-5 -164 -117 -234 -137 -357 -104 -64 17 -74 22 -216 112 -135 86 -202 107
-266 85 -21 -7 -90 -48 -153 -91 -138 -93 -191 -114 -280 -114 -55 0 -78 6
-141 35 -40 20 -109 59 -152 87 -184 120 -253 119 -422 -8 -94 -70 -195 -120
-258 -127 -29 -3 -62 -12 -74 -19 -23 -15 -43 -67 -35 -96 12 -47 154 -50 254
-5 32 14 105 59 164 99 139 96 150 96 294 11 151 -89 227 -122 301 -131 146
-17 225 8 414 133 55 36 110 68 123 72 25 6 60 -11 167 -80 103 -66 216 -117
288 -129 128 -21 268 23 402 127 33 26 77 56 98 67 48 24 79 16 163 -44 151
-106 258 -148 376 -148 122 0 212 35 373 145 50 35 90 55 108 55 34 0 85 -25
169 -84 172 -120 319 -153 469 -106 69 21 71 22 213 123 100 71 146 88 187 67
13 -7 54 -34 90 -61 96 -71 224 -129 311 -142 98 -14 200 8 291 63 36 22 71
40 76 40 6 0 11 4 11 9 0 6 25 28 57 50 87 63 105 58 295 -70 104 -71 154 -96
215 -109 56 -13 137 -4 158 17 19 19 20 106 1 122 -7 6 -45 15 -83 20 -83 10
-102 19 -263 127 -130 86 -194 111 -256 99 -17 -3 -76 -34 -130 -68 -174 -110
-213 -129 -276 -135 -96 -8 -173 19 -307 108 -157 105 -215 124 -292 96z"/>
<path d="M6575 3028 c-16 -6 -63 -33 -103 -60 -41 -28 -111 -68 -158 -90 -74
-36 -92 -40 -156 -40 -100 -1 -148 14 -258 82 -147 89 -172 100 -237 100 -45
0 -69 -7 -105 -28 -26 -15 -77 -45 -114 -66 -104 -61 -183 -86 -268 -86 -95 0
-156 19 -241 76 -125 84 -182 108 -256 108 -65 0 -67 -1 -180 -74 -246 -161
-337 -164 -569 -19 -63 40 -135 78 -159 86 -93 28 -167 11 -265 -63 -33 -25
-94 -62 -135 -82 -67 -33 -80 -36 -160 -36 -106 0 -163 21 -288 103 -103 68
-142 83 -222 82 -74 0 -104 -13 -216 -95 -99 -72 -185 -111 -266 -122 -30 -4
-60 -11 -67 -17 -18 -14 -15 -62 7 -88 18 -22 27 -24 108 -24 111 0 176 21
297 94 127 76 153 77 271 11 206 -116 267 -134 424 -128 126 5 175 25 302 120
115 86 122 87 232 27 195 -105 273 -140 340 -151 129 -21 245 15 408 128 50
35 104 66 119 69 31 7 121 -34 227 -101 82 -53 154 -75 264 -81 148 -9 204 9
362 112 46 30 95 59 109 64 34 13 106 -13 204 -75 124 -78 187 -101 304 -110
127 -10 253 35 391 141 106 83 133 83 249 4 152 -104 303 -157 419 -146 90 8
210 53 277 103 135 103 162 105 311 20 121 -70 202 -96 297 -96 85 0 116 16
116 60 0 35 -15 44 -95 59 -77 14 -200 75 -294 145 -144 108 -196 111 -347 19
-204 -124 -258 -142 -365 -123 -85 16 -106 25 -229 107 -58 38 -120 75 -139
81 -41 14 -105 14 -146 0z"/>
</g>
</svg>
